<svg xmlns="http://www.w3.org/2000/svg" width="1100" height="1000"><circle class="grid" r="166.66666666666666" cx="500" cy="500"></circle><circle class="grid" r="333.3333333333333" cx="500" cy="500"></circle><circle class="grid" r="500" cx="500" cy="500"></circle><circle r="3" cx="500" cy="500"></circle><text x="509" y="507">U Voltastr.</text><circle r="3" cx="536.5194900799894" cy="545.487411688019"></circle><text x="545.5194900799894" y="552.487411688019">U Bernauer Str.</text><circle r="3" cx="547.6469469971018" cy="568.3682154681532"></circle><text x="556.6469469971018" y="575.3682154681532">U Rosenthaler Platz</text><circle r="3" cx="450.7189272532802" cy="432.8001464780097"></circle><text x="459.7189272532802" y="439.8001464780097">S+U Gesundbrunnen Bhf</text><circle r="3" cx="565.244833063187" cy="586.4825003666522"></circle><text x="574.244833063187" y="593.4825003666522">U Weinmeisterstr.</text><circle r="3" cx="418.9689564122666" cy="428.0967240927511"></circle><text x="427.9689564122666" y="435.0967240927511">U Pankstr.</text><circle r="3" cx="392.96563253971857" cy="420.4926295230737"></circle><text x="401.96563253971857" y="427.4926295230737">U Osloer Str.</text><circle r="3" cx="598.1141640723438" cy="602.1912679871899"></circle><text x="607.1141640723438" y="609.1912679871899">S+U Alexanderplatz [U8]</text><circle r="3" cx="586.1303775777616" cy="632.8570754711869"></circle><text x="595.1303775777616" y="639.8570754711869">U Weinmeisterstr./Gipsstr.</text><circle r="3" cx="615.8846660326595" cy="619.7853161129391"></circle><text x="624.8846660326595" y="626.7853161129391">S+U Jannowitzbrücke</text><circle r="3" cx="365.9470082802785" cy="400.96680764122544"></circle><text x="374.9470082802785" y="407.96680764122544">U Franz-Neumann-Platz</text><circle r="3" cx="563.8222973444472" cy="329.91328053179825"></circle><text x="572.8222973444472" y="336.91328053179825">S Bornholmer Str.</text><circle r="3" cx="353.8492272954427" cy="389.3154809877554"></circle><text x="362.8492272954427" y="396.3154809877554">U Osloer Str./Tromsöer Str.</text><circle r="3" cx="361.34344562029196" cy="380.06055261650494"></circle><text x="370.34344562029196" y="387.06055261650494">U Residenzstr.</text><circle r="3" cx="313.3172490375121" cy="464.6510185001361"></circle><text x="322.3172490375121" y="471.6510185001361">S Humboldthain</text><circle r="3" cx="616.1137283200478" cy="652.4916824181871"></circle><text x="625.1137283200478" y="659.4916824181871">U Heinrich-Heine-Str.</text><circle r="3" cx="630.105508934862" cy="640.743268598934"></circle><text x="639.105508934862" y="647.743268598934">S+U Alexanderplatz Bhf/Dircksenstr.</text><circle r="3" cx="627.545817720409" cy="643.0670314682714"></circle><text x="636.545817720409" y="650.0670314682714">S+U Alexanderplatz Bhf/Gontardstr.</text><circle r="3" cx="636.1624677133677" cy="634.8921550621726"></circle><text x="645.1624677133677" y="641.8921550621726">S+U Alexanderplatz [U5]</text><circle r="3" cx="311.93670157953244" cy="431.93976353836115"></circle><text x="320.93670157953244" y="438.93976353836115">U Nauener Platz</text><circle r="3" cx="640.3741573236714" cy="653.9411372357855"></circle><text x="649.3741573236714" y="660.9411372357855">S+U Alexanderplatz Bhf</text><circle r="3" cx="655.558912344546" cy="638.5792284866662"></circle><text x="664.558912344546" y="645.5792284866662">U Alexanderplatz [Tram]</text><circle r="3" cx="651.4450456935697" cy="643.0635380264671"></circle><text x="660.4450456935697" y="650.0635380264671">S+U Alexanderplatz [U2]</text><circle r="3" cx="328.95280653553607" cy="381.0645747234743"></circle><text x="337.95280653553607" y="388.0645747234743">U Paracelsus-Bad</text><circle r="3" cx="702.7238139230019" cy="433.5608069011731"></circle><text x="711.7238139230019" y="440.5608069011731">S+U Schönhauser Allee</text><circle r="3" cx="593.591912217647" cy="695.4098216873674"></circle><text x="602.591912217647" y="702.4098216873674">U Moritzplatz</text><circle r="3" cx="499.94243629727083" cy="283.3333409800562"></circle><text x="508.94243629727083" y="290.3333409800562">S Wollankstr.</text><circle r="3" cx="278.42517818154454" cy="493.6196044612537"></circle><text x="287.42517818154454" y="500.6196044612537">S+U Wedding</text><circle r="3" cx="276.9203587772974" cy="470.6661684747752"></circle><text x="285.9203587772974" y="477.6661684747752">U Leopoldplatz</text><circle r="3" cx="662.0250478466622" cy="656.1181727739818"></circle><text x="671.0250478466622" y="663.1181727739818">S+U Alexanderpl./Grunerstr.(Bln) [Grunerstr.]</text><circle r="3" cx="300.075841278138" cy="379.68884006959206"></circle><text x="309.075841278138" y="386.68884006959206">U Lindauer Allee</text><circle r="3" cx="405.26919789675844" cy="716.8805806059813"></circle><text x="414.26919789675844" y="723.8805806059813">S Nordbahnhof</text><circle r="3" cx="672.2594974365123" cy="669.4976203983347"></circle><text x="681.2594974365123" y="676.4976203983347">S+U Alexanderpl/Memhardstr.[4-5]</text><circle r="3" cx="674.8885588272773" cy="666.7836016192713"></circle><text x="683.8885588272773" y="673.7836016192713">Berlin, Memhardstr.</text><circle r="3" cx="668.4511975563506" cy="673.2829242008835"></circle><text x="677.4511975563506" y="680.2829242008835">Berlin, S+U Alexanderplatz Bhf/Memhardstr.</text><circle r="3" cx="676.7704468405083" cy="664.7877025192864"></circle><text x="685.7704468405083" y="671.7877025192864">S+U Alexanderpl./Grunerstr.(Bln) [Alexanderstr.]</text><circle r="3" cx="305.44644076808436" cy="356.6413924175766"></circle><text x="314.44644076808436" y="363.6413924175766">U Paracelsus-Bad/Aroser Allee</text><circle r="3" cx="744.1896979861277" cy="480.0904194558568"></circle><text x="753.1896979861277" y="487.0904194558568">S Prenzlauer Allee</text><circle r="3" cx="400.11404359129074" cy="274.4623309583034"></circle><text x="409.11404359129074" y="281.4623309583034">S Schönholz</text><circle r="3" cx="609.1873902608336" cy="723.0416065501521"></circle><text x="618.1873902608336" y="730.0416065501521">S Hackescher Markt</text><circle r="3" cx="250.0046005775116" cy="498.4833366917845"></circle><text x="259.0046005775116" y="505.4833366917845">U Amrumer Str.</text><circle r="3" cx="626.9769367350142" cy="715.3528674928481"></circle><text x="635.9769367350142" y="722.3528674928481">U Kottbusser Tor</text><circle r="3" cx="304.61976123807" cy="344.0302519674689"></circle><text x="313.61976123807" y="351.0302519674689">Berlin, Stargardtstr.</text><circle r="3" cx="284.25208559672376" cy="373.6954576009374"></circle><text x="293.25208559672376" y="380.6954576009374">S+U Karl-Bonhoeffer-Nervenklinik</text><circle r="3" cx="695.8033043633952" cy="668.5146198746172"></circle><text x="704.8033043633952" y="675.5146198746172">U Alexanderplatz [Bus]</text><circle r="3" cx="704.2083140980271" cy="658.224762803907"></circle><text x="713.2083140980271" y="665.224762803907">U Rosa-Luxemburg-Platz</text><circle r="3" cx="238.34307079391854" cy="529.6664093359493"></circle><text x="247.34307079391854" y="536.6664093359493">S+U Westhafen</text><circle r="3" cx="481.1354060791571" cy="234.00143194499563"></circle><text x="490.1354060791571" y="241.00143194499563">S Wollankstr./Sternstr.</text><circle r="3" cx="716.8190620389742" cy="658.0894433993531"></circle><text x="725.8190620389742" y="665.0894433993531">S Ostbahnhof</text><circle r="3" cx="498.5361105782127" cy="769.9960315037255"></circle><text x="507.5361105782127" y="776.9960315037255">S Oranienburger Str.</text><circle r="3" cx="643.7949924662348" cy="734.4098977040761"></circle><text x="652.7949924662348" y="741.4098977040761">U Schönleinstr.</text><circle r="3" cx="778.2396548653296" cy="507.22072744719736"></circle><text x="787.2396548653296" y="514.2207274471973">S Greifswalder Str.</text><circle r="3" cx="422.82629450663865" cy="770.8880401411901"></circle><text x="431.82629450663865" y="777.8880401411901">S+U Friedrichstr. Bhf</text><circle r="3" cx="264.22863680339" cy="342.8706199522508"></circle><text x="273.22863680339" y="349.8706199522508">U Rathaus Reinickendorf</text><circle r="3" cx="677.4302970385511" cy="720.898771998826"></circle><text x="686.4302970385511" y="727.898771998826">U Klosterstr.</text><circle r="3" cx="756.9085560835978" cy="619.4812604085624"></circle><text x="765.9085560835978" y="626.4812604085624">U Senefelderplatz</text><circle r="3" cx="523.805324306923" cy="217.66848508815033"></circle><text x="532.805324306923" y="224.66848508815033">Berlin, Pradelstr.</text><circle r="3" cx="213.06918305515515" cy="552.3464490849991"></circle><text x="222.06918305515515" y="559.3464490849991">U Birkenstr.</text><circle r="3" cx="735.4026368565231" cy="672.2063965288175"></circle><text x="744.4026368565231" y="679.2063965288175">U Schillingstr.</text><circle r="3" cx="319.4155304263494" cy="266.7313794167693"></circle><text x="328.4155304263494" y="273.7313794167693">S Wilhelmsruh</text><circle r="3" cx="206.93085653310283" cy="533.6968418042288"></circle><text x="215.93085653310283" y="540.6968418042288">S Beusselstr.</text><circle r="3" cx="689.1231998965452" cy="269.2724701326927"></circle><text x="698.1231998965452" y="276.2724701326927">Berlin, Björnsonstr.</text><circle r="3" cx="648.8014484492603" cy="760.4959288346023"></circle><text x="657.8014484492603" y="767.4959288346023">U Kottbusser Tor [Bus Reichenbg. Str.]</text><circle r="3" cx="205.92450664686478" cy="440.67374772404594"></circle><text x="214.92450664686478" y="447.67374772404594">U Seestr.</text><circle r="3" cx="656.7569813671839" cy="765.5121338792123"></circle><text x="665.7569813671839" y="772.5121338792123">U Hermannplatz</text><circle r="3" cx="270.10248990152854" cy="294.53326474835967"></circle><text x="279.10248990152854" y="301.53326474835967">S+U Wittenau [U8]</text><circle r="3" cx="645.7361973912031" cy="771.717509951782"></circle><text x="654.7361973912031" y="778.717509951782">U Märkisches Museum</text><circle r="3" cx="692.014943160167" cy="252.39539709251036"></circle><text x="701.014943160167" y="259.3953970925104">S+U Pankow</text><circle r="3" cx="196.75062615853633" cy="591.2008500099532"></circle><text x="205.75062615853633" y="598.2008500099532">U Turmstr.</text><circle r="3" cx="666.2668665584661" cy="769.5053002495629"></circle><text x="675.2668665584661" y="776.5053002495629">U Kottbusser Tor [Bus Adalbertstr.]</text><circle r="3" cx="772.0917148631833" cy="661.9996187668044"></circle><text x="781.0917148631833" y="668.9996187668044">U Strausberger Platz</text><circle r="3" cx="816.3249609660584" cy="514.7070339497625"></circle><text x="825.3249609660584" y="521.7070339497625">U Eberswalder Str.</text><circle r="3" cx="769.5768846581808" cy="669.3056832155999"></circle><text x="778.5768846581808" y="676.3056832155999">S+U Warschauer Str.</text><circle r="3" cx="811.9207685840486" cy="563.5731487111302"></circle><text x="820.9207685840486" y="570.5731487111302">S Landsberger Allee</text><circle r="3" cx="320.1560601025012" cy="764.6812371176786"></circle><text x="329.1560601025012" y="771.6812371176786">S Nordbahnhof/Gartenstr.</text><circle r="3" cx="709.9698719196948" cy="748.0678392819733"></circle><text x="718.9698719196948" y="755.0678392819733">U Görlitzer Bahnhof</text><circle r="3" cx="225.57177440248816" cy="677.2011853981577"></circle><text x="234.57177440248816" y="684.2011853981577">S+U Berlin Hauptbahnhof</text><circle r="3" cx="362.9745949823598" cy="802.0377727330299"></circle><text x="371.9745949823598" y="809.0377727330299">S+U Brandenburger Tor</text><circle r="3" cx="658.2717935930558" cy="793.3618081208735"></circle><text x="667.2717935930558" y="800.3618081208735">U Boddinstr.</text><circle r="3" cx="223.1136338987062" cy="314.4062194513744"></circle><text x="232.1136338987062" y="321.4062194513744">U Rathaus Reinickendorf (Bln)[Bus Eichborndamm]</text><circle r="3" cx="221.48658625359658" cy="316.8569152972578"></circle><text x="230.48658625359658" y="323.8569152972578">U Rathaus Reinickendorf (Bln)[Bus Am Nordgraben]</text><circle r="3" cx="178.6025284401999" cy="411.5987761053129"></circle><text x="187.6025284401999" y="418.5987761053129">U Rehberge</text><circle r="3" cx="598.3136832184936" cy="818.5051503557278"></circle><text x="607.3136832184936" y="825.5051503557278">U Spittelmarkt</text><circle r="3" cx="163.9224896586482" cy="460.99549401411434"></circle><text x="172.9224896586482" y="467.99549401411434">Berlin, Nettelbeckplatz/S Wedding</text><circle r="3" cx="162.43389844658307" cy="540.6094457242183"></circle><text x="171.43389844658307" y="547.6094457242183">S+U Jungfernheide Bhf</text><circle r="3" cx="188.95452761949826" cy="641.3747686919476"></circle><text x="197.95452761949826" y="648.3747686919476">U Hansaplatz</text><circle r="3" cx="234.21936194519765" cy="285.29843143029143"></circle><text x="243.21936194519765" y="292.29843143029143">S Alt-Reinickendorf</text><circle r="3" cx="807.212179677001" cy="649.5218638501312"></circle><text x="816.212179677001" y="656.5218638501312">U Weberwiese</text><circle r="3" cx="244.73823422105178" cy="265.43826247831646"></circle><text x="253.73823422105178" y="272.43826247831646">S+U Wittenau</text><circle r="3" cx="682.0723272324562" cy="798.9141476346634"></circle><text x="691.0723272324562" y="805.9141476346634">Berlin, Berliner Rathaus</text><circle r="3" cx="605.1623671025212" cy="833.8276150131899"></circle><text x="614.1623671025212" y="840.8276150131899">U Prinzenstr.</text><circle r="3" cx="788.5903635820507" cy="700.9603107382754"></circle><text x="797.5903635820507" y="707.9603107382754">S Ostbahnhof/Erich-Steinfurth-Str.</text><circle r="3" cx="776.2146289146879" cy="717.6578122144153"></circle><text x="785.2146289146879" y="724.6578122144153">Berlin, Stralauer Platz</text><circle r="3" cx="841.7532298311492" cy="582.9106407189217"></circle><text x="850.7532298311492" y="589.9106407189217">S Storkower Str.</text><circle r="3" cx="819.4882803937031" cy="658.5507798851387"></circle><text x="828.4882803937031" y="665.5507798851387">S Ostkreuz Bhf</text><circle r="3" cx="666.5252826607046" cy="817.2886824526684"></circle><text x="675.5252826607046" y="824.2886824526684">U Leinestr.</text><circle r="3" cx="679.0766435215578" cy="810.3777271693808"></circle><text x="688.0766435215578" y="817.3777271693808">U Hermannplatz/Karl-Marx-Str.</text><circle r="3" cx="229.8012504729998" cy="264.63769730089916"></circle><text x="238.8012504729998" y="271.63769730089916">U Wittenau [Bus]</text><circle r="3" cx="235.42920672731543" cy="258.32858438607144"></circle><text x="244.42920672731543" y="265.32858438607144">S+U Wittenau [Bus Wilhelmsruher Damm]</text><circle r="3" cx="157.61999247127196" cy="394.27058960532366"></circle><text x="166.61999247127196" y="401.27058960532366">U Afrikanische Str.</text><circle r="3" cx="830.6671863643858" cy="638.0651644682264"></circle><text x="839.6671863643858" y="645.0651644682264">U Frankfurter Tor</text><circle r="3" cx="697.0175143124759" cy="799.3106694254501"></circle><text x="706.0175143124759" y="806.3106694254501">U Märkisches Museum/Inselstr.</text><circle r="3" cx="777.6934016706493" cy="726.4710852324446"></circle><text x="786.6934016706493" y="733.4710852324446">U Schlesisches Tor</text><circle r="3" cx="329.89397959250664" cy="822.9379844817353"></circle><text x="338.89397959250664" y="829.9379844817353">S+U Potsdamer Platz Bhf</text><circle r="3" cx="148.52895127470012" cy="604.4631339391188"></circle><text x="157.52895127470012" y="611.4631339391188">U Turmstr. [Bus Turmstr.]</text><circle r="3" cx="149.96532016243387" cy="609.1795189376516"></circle><text x="158.96532016243387" y="616.1795189376516">U Turmstr. [Bus Alt-Moabit]</text><circle r="3" cx="711.1968174064126" cy="799.7337964959022"></circle><text x="720.1968174064126" y="806.7337964959022">U Rathaus Neukölln</text><circle r="3" cx="134.71228964675242" cy="531.7700032944024"></circle><text x="143.71228964675242" y="538.7700032944024">U Reinickendorfer Str.</text><circle r="3" cx="528.8120613204188" cy="865.5329117424488"></circle><text x="537.8120613204188" y="872.5329117424488">U Hausvogteiplatz</text><circle r="3" cx="792.523819592391" cy="723.8286385061634"></circle><text x="801.523819592391" y="730.8286385061634">Berlin, Andreasstr./Lange Str.</text><circle r="3" cx="802.8001027244102" cy="712.6313659601674"></circle><text x="811.8001027244102" y="719.6313659601674">S Treptower Park</text><circle r="3" cx="162.89847266026348" cy="656.5205142348055"></circle><text x="171.89847266026348" y="663.5205142348055">S Bellevue</text><circle r="3" cx="173.306272830743" cy="684.1092301549792"></circle><text x="182.306272830743" y="691.1092301549792">S+U Zoologischer Garten Bhf</text><circle r="3" cx="675.6977867839189" cy="831.2933559841376"></circle><text x="684.6977867839189" y="838.2933559841376">S+U Hermannstr.</text><circle r="3" cx="692.8215378518319" cy="821.6284417467688"></circle><text x="701.8215378518319" y="828.6284417467688">U Hermannplatz [Bus Ostseite]</text><circle r="3" cx="689.3827365964063" cy="823.6652268614226"></circle><text x="698.3827365964063" y="830.6652268614226">U Hermannplatz [Bus Westseite]</text><circle r="3" cx="142.69561016065285" cy="386.16427185838427"></circle><text x="151.69561016065285" y="393.16427185838427">U Kurt-Schumacher-Platz</text><circle r="3" cx="744.4391895508321" cy="209.05415862787723"></circle><text x="753.4391895508321" y="216.05415862787723">Berlin, S+U Pankow/Granitzstr.</text><circle r="3" cx="134.14706941672628" cy="614.438095178462"></circle><text x="143.14706941672628" y="621.438095178462">U Turmstr. [Bus Stromstr.]</text><circle r="3" cx="859.8248247739728" cy="632.1761700187453"></circle><text x="868.8248247739728" y="639.1761700187453">U Samariterstr.</text><circle r="3" cx="487.57392968744443" cy="883.1318796720418"></circle><text x="496.57392968744443" y="890.1318796720418">U Hallesches Tor</text><circle r="3" cx="865.0346616455852" cy="622.3711395603274"></circle><text x="874.0346616455852" y="629.3711395603274">S+U Frankfurter Allee</text><circle r="3" cx="209.49310867833975" cy="247.3525260474091"></circle><text x="218.49310867833975" y="254.3525260474091">S Waidmannslust</text><circle r="3" cx="119.83245947199217" cy="579.2175416600597"></circle><text x="128.83245947199217" y="586.2175416600597">S Westend</text><circle r="3" cx="780.5615550613765" cy="229.10294608183318"></circle><text x="789.5615550613765" y="236.10294608183318">S Pankow-Heinersdorf</text><circle r="3" cx="853.9259069143108" cy="663.8183518867241"></circle><text x="862.9259069143108" y="670.8183518867241">S Rummelsburg</text><circle r="3" cx="708.7992514187962" cy="831.3693564358782"></circle><text x="717.7992514187962" y="838.3693564358782">U Hermannplatz/Sonnenallee</text><circle r="3" cx="701.3656815486473" cy="835.9384468503516"></circle><text x="710.3656815486473" y="842.9384468503516">U Hermannplatz/Urbanstr.</text><circle r="3" cx="731.4167765168414" cy="815.9890082334067"></circle><text x="740.4167765168414" y="822.9890082334067">U Karl-Marx-Str.</text><circle r="3" cx="442.1253556518537" cy="887.3671427978287"></circle><text x="451.1253556518537" y="894.3671427978287">U Französische Str.</text><circle r="3" cx="135.62015241334052" cy="643.6318364795932"></circle><text x="144.62015241334052" y="650.6318364795932">U Schwartzkopffstr.</text><circle r="3" cx="801.3949893990633" cy="249.8723562999956"></circle><text x="810.3949893990633" y="256.8723562999956">U Vinetastr.</text><circle r="3" cx="157.24168832577183" cy="706.1958772095909"></circle><text x="166.24168832577183" y="713.1958772095909">U Kurfürstendamm</text><circle r="3" cx="116.88878053771606" cy="384.99654995557"></circle><text x="125.88878053771606" y="391.99654995557">U Scharnweberstr.</text><circle r="3" cx="453.88674338403285" cy="897.3330688028244"></circle><text x="462.88674338403285" y="904.3330688028244">U Stadtmitte</text><circle r="3" cx="383.4769349465989" cy="882.6517676825247"></circle><text x="392.4769349465989" y="889.6517676825247">S Anhalter Bahnhof</text><circle r="3" cx="133.12394029342323" cy="675.4415418079598"></circle><text x="142.12394029342323" y="682.4415418079598">S Tiergarten</text><circle r="3" cx="206.44582227755942" cy="783.8345571857184"></circle><text x="215.44582227755942" y="790.8345571857184">U Naturkundemuseum</text><circle r="3" cx="405.9563306946009" cy="897.3561367019363"></circle><text x="414.9563306946009" y="904.3561367019363">U Möckernbrücke</text><circle r="3" cx="356.2577241793905" cy="889.3111328255484"></circle><text x="365.2577241793905" y="896.3111328255484">S+U Brandenburger Tor/Glinkastr.</text><circle r="3" cx="304.6325416898559" cy="866.1373461331609"></circle><text x="313.6325416898559" y="873.1373461331609">S Potsdamer Platz Bhf/Voßstr.</text><circle r="3" cx="159.5461769042992" cy="740.2130417996333"></circle><text x="168.5461769042992" y="747.2130417996333">U Spichernstr.</text><circle r="3" cx="735.5249012754475" cy="843.7137355275489"></circle><text x="744.5249012754475" y="850.7137355275489">S+U Neukölln [U7]</text><circle r="3" cx="613.625891897709" cy="900.8743790784854"></circle><text x="622.625891897709" y="907.8743790784854">U Südstern</text><circle r="3" cx="83.39097178705113" cy="506.9302757934662"></circle><text x="92.39097178705113" y="513.9302757934662">U Reinickendorfer Str./Fennstr.</text><circle r="3" cx="374.3512503801712" cy="897.2700628414941"></circle><text x="383.3512503801712" y="904.2700628414941">U Mohrenstr.</text><circle r="3" cx="862.6123963856429" cy="708.6025593448919"></circle><text x="871.6123963856429" y="715.6025593448919">S Warschauer Str.</text><circle r="3" cx="860.4227450614055" cy="712.3634210973702"></circle><text x="869.4227450614055" y="719.3634210973702">Berlin, Helsingforser Platz</text><circle r="3" cx="847.472658944722" cy="735.9295472930105"></circle><text x="856.472658944722" y="742.9295472930105">S Treptower Park [Bus Treptowers]</text><circle r="3" cx="843.1866840604259" cy="742.1216633917943"></circle><text x="852.1866840604259" y="749.1216633917943">S Treptower Park [Bus Puschkinallee]</text><circle r="3" cx="97.64959050447763" cy="626.1622992679004"></circle><text x="106.64959050447763" y="633.1622992679004">S Messe Nord/ICC</text><circle r="3" cx="178.91448404636301" cy="224.1101622823018"></circle><text x="187.91448404636301" y="231.1101622823018">S Hermsdorf</text><circle r="3" cx="79.97447143725323" cy="552.8172932541636"></circle><text x="88.97447143725323" y="559.8172932541636">Berlin, Tegeler Weg/S Jungfernheide</text><circle r="3" cx="362.67027583251433" cy="902.2008787410618"></circle><text x="371.67027583251433" y="909.2008787410618">U Oranienburger Tor</text><circle r="3" cx="94.67823985399187" cy="372.17484303885306"></circle><text x="103.67823985399187" y="379.17484303885306">U Otisstr.</text><circle r="3" cx="838.3698208142685" cy="757.1592198660586"></circle><text x="847.3698208142685" y="764.1592198660586">S Plänterwald</text><circle r="3" cx="163.3350027122711" cy="762.108992683765"></circle><text x="172.3350027122711" y="769.108992683765">Berlin, Washingtonplatz/Hauptbahnhof</text><circle r="3" cx="891.0432716522413" cy="674.7987532562971"></circle><text x="900.0432716522413" y="681.7987532562971">S Betriebsbahnhof Rummelsburg</text><circle r="3" cx="178.93314346813204" cy="213.96490838230199"></circle><text x="187.93314346813204" y="220.96490838230199">Berlin, Göschenplatz/S Wittenau</text><circle r="3" cx="797.1388188554207" cy="813.1207968824758"></circle><text x="806.1388188554207" y="820.1207968824758">S Sonnenallee</text><circle r="3" cx="811.5059141087386" cy="201.1686485885555"></circle><text x="820.5059141087386" y="208.1686485885555">S Blankenburg</text><circle r="3" cx="315.49798051002284" cy="890.2500684371897"></circle><text x="324.49798051002284" y="897.2500684371897">S+U Potsdamer Platz (Bln) [Bus Leipziger Str.]</text><circle r="3" cx="279.61545099346165" cy="871.169451423869"></circle><text x="288.61545099346165" y="878.169451423869">Berlin, Varian-Fry-Str./Potsdamer Platz</text><circle r="3" cx="751.1506096392677" cy="851.0832983622764"></circle><text x="760.1506096392677" y="858.0832983622764">S+U Neukölln</text><circle r="3" cx="159.0577434301706" cy="767.462437480201"></circle><text x="168.0577434301706" y="774.462437480201">U Güntzelstr.</text><circle r="3" cx="471.1124487508309" cy="932.3693873999459"></circle><text x="480.1124487508309" y="939.3693873999459">U Kochstr./Checkpoint Charlie</text><circle r="3" cx="319.6109192633633" cy="894.0019763005878"></circle><text x="328.6109192633633" y="901.0019763005878">U Gleisdreieck</text><circle r="3" cx="844.083487616204" cy="766.1419800592713"></circle><text x="853.083487616204" y="773.1419800592713">Berlin, East Side Gallery</text><circle r="3" cx="923.0077183484684" cy="601.4370258713398"></circle><text x="932.0077183484684" y="608.4370258713398">Berlin, Franz-Jacob-Str.</text><circle r="3" cx="903.9387033586485" cy="665.8653119452996"></circle><text x="912.9387033586485" y="672.8653119452996">S Nöldnerplatz</text><circle r="3" cx="111.36209105713041" cy="709.8333152217689"></circle><text x="120.36209105713041" y="716.8333152217689">S+U Zoologischer Garten/Jebensstr.</text><circle r="3" cx="706.3886730434358" cy="890.4781172918839"></circle><text x="715.3886730434358" y="897.4781172918839">S+U Hermannstr./Silbersteinstr.</text><circle r="3" cx="747.7726825111602" cy="865.6202158602123"></circle><text x="756.7726825111602" y="872.6202158602123">U Grenzallee</text><circle r="3" cx="519.9583595365015" cy="941.2154896748937"></circle><text x="528.9583595365015" y="948.2154896748937">U Gneisenaustr.</text><circle r="3" cx="81.91714647038678" cy="357.6055758501043"></circle><text x="90.91714647038678" y="364.6055758501043">U Holzhauser Str.</text><circle r="3" cx="923.0265004783329" cy="626.9567813765748"></circle><text x="932.0265004783329" y="633.9567813765748">U Magdalenenstr.</text><circle r="3" cx="322.97493197639784" cy="908.2733462904957"></circle><text x="331.97493197639784" y="915.2733462904957">S+U Yorckstr. S2 S25 S26 U7</text><circle r="3" cx="307.70798277782933" cy="905.0019233169222"></circle><text x="316.70798277782933" y="912.0019233169222">S+U Potsdamer Platz (Bln) [U2]</text><circle r="3" cx="301.7890947286879" cy="902.1383030865187"></circle><text x="310.7890947286879" y="909.1383030865187">S+U Potsdamer Platz (Bln) [Bus Stresemannstr.]</text><circle r="3" cx="452.8842739829498" cy="947.526656593645"></circle><text x="461.8842739829498" y="954.526656593645">U Stadtmitte [3-4]</text><circle r="3" cx="466.55048269190235" cy="948.7550888757199"></circle><text x="475.55048269190235" y="955.7550888757199">U Stadtmitte [5]</text><circle r="3" cx="109.01969142129292" cy="722.7877875999917"></circle><text x="118.01969142129292" y="729.7877875999917">U Uhlandstr.</text><circle r="3" cx="76.65546254788164" cy="652.575891311347"></circle><text x="85.65546254788164" y="659.575891311347">S Westkreuz</text><circle r="3" cx="895.9233068823543" cy="717.3649301178065"></circle><text x="904.9233068823543" y="724.3649301178065">Berlin, Revaler Str.</text><circle r="3" cx="153.21919569472493" cy="799.6873674512007"></circle><text x="162.21919569472493" y="806.6873674512007">U Berliner Str.</text><circle r="3" cx="360.870393959441" cy="936.7063053900679"></circle><text x="369.870393959441" y="943.7063053900679">U Oranienburger Tor [Linienstr.]</text><circle r="3" cx="357.25445829953236" cy="935.5377765120776"></circle><text x="366.25445829953236" y="942.5377765120776">U Oranienburger Tor [Tram/Bus]</text><circle r="3" cx="207.13992593027058" cy="852.5654853503346"></circle><text x="216.13992593027058" y="859.5654853503346">U Naturkundemuseum [Chausseestr.]</text><circle r="3" cx="180.96078550284162" cy="829.0644679352066"></circle><text x="189.96078550284162" y="836.0644679352066">U Naturkundemuseum [Invalidenstr.]</text><circle r="3" cx="869.2803962009324" cy="777.0705687957376"></circle><text x="878.2803962009324" y="784.0705687957376">S Baumschulenweg</text><circle r="3" cx="752.5852833315081" cy="892.4008822901901"></circle><text x="761.5852833315081" y="899.4008822901901">U Blaschkoallee</text><circle r="3" cx="761.8995239567192" cy="886.2465755563687"></circle><text x="770.8995239567192" y="893.2465755563687">Berlin, Lahnstr./U Neukölln</text><circle r="3" cx="766.4180924936201" cy="883.1438082102316"></circle><text x="775.4180924936201" y="890.1438082102316">S+U Neukölln [Bus]</text><circle r="3" cx="63.73964730782561" cy="334.30545438464986"></circle><text x="72.7396473078256" y="341.30545438464986">U Borsigwerke</text><circle r="3" cx="948.8827308979348" cy="627.6012213083792"></circle><text x="957.8827308979348" y="634.6012213083792">S+U Lichtenberg [U5]</text><circle r="3" cx="292.2911295676262" cy="917.8932913094982"></circle><text x="301.2911295676262" y="924.8932913094982">U Mendelssohn-Bartholdy-Park</text><circle r="3" cx="222.71105242072082" cy="875.3513251983447"></circle><text x="231.71105242072082" y="882.3513251983447">U Kurfürstenstr.</text><circle r="3" cx="878.7106125642639" cy="775.5256486106352"></circle><text x="887.7106125642639" y="782.5256486106352">Berlin, Tamara-Danz-Str.</text><circle r="3" cx="885.6631919800412" cy="765.70663044583"></circle><text x="894.6631919800412" y="772.70663044583">Berlin, Oberbaumbrücke</text><circle r="3" cx="880.2485032713297" cy="776.244594082696"></circle><text x="889.2485032713297" y="783.244594082696">Berlin, Elsenstr./S Treptower Park</text><circle r="3" cx="951.580962133067" cy="630.2867400734752"></circle><text x="960.580962133067" y="637.2867400734752">S+U Lichtenberg Bhf</text><circle r="3" cx="142.82640154289567" cy="194.50528553638907"></circle><text x="151.82640154289567" y="201.50528553638907">S Frohnau</text><circle r="3" cx="450.1431817718027" cy="967.3481546728952"></circle><text x="459.1431817718027" y="974.3481546728952">S+U Tempelhof</text><circle r="3" cx="38.5408650105854" cy="597.5956514362484"></circle><text x="47.5408650105854" y="604.5956514362484">Berlin, Sophie-Charlotten-Str.</text><circle r="3" cx="75.06603524473721" cy="704.6962873181083"></circle><text x="84.06603524473721" y="711.6962873181083">S Savignyplatz</text><circle r="3" cx="842.9409080634043" cy="826.2452727950126"></circle><text x="851.9409080634043" y="833.2452727950126">S Köllnische Heide</text><circle r="3" cx="449.67992814165837" cy="972.3271010308125"></circle><text x="458.67992814165837" y="979.3271010308125">U Mehringdamm</text><circle r="3" cx="417.4659671592533" cy="967.7746609458901"></circle><text x="426.4659671592533" y="974.7746609458901">Berlin, Unter den Linden/Friedrichstr.</text><circle r="3" cx="61.815325886218076" cy="683.3553690836424"></circle><text x="70.81532588621808" y="690.3553690836424">U Ernst-Reuter-Platz</text><circle r="3" cx="107.88677395723717" cy="771.0319705744108"></circle><text x="116.88677395723717" y="778.0319705744108">S+U Berlin Hauptbahnhof (tief)</text><circle r="3" cx="938.4247176284625" cy="695.4066707469398"></circle><text x="947.4247176284625" y="702.4066707469398">S Karlshorst</text><circle r="3" cx="58.619664890028346" cy="688.6356270119967"></circle><text x="67.61966489002835" y="695.6356270119967">S Halensee</text><circle r="3" cx="155.08000202404105" cy="838.5872208270353"></circle><text x="164.08000202404105" y="845.5872208270353">S+U Bundesplatz</text><circle r="3" cx="275.67870495954867" cy="930.0057634397181"></circle><text x="284.67870495954867" y="937.0057634397181">S+U Yorckstr. S1 U7</text><circle r="3" cx="308.4751718992311" cy="949.207841277749"></circle><text x="317.4751718992311" y="956.207841277749">S Südkreuz Bhf</text><circle r="3" cx="944.1056801998111" cy="707.0510681311813"></circle><text x="953.1056801998111" y="714.0510681311813">Berlin, Marktstr.</text><circle r="3" cx="754.4070551179215" cy="920.7293208433873"></circle><text x="763.4070551179215" y="927.7293208433873">U Parchimer Allee</text><circle r="3" cx="47.46873071152097" cy="307.7721106934035"></circle><text x="56.46873071152097" y="314.7721106934035">U Alt-Tegel</text><circle r="3" cx="160.26341484884176" cy="855.4084464682021"></circle><text x="169.26341484884176" y="862.4084464682021">U Nollendorfplatz</text><circle r="3" cx="896.4818813313593" cy="790.7545853242164"></circle><text x="905.4818813313593" y="797.7545853242164">S Plänterwald [Bus Köpenicker Landstr.]</text><circle r="3" cx="864.3364486328213" cy="160.0072599176055"></circle><text x="873.3364486328213" y="167.0072599176055">S Karow Bhf</text><line x1="838.3698208142685" y1="757.1592198660586" x2="896.4818813313593" y2="790.7545853242164" class="Transfer"></line><line x1="853.9259069143108" y1="663.8183518867241" x2="944.1056801998111" y2="707.0510681311813" class="Transfer"></line><line x1="329.89397959250664" y1="822.9379844817353" x2="308.9220044737746" y2="862.7522565411272" class="S1 Connection"></line><line x1="225.57177440248816" y1="677.2011853981577" x2="107.88677395723717" y2="771.0319705744108" class="Transfer"></line><line x1="173.306272830743" y1="684.1092301549792" x2="107.96752739689158" y2="720.9310761859749" class="U2 Connection"></line><line x1="442.1253556518537" y1="887.3671427978287" x2="417.4659671592533" y2="967.7746609458901" class="Transfer"></line><line x1="119.83245947199217" y1="579.2175416600597" x2="38.5408650105854" y2="597.5956514362484" class="Transfer"></line><line x1="675.6977867839189" y1="831.2933559841376" x2="694.4388840408703" y2="866.6313139557791" class="S41 Connection"></line><line x1="802.8001027244102" y1="712.6313659601674" x2="880.2485032713297" y2="776.244594082696" class="Transfer"></line><line x1="769.5768846581808" y1="669.3056832155999" x2="885.6631919800412" y2="765.70663044583" class="Transfer"></line><line x1="769.5768846581808" y1="669.3056832155999" x2="878.7106125642639" y2="775.5256486106352" class="Transfer"></line><line x1="735.5249012754475" y1="843.7137355275489" x2="766.4180924936201" y2="883.1438082102316" class="Transfer"></line><line x1="735.5249012754475" y1="843.7137355275489" x2="761.8995239567192" y2="886.2465755563687" class="Transfer"></line><line x1="206.44582227755942" y1="783.8345571857184" x2="180.96078550284162" y2="829.0644679352066" class="Transfer"></line><line x1="206.44582227755942" y1="783.8345571857184" x2="207.13992593027058" y2="852.5654853503346" class="Transfer"></line><line x1="362.67027583251433" y1="902.2008787410618" x2="357.25445829953236" y2="935.5377765120776" class="Transfer"></line><line x1="362.67027583251433" y1="902.2008787410618" x2="360.870393959441" y2="936.7063053900679" class="Transfer"></line><line x1="769.5768846581808" y1="669.3056832155999" x2="895.9233068823543" y2="717.3649301178065" class="Transfer"></line><line x1="157.24168832577183" y1="706.1958772095909" x2="128.67849568625283" y2="723.3788669770568" class="U1 Connection"></line><line x1="453.88674338403285" y1="897.3330688028244" x2="466.55048269190235" y2="948.7550888757199" class="Transfer"></line><line x1="453.88674338403285" y1="897.3330688028244" x2="452.8842739829498" y2="947.526656593645" class="Transfer"></line><line x1="329.89397959250664" y1="822.9379844817353" x2="301.7890947286879" y2="902.1383030865187" class="Transfer"></line><line x1="329.89397959250664" y1="822.9379844817353" x2="307.70798277782933" y2="905.0019233169222" class="Transfer"></line><line x1="675.6977867839189" y1="831.2933559841376" x2="706.3886730434358" y2="890.4781172918839" class="Transfer"></line><line x1="173.306272830743" y1="684.1092301549792" x2="111.36209105713041" y2="709.8333152217689" class="Transfer"></line><line x1="615.8846660326595" y1="619.7853161129391" x2="701.6393188968275" y2="708.4264500365141" class="S7 Connection"></line><line x1="598.1141640723438" y1="602.1912679871899" x2="672.9409618227631" y2="689.6554810744877" class="S7 Connection"></line><line x1="841.7532298311492" y1="582.9106407189217" x2="923.0077183484684" y2="601.4370258713398" class="Transfer"></line><line x1="716.8190620389742" y1="658.0894433993531" x2="844.083487616204" y2="766.1419800592713" class="Transfer"></line><line x1="675.6977867839189" y1="831.2933559841376" x2="692.8771259361243" y2="863.6864841248089" class="S47 Connection"></line><line x1="329.89397959250664" y1="822.9379844817353" x2="279.61545099346165" y2="871.169451423869" class="Transfer"></line><line x1="329.89397959250664" y1="822.9379844817353" x2="315.49798051002284" y2="890.2500684371897" class="Transfer"></line><line x1="802.8001027244102" y1="712.6313659601674" x2="816.4397469912755" y2="722.2093554178326" class="S41 Connection"></line><line x1="244.73823422105178" y1="265.43826247831646" x2="178.93314346813204" y2="213.96490838230199" class="Transfer"></line><line x1="225.57177440248816" y1="677.2011853981577" x2="163.3350027122711" y2="762.108992683765" class="Transfer"></line><line x1="162.43389844658307" y1="540.6094457242183" x2="79.97447143725323" y2="552.8172932541636" class="Transfer"></line><line x1="802.8001027244102" y1="712.6313659601674" x2="843.1866840604259" y2="742.1216633917943" class="Transfer"></line><line x1="802.8001027244102" y1="712.6313659601674" x2="847.472658944722" y2="735.9295472930105" class="Transfer"></line><line x1="769.5768846581808" y1="669.3056832155999" x2="860.4227450614055" y2="712.3634210973702" class="Transfer"></line><line x1="769.5768846581808" y1="669.3056832155999" x2="862.6123963856429" y2="708.6025593448919" class="Transfer"></line><line x1="134.71228964675242" y1="531.7700032944024" x2="83.39097178705113" y2="506.9302757934662" class="Transfer"></line><line x1="329.89397959250664" y1="822.9379844817353" x2="304.6325416898559" y2="866.1373461331609" class="Transfer"></line><line x1="362.9745949823598" y1="802.0377727330299" x2="356.2577241793905" y2="889.3111328255484" class="Transfer"></line><line x1="702.7238139230019" y1="433.5608069011731" x2="832.593757217425" y2="390.9981988222372" class="U2 Connection"></line><line x1="422.82629450663865" y1="770.8880401411901" x2="397.2539423904953" y2="860.6497575844247" class="U6 Connection"></line><line x1="656.7569813671839" y1="765.5121338792123" x2="701.3656815486473" y2="835.9384468503516" class="Transfer"></line><line x1="656.7569813671839" y1="765.5121338792123" x2="708.7992514187962" y2="831.3693564358782" class="Transfer"></line><line x1="692.014943160167" y1="252.39539709251036" x2="717.5488451761466" y2="219.46925308885486" class="S2 Connection"></line><line x1="563.8222973444472" y1="329.91328053179825" x2="610.6643504412892" y2="205.07899101385206" class="S2 Connection"></line><line x1="196.75062615853633" y1="591.2008500099532" x2="134.14706941672628" y2="614.438095178462" class="Transfer"></line><line x1="692.014943160167" y1="252.39539709251036" x2="744.4391895508321" y2="209.05415862787723" class="Transfer"></line><line x1="656.7569813671839" y1="765.5121338792123" x2="689.3827365964063" y2="823.6652268614226" class="Transfer"></line><line x1="656.7569813671839" y1="765.5121338792123" x2="692.8215378518319" y2="821.6284417467688" class="Transfer"></line><line x1="716.8190620389742" y1="658.0894433993531" x2="792.523819592391" y2="723.8286385061634" class="Transfer"></line><line x1="278.42517818154454" y1="493.6196044612537" x2="150.1450181813862" y2="489.9256912546111" class="U6 Connection"></line><line x1="656.7569813671839" y1="765.5121338792123" x2="673.7036820555282" y2="794.2161483526406" class="U7 Connection"></line><line x1="196.75062615853633" y1="591.2008500099532" x2="149.96532016243387" y2="609.1795189376516" class="Transfer"></line><line x1="196.75062615853633" y1="591.2008500099532" x2="148.52895127470012" y2="604.4631339391188" class="Transfer"></line><line x1="645.7361973912031" y1="771.717509951782" x2="697.0175143124759" y2="799.3106694254501" class="Transfer"></line><line x1="270.10248990152854" y1="294.53326474835967" x2="235.42920672731543" y2="258.32858438607144" class="Transfer"></line><line x1="270.10248990152854" y1="294.53326474835967" x2="229.8012504729998" y2="264.63769730089916" class="Transfer"></line><line x1="656.7569813671839" y1="765.5121338792123" x2="679.0766435215578" y2="810.3777271693808" class="Transfer"></line><line x1="716.8190620389742" y1="658.0894433993531" x2="776.2146289146879" y2="717.6578122144153" class="Transfer"></line><line x1="716.8190620389742" y1="658.0894433993531" x2="788.5903635820507" y2="700.9603107382754" class="Transfer"></line><line x1="677.4302970385511" y1="720.898771998826" x2="682.0723272324562" y2="798.9141476346634" class="Transfer"></line><line x1="328.95280653553607" y1="381.0645747234743" x2="234.21936194519765" y2="285.29843143029143" class="Transfer"></line><line x1="278.42517818154454" y1="493.6196044612537" x2="163.9224896586482" y2="460.99549401411434" class="Transfer"></line><line x1="264.22863680339" y1="342.8706199522508" x2="221.48658625359658" y2="316.8569152972578" class="Transfer"></line><line x1="264.22863680339" y1="342.8706199522508" x2="223.1136338987062" y2="314.4062194513744" class="Transfer"></line><line x1="626.9769367350142" y1="715.3528674928481" x2="652.372324082017" y2="758.4234409914177" class="U3 Connection"></line><line x1="405.26919789675844" y1="716.8805806059813" x2="320.1560601025012" y2="764.6812371176786" class="Transfer"></line><line x1="716.8190620389742" y1="658.0894433993531" x2="734.3261912719348" y2="670.8544295123442" class="S3 Connection"></line><line x1="626.9769367350142" y1="715.3528674928481" x2="666.2668665584661" y2="769.5053002495629" class="Transfer"></line><line x1="563.8222973444472" y1="329.91328053179825" x2="594.855157521105" y2="247.2105637261589" class="S85 Connection"></line><line x1="276.9203587772974" y1="470.6661684747752" x2="219.08489623807813" y2="463.06110104230953" class="U6 Connection"></line><line x1="626.9769367350142" y1="715.3528674928481" x2="648.8014484492603" y2="760.4959288346023" class="Transfer"></line><line x1="563.8222973444472" y1="329.91328053179825" x2="689.1231998965452" y2="269.2724701326927" class="Transfer"></line><line x1="598.1141640723438" y1="602.1912679871899" x2="683.5233260484522" y2="681.8111655185803" class="U5 Connection"></line><line x1="499.94243629727083" y1="283.3333409800562" x2="523.805324306923" y2="217.66848508815033" class="Transfer"></line><line x1="615.8846660326595" y1="619.7853161129391" x2="666.8739190870297" y2="672.4908552026322" class="S9 Connection"></line><line x1="499.94243629727083" y1="283.3333409800562" x2="481.1354060791571" y2="234.00143194499563" class="Transfer"></line><line x1="598.1141640723438" y1="602.1912679871899" x2="663.5606493490551" y2="654.5086210685844" class="U2 Connection"></line><line x1="598.1141640723438" y1="602.1912679871899" x2="695.8033043633952" y2="668.5146198746172" class="Transfer"></line><line x1="365.9470082802785" y1="400.96680764122544" x2="304.61976123807" y2="344.0302519674689" class="Transfer"></line><line x1="598.1141640723438" y1="602.1912679871899" x2="653.8500764267438" y2="668.7194864104209" class="S9 Connection"></line><line x1="328.95280653553607" y1="381.0645747234743" x2="305.44644076808436" y2="356.6413924175766" class="Transfer"></line><line x1="598.1141640723438" y1="602.1912679871899" x2="676.7704468405083" y2="664.7877025192864" class="Transfer"></line><line x1="598.1141640723438" y1="602.1912679871899" x2="668.4511975563506" y2="673.2829242008835" class="Transfer"></line><line x1="598.1141640723438" y1="602.1912679871899" x2="674.8885588272773" y2="666.7836016192713" class="Transfer"></line><line x1="598.1141640723438" y1="602.1912679871899" x2="672.2594974365123" y2="669.4976203983347" class="Transfer"></line><line x1="598.1141640723438" y1="602.1912679871899" x2="662.0250478466622" y2="656.1181727739818" class="Transfer"></line><line x1="450.7189272532802" y1="432.8001464780097" x2="387.6391541374788" y2="346.7843339698621" class="S42 Connection"></line><line x1="450.7189272532802" y1="432.8001464780097" x2="392.5672614121508" y2="353.5043193220612" class="S41 Connection"></line><line x1="598.1141640723438" y1="602.1912679871899" x2="651.4450456935697" y2="643.0635380264671" class="Transfer"></line><line x1="598.1141640723438" y1="602.1912679871899" x2="655.558912344546" y2="638.5792284866662" class="Transfer"></line><line x1="598.1141640723438" y1="602.1912679871899" x2="640.3741573236714" y2="653.9411372357855" class="Transfer"></line><line x1="392.96563253971857" y1="420.4926295230737" x2="352.827744742113" y2="390.6773655942263" class="U9 Connection"></line><line x1="598.1141640723438" y1="602.1912679871899" x2="636.1624677133677" y2="634.8921550621726" class="Transfer"></line><line x1="598.1141640723438" y1="602.1912679871899" x2="627.545817720409" y2="643.0670314682714" class="Transfer"></line><line x1="598.1141640723438" y1="602.1912679871899" x2="630.105508934862" y2="640.743268598934" class="Transfer"></line><line x1="450.7189272532802" y1="432.8001464780097" x2="399.46661159669156" y2="362.91229881513976" class="S2 Connection"></line><line x1="392.96563253971857" y1="420.4926295230737" x2="353.8492272954427" y2="389.3154809877554" class="Transfer"></line><line x1="450.7189272532802" y1="432.8001464780097" x2="407.35158323616673" y2="373.6642753786582" class="S1 Connection"></line><line x1="565.244833063187" y1="586.4825003666522" x2="586.1303775777616" y2="632.8570754711869" class="Transfer"></line><line x1="500" y1="500" x2="466.6666666666667" y2="500" class="U8 Connection"></line><line x1="500" y1="500" x2="500" y2="500" class="Transfer"></line><path d="M 392.5672614121508 353.5043193220612 C 392.5672614121508 353.5043193220612, 620.6858958239844 383.51751026534214, 702.7238139230019 433.5608069011731 C 718.6859613042316 443.2977492182563, 730.6090867012294 467.23875840232785, 744.1896979861277 480.0904194558568 C 753.676340008574 489.06785833920213, 769.6434253869759 497.3873341101175, 778.2396548653296 507.22072744719736 C 791.2022139997597 522.0488498170085, 798.2498679342876 549.3954328248509, 811.9207685840486 563.5731487111302 C 819.3239206102108 571.2507545089381, 834.3719424698969 575.212011776076, 841.7532298311492 582.9106407189217 C 851.2657513760944 592.8321313886652, 865.0346616455852 622.3711395603274, 865.0346616455852 622.3711395603274" class="S41 SuburbanRailway"></path><path d="M 107.96752739689158 720.9310761859749 C 107.96752739689158 720.9310761859749, 61.815325886218076 683.3553690836424, 61.815325886218076 683.3553690836424" class="U2 UrbanRailwayService"></path><path d="M 683.5233260484522 681.8111655185803 C 683.5233260484522 681.8111655185803, 719.9811330627458 675.7717189115135, 735.4026368565231 672.2063965288175 C 746.533743077961 669.6329780940036, 761.1989490946934 665.4451466024761, 772.0917148631833 661.9996187668044 C 782.7524572443564 658.6274830389332, 796.9042245239468 653.8541597827228, 807.212179677001 649.5218638501312 C 814.4315317136327 646.4876665724123, 823.2506693336263 640.5792591524795, 830.6671863643858 638.0651644682264 C 839.1187183330746 635.2002143159983, 850.9922836193124 633.449963072484, 859.8248247739728 632.1761700187453 M 887.1579744725904 629.7875722609534 C 897.9148666396359 628.8931008843464, 912.2363940334169 627.2473171650702, 923.0265004783329 626.9567813765748 C 930.7829672572168 626.7479297583775, 948.8827308979348 627.6012213083792, 948.8827308979348 627.6012213083792" class="U5 UrbanRailwayService"></path><path d="M 694.8870579159585 830.0961664444262 C 694.8870579159585 830.0961664444262, 640.9889994519508 883.6574028996212, 613.625891897709 900.8743790784854 C 587.729917208319 917.1682294195657, 547.9972439336067 928.9716330187241, 519.9583595365015 941.2154896748937 C 498.8280400687752 950.4425544538553, 449.67992814165837 972.3271010308125, 449.67992814165837 972.3271010308125" class="U7 UrbanRailwayService"></path><path d="M 308.9220044737746 862.7522565411272 C 308.9220044737746 862.7522565411272, 380.0588880249956 901.1539501027046, 370.36809012809124 925.7000915468087 C 359.9258529824353 952.1495782347961, 275.67870495954867 930.0057634397181, 275.67870495954867 930.0057634397181" class="S1 SuburbanRailway"></path><path d="M 128.67849568625283 723.3788669770568 C 128.67849568625283 723.3788669770568, 109.01969142129292 722.7877875999917, 109.01969142129292 722.7877875999917" class="U1 UrbanRailwayService"></path><path d="M 692.8771259361243 863.6864841248089 C 692.8771259361243 863.6864841248089, 733.7712240145846 855.3111208269082, 751.1506096392677 851.0832983622764 C 778.8696498061898 844.3401842357733, 842.9409080634043 826.2452727950126, 842.9409080634043 826.2452727950126" class="S47 SuburbanRailway"></path><path d="M 594.855157521105 247.2105637261589 C 594.855157521105 247.2105637261589, 692.014943160167 252.39539709251036, 692.014943160167 252.39539709251036" class="S85 SuburbanRailway"></path><path d="M 672.9409618227631 689.6554810744877 C 672.9409618227631 689.6554810744877, 691.5421403436561 706.4561625010203, 701.6393188968275 708.4264500365141 C 721.549949151443 712.3116607820616, 747.7752082410958 697.0573907083707, 767.9937474891668 695.402479729635 C 781.5556485845275 694.2924223342977, 799.8002455376419 698.2329577267092, 813.3302010163148 696.7846160935244 C 830.3668771151276 694.9608904113601, 852.6510425673541 688.8509732196221, 868.7551647534797 683.0001992132209 C 879.7897437734337 678.9912363305901, 893.9134524137685 671.9749814154184, 903.9387033586485 665.8653119452996 C 919.1712156928708 656.5821911463, 951.580962133067 630.2867400734752, 951.580962133067 630.2867400734752" class="S7 SuburbanRailway"></path><path d="M 681.7340548322834 671.6762456317606 C 681.7340548322834 671.6762456317606, 682.1272893382445 706.8395254928449, 677.4302970385511 720.898771998826 C 671.736899192112 737.940503956729, 656.9625654168469 757.6888226248917, 645.7361973912031 771.717509951782 C 633.2490703685609 787.3216661857178, 613.7684096029443 805.833549610974, 598.3136832184936 818.5051503557278 C 578.845770222575 834.4672330663011, 550.9278540969826 853.5046354428318, 528.8120613204188 865.5329117424488 C 507.36111069831725 877.1995955271468, 477.8168967418345 892.4748228852045, 453.88674338403285 897.3330688028244 C 430.50311456543994 902.080360537586, 398.0324769316515 894.3493806338364, 374.3512503801712 897.2700628414941 C 349.1585483771357 900.3771602016386, 292.2911295676262 917.8932913094982, 292.2911295676262 917.8932913094982" class="U2 UrbanRailwayService"></path><path d="M 387.6391541374788 346.7843339698621 C 387.6391541374788 346.7843339698621, 315.3999303993375 453.0386517022643, 278.42517818154454 493.6196044612537 C 267.53330260459416 505.57378026320305, 253.04273663936823 522.9243698285154, 238.34307079391854 529.6664093359493 C 229.7071649574536 533.6272897358224, 216.3376680845086 532.3629229181166, 206.93085653310283 533.6968418042288 C 193.55545695832697 535.5935203976704, 174.62634134292693 534.7919686343513, 162.43389844658307 540.6094457242183 C 146.8671269521655 548.036943011011, 130.10492376893208 565.3622694515169, 119.83245947199217 579.2175416600597 C 110.55542303062722 591.7302028354285, 105.87747331558464 612.9361116361342, 97.64959050447763 626.1622992679004 C 92.30283379418617 634.7571236103494, 82.09791757633661 644.0413441025114, 76.65546254788164 652.575891311347 C 70.15195633343019 662.7743184035318, 58.619664890028346 688.6356270119967, 58.619664890028346 688.6356270119967" class="S42 SuburbanRailway"></path><path d="M 660.8374531976846 772.7802988242743 C 660.8374531976846 772.7802988242743, 625.4188355501989 819.5426722996248, 605.1623671025212 833.8276150131899 C 573.9017239624544 855.8727458117054, 524.2851930750651 872.3848455723934, 487.57392968744443 883.1318796720418 C 463.7206813137524 890.1147958128656, 430.75514594671563 895.6956133210999, 405.9563306946009 897.3561367019363 C 380.0910903681802 899.0880676783289, 345.3643734579919 896.9633677126874, 319.6109192633633 894.0019763005878 C 290.2011923337866 890.6201498433195, 251.3969681450422 882.6648077693558, 222.71105242072082 875.3513251983447 C 203.65421986888856 870.4927801874098, 160.26341484884176 855.4084464682021, 160.26341484884176 855.4084464682021" class="U3 UrbanRailwayService"></path><path d="M 466.6666666666667 500 C 466.6666666666667 500, 519.971535864626 526.7382209917203, 536.5194900799894 545.487411688019 C 541.5703831946134 551.2101830324544, 543.2630810596652 562.1197474512205, 547.6469469971018 568.3682154681532 C 551.9983954726355 574.5704778125624, 559.0910240977793 582.0627948061687, 565.244833063187 586.4825003666522 C 574.1216797840253 592.8579093259145, 589.1757418225825 595.9024799649972, 598.1141640723438 602.1912679871899 C 604.2497783350981 606.5080899504211, 612.9722469632038 612.8716680594569, 615.8846660326595 619.7853161129391 C 619.6939054344251 628.8278817421312, 618.4282613782136 642.9564197211835, 616.1137283200478 652.4916824181871 C 612.6838372047074 666.6219246679162, 589.6500731211115 681.4137578251186, 593.591912217647 695.4098216873674 C 596.7545963056269 706.6393841802636, 618.0023388951992 707.8988593069248, 626.9769367350142 715.3528674928481 C 632.8426427227312 720.2247315283247, 639.7513391882113 727.9453455864395, 643.7949924662348 734.4098977040761 C 649.1556619084917 742.9799517151929, 654.5056203050259 755.6574915219066, 656.7569813671839 765.5121338792123 C 658.6205248683373 773.6692238412929, 656.6648490418645 785.1503137234107, 658.2717935930558 793.3618081208735 C 659.7300636818977 800.813575299545, 663.1815081376149 810.4714573811402, 666.5252826607046 817.2886824526684 C 668.7369677147614 821.7978246501234, 675.6977867839189 831.2933559841376, 675.6977867839189 831.2933559841376" class="U8 UrbanRailwayService"></path><path d="M 407.35158323616673 373.6642753786582 C 407.35158323616673 373.6642753786582, 555.1585747470574 377.8787990204328, 563.8222973444472 329.91328053179825 C 568.0380654288867 306.57325553389467, 522.1453000835359 291.6737430766644, 499.94243629727083 283.3333409800562 C 471.79624267007057 272.7603547833359, 430.05323050891195 277.2266282519437, 400.11404359129074 274.4623309583034 C 375.89665550435006 272.2263296757046, 343.69723809290275 268.1026052498553, 319.4155304263494 266.7313794167693 C 297.0446254869708 265.4680595883768, 266.47179850869645 270.88854211796263, 244.73823422105178 265.43826247831646 C 233.21081680469823 262.54745047847473, 219.54945751039867 253.6856133259193, 209.49310867833975 247.3525260474091 C 199.74276715784302 241.21214996501487, 187.95714729935918 231.2518441215099, 178.91448404636301 224.1101622823018 C 167.92516868397462 215.43106058923632, 142.82640154289567 194.50528553638907, 142.82640154289567 194.50528553638907" class="S1 SuburbanRailway"></path><path d="M 441.66666666666663 500 C 441.66666666666663 500, 462.94711771188395 449.056532739032, 450.7189272532802 432.8001464780097 C 444.930694013525 425.1051604019511, 428.37459131151104 430.1583949905081, 418.9689564122666 428.0967240927511 C 411.0297417402327 426.3564856063845, 400.26592912995824 424.0654756284364, 392.96563253971857 420.4926295230737 C 383.9830234246625 416.0964410126463, 371.43494887216815 409.327205239007, 365.9470082802785 400.96680764122544 C 362.4228222147045 395.59801834341437, 366.4108349811636 384.00584741086465, 361.34344562029196 380.06055261650494 C 353.6724042185231 374.08814403400936, 338.6743298457632 381.14535214995146, 328.95280653553607 381.0645747234743 C 320.2801906540003 380.99251280793084, 308.5674480787254 381.452946951999, 300.075841278138 379.68884006959206 C 295.1057346060537 378.6563147074999, 288.2043662132062 376.8809790470804, 284.25208559672376 373.6954576009374 C 275.666433178481 366.77545809650354, 266.716610512803 353.61351562378707, 264.22863680339 342.8706199522508 C 260.9327936182821 328.6394006457934, 270.10248990152854 294.53326474835967, 270.10248990152854 294.53326474835967" class="U8 UrbanRailwayService"></path><path d="M 666.8739190870297 672.4908552026322 C 666.8739190870297 672.4908552026322, 701.2349635044146 658.6448620187219, 716.8190620389742 658.0894433993531 M 769.5768846581808 669.3056832155999 C 783.4277382674892 678.0483707114349, 792.7047038456224 699.7331625257935, 802.8001027244102 712.6313659601674 C 813.337992141652 726.0949094124336, 825.681060213654 745.700185435472, 838.3698208142685 757.1592198660586 C 846.5562016093895 764.5522208332801, 869.2803962009324 777.0705687957376, 869.2803962009324 777.0705687957376" class="S9 SuburbanRailway"></path><path d="M 150.1450181813862 489.9256912546111 C 150.1450181813862 489.9256912546111, 137.01033277280283 518.5889791232519, 134.71228964675242 531.7700032944024 C 128.94828394012086 564.8309574951785, 127.70997628448828 611.0177357245144, 135.62015241334052 643.6318364795932 C 146.72727559012696 689.4271295913973, 206.44582227755942 783.8345571857184, 206.44582227755942 783.8345571857184" class="U6 UrbanRailwayService"></path><path d="M 388.12095949187267 892.7075138141514 C 388.12095949187267 892.7075138141514, 362.67027583251433 902.2008787410618, 362.67027583251433 902.2008787410618" class="U6 UrbanRailwayService"></path><path d="M 673.7036820555282 794.2161483526406 C 673.7036820555282 794.2161483526406, 700.7773485083923 795.1850784967602, 711.1968174064126 799.7337964959022 C 718.3298483662238 802.8477888339853, 727.546876712437 809.2361603557231, 731.4167765168414 815.9890082334067 C 735.5974879089451 823.2842121090326, 732.812591818832 835.7549840712859, 735.5249012754475 843.7137355275489 C 737.953704688752 850.8405929204123, 745.2347673037409 858.5314805203479, 747.7726825111602 865.6202158602123 C 750.5241450880395 873.3054174571848, 751.5998719287311 884.29768327589, 752.5852833315081 892.4008822901901 C 753.6133313649784 900.8546892869367, 754.4070551179215 920.7293208433873, 754.4070551179215 920.7293208433873" class="U7 UrbanRailwayService"></path><path d="M 652.372324082017 758.4234409914177 C 652.372324082017 758.4234409914177, 692.930599051377 752.2972151756542, 709.9698719196948 748.0678392819733 C 730.6669466356611 742.9305479462508, 777.6934016706493 726.4710852324446, 777.6934016706493 726.4710852324446" class="U3 UrbanRailwayService"></path><path d="M 333.429974116087 272.8644950956728 C 333.429974116087 272.8644950956728, 525.1641904919646 209.61355900258445, 610.6643504412892 205.07899101385206 C 642.9735982862111 203.36544473388676, 685.5233749533056 214.86566816359363, 717.5488451761466 219.46925308885486 C 736.4777415021108 222.19023676752354, 762.2437629565563 234.5952462104924, 780.5615550613765 229.10294608183318 C 792.5410223624431 225.5110923571911, 801.9252280473509 209.20727437843283, 811.5059141087386 201.1686485885555 C 826.8975186996497 188.25440123514926, 864.3364486328213 160.0072599176055, 864.3364486328213 160.0072599176055" class="S2 SuburbanRailway"></path><path d="M 816.4397469912755 722.2093554178326 C 816.4397469912755 722.2093554178326, 797.1388188554207 813.1207968824758, 797.1388188554207 813.1207968824758" class="S41 SuburbanRailway"></path><path d="M 694.4388840408703 866.6313139557791 C 694.4388840408703 866.6313139557791, 450.1431817718027 967.3481546728952, 450.1431817718027 967.3481546728952" class="S41 SuburbanRailway"></path><path d="M 219.08489623807813 463.06110104230953 C 219.08489623807813 463.06110104230953, 210.59506343309505 446.90920674144263, 205.92450664686478 440.67374772404594 C 198.7488179165437 431.09379504443694, 187.3327209900908 419.7871666761048, 178.6025284401999 411.5987761053129 C 172.64802330210958 406.0138118049458, 164.3857061305518 398.83929580692524, 157.61999247127196 394.27058960532366 C 153.3974269530145 391.4192035961816, 147.60425552142917 387.5301644058554, 142.69561016065285 386.16427185838427 C 135.22930907624857 384.08667931322833, 124.32747521730711 387.1709151802937, 116.88878053771606 384.99654995557 C 109.50407342911573 382.8379655501951, 100.62419879600395 377.05735857644703, 94.67823985399187 372.17484303885306 C 90.18783662373042 368.4875549570429, 85.61977824067341 362.0833356183663, 81.91714647038678 357.6055758501043 C 76.2675459181252 350.77325883098325, 68.79154529416971 341.5908417446643, 63.73964730782561 334.30545438464986 C 58.418847528164726 326.6322813386594, 47.46873071152097 307.7721106934035, 47.46873071152097 307.7721106934035" class="U6 UrbanRailwayService"></path><path d="M 397.2539423904953 860.6497575844247 C 397.2539423904953 860.6497575844247, 432.09831535934273 875.3291994919091, 442.1253556518537 887.3671427978287 M 451.9653576917009 913.8886133362754 C 456.3350061751447 920.5699067494442, 471.1124487508309 932.3693873999459, 471.1124487508309 932.3693873999459" class="U6 UrbanRailwayService"></path><path d="M 663.5606493490551 654.5086210685844 C 663.5606493490551 654.5086210685844, 692.4113265135845 661.5072765110028, 704.2083140980271 658.224762803907 C 723.1129144412585 652.9645546948758, 743.8759908312396 634.1511597412316, 756.9085560835978 619.4812604085624 C 780.9075757160092 592.4671465121044, 804.8445943741567 548.9694984822976, 816.3249609660584 514.7070339497625 M 832.593757217425 390.9981988222372 C 830.7122475763726 347.67905859346166, 801.3949893990633 249.8723562999956, 801.3949893990633 249.8723562999956" class="U2 UrbanRailwayService"></path><path d="M 352.827744742113 390.6773655942263 C 352.827744742113 390.6773655942263, 323.91767761905913 419.2837027889627, 311.93670157953244 431.93976353836115 C 301.16882014981485 443.3143761798708, 287.6200992216916 459.2274343817279, 276.9203587772974 470.6661684747752 C 268.98781384007475 479.1465865456246, 257.4409831827556 489.5646499282598, 250.0046005775116 498.4833366917845 M 226.7506751961807 530.9807439267826 C 222.4824486764975 537.2825797661887, 216.60811271535349 545.607987136578, 213.06918305515515 552.3464490849991 C 207.19084392815745 563.5393713328431, 200.19446632510198 579.036297233734, 196.75062615853633 591.2008500099532 C 192.601230635769 605.8576105983656, 192.76124379312844 626.6252932394502, 188.95452761949826 641.3747686919476 C 185.5426547514778 654.5943870765564, 179.73075447384025 672.0624371244782, 173.306272830743 684.1092301549792 C 169.4508236633316 691.3387314189957, 159.51068213711088 698.3230223339427, 157.24168832577183 706.1958772095909 C 154.40906993374207 716.0243718520602, 159.29192730232353 729.9876620496284, 159.5461769042992 740.2130417996333 C 159.749410037588 748.3866473805789, 159.86243908801345 759.3260011105376, 159.0577434301706 767.462437480201 C 158.09077852318268 777.239610204726, 153.86440859228455 789.8837034456686, 153.21919569472493 799.6873674512007 C 152.45193731366726 811.345447135857, 155.08000202404105 838.5872208270353, 155.08000202404105 838.5872208270353" class="U9 UrbanRailwayService"></path><path d="M 734.3261912719348 670.8544295123442 C 734.3261912719348 670.8544295123442, 759.0781680592647 670.657663138859, 769.5768846581808 669.3056832155999 C 784.768534069665 667.349367430522, 804.1781821962334 659.0136799566743, 819.4882803937031 658.5507798851387 C 829.9349547439589 658.234925196183, 843.7256921627705 661.5405485178425, 853.9259069143108 663.8183518867241 C 865.2590102116242 666.3491398651446, 880.1308410740105 670.8284916761758, 891.0432716522413 674.7987532562971 C 905.6098307127621 680.0984937108138, 938.4247176284625 695.4066707469398, 938.4247176284625 695.4066707469398" class="S3 SuburbanRailway"></path><path d="M 653.8500764267438 668.7194864104209 C 653.8500764267438 668.7194864104209, 626.9836173430746 711.7101174105902, 609.1873902608336 723.0416065501521 C 560.4981494355277 754.0437735305921, 480.2817884897204 776.4236287086128, 422.82629450663865 770.8880401411901 C 357.6164838248126 764.6053566679542, 286.3842403664154 701.5658217420612, 225.57177440248816 677.2011853981577 C 207.1928455777309 669.8376307369913, 182.54638513229412 654.0778727373892, 162.89847266026348 656.5205142348055 C 152.3959621149724 657.8261933048594, 139.80036708418163 667.2297910265752, 133.12394029342323 675.4415418079598 M 118.13133224215738 715.2032334700423 C 106.36928378869072 721.4085240547539, 75.06603524473721 704.6962873181083, 75.06603524473721 704.6962873181083" class="S9 SuburbanRailway"></path><path d="M 399.46661159669156 362.91229881513976 C 399.46661159669156 362.91229881513976, 320.3402485292647 425.27843088053186, 313.3172490375121 464.6510185001361 C 299.1742768919344 543.9398481031149, 353.3009207661349 655.3497726070975, 405.26919789675844 716.8805806059813 C 426.04567428622585 741.4800757249053, 503.2229091602472 738.1396184865714, 498.5361105782127 769.9960315037255 M 417.80315391239617 788.5198060675398 C 401.3223020316484 792.4419340645705, 378.56119369787797 795.4000391422893, 362.9745949823598 802.0377727330299 C 352.17422153211055 806.6372368593429, 331.50874215859005 811.3106168187917, 329.89397959250664 822.9379844817353 C 326.583143268312 846.7782146318629, 388.7162769210311 859.1599072527586, 383.4769349465989 882.6517676825247 C 379.186233421791 901.8901685844804, 336.48729093280497 893.9226548690846, 322.97493197639784 908.2733462904957 C 314.043957723477 917.7584151825904, 308.4751718992311 949.207841277749, 308.4751718992311 949.207841277749" class="S2 SuburbanRailway"></path></svg>