<svg xmlns="http://www.w3.org/2000/svg" width="1100" height="1000"><circle class="grid" r="166.66666666666666" cx="500" cy="500"></circle><circle class="grid" r="333.3333333333333" cx="500" cy="500"></circle><circle class="grid" r="500" cx="500" cy="500"></circle><circle r="3" cx="500" cy="500"></circle><text x="509" y="504">S Ostbahnhof</text><circle r="3" cx="565.3210660474576" cy="520.064963864112"></circle><text x="574.3210660474576" y="524.064963864112">S+U Warschauer Str.</text><circle r="3" cx="577.9203683735279" cy="470.45578505056943"></circle><text x="586.9203683735279" y="474.45578505056943">S Ostbahnhof/Erich-Steinfurth-Str.</text><circle r="3" cx="418.24316831382527" cy="483.8672718648417"></circle><text x="427.24316831382527" y="487.8672718648417">Berlin, Stralauer Platz</text><circle r="3" cx="413.8398030890585" cy="473.9919153287331"></circle><text x="422.8398030890585" y="477.9919153287331">S+U Jannowitzbrücke</text><circle r="3" cx="408.7324040661989" cy="459.1316022767662"></circle><text x="417.7324040661989" y="463.1316022767662">Berlin, Andreasstr./Lange Str.</text><circle r="3" cx="604.5930310823048" cy="520.9302562524639"></circle><text x="613.5930310823048" y="524.9302562524639">S Ostkreuz Bhf</text><circle r="3" cx="387.84250376952974" cy="448.698858195717"></circle><text x="396.84250376952974" y="452.698858195717">S+U Alexanderplatz Bhf</text><circle r="3" cx="643.7654337917926" cy="518.8812088240578"></circle><text x="652.7654337917926" y="522.8812088240578">S Nöldnerplatz</text><circle r="3" cx="358.1730219867457" cy="433.4451147392444"></circle><text x="367.1730219867457" y="437.4451147392444">S+U Alexanderplatz Bhf/Dircksenstr.</text><circle r="3" cx="352.9381187627512" cy="445.9884500184843"></circle><text x="361.9381187627512" y="449.9884500184843">S Hackescher Markt</text><circle r="3" cx="592.8748624017322" cy="638.3908873865512"></circle><text x="601.8748624017322" y="642.3908873865512">Berlin, East Side Gallery</text><circle r="3" cx="666.87224397903" cy="522.1306416652158"></circle><text x="675.87224397903" y="526.1306416652158">S Warschauer Str.</text><circle r="3" cx="666.7600705668435" cy="522.9606179283679"></circle><text x="675.7600705668435" y="526.9606179283679">Berlin, Helsingforser Platz</text><circle r="3" cx="341.30398449261304" cy="430.2861627327569"></circle><text x="350.30398449261304" y="434.2861627327569">S+U Alexanderplatz Bhf/Gontardstr.</text><circle r="3" cx="678.3210893861014" cy="497.91029716662985"></circle><text x="687.3210893861014" y="501.91029716662985">S+U Lichtenberg Bhf</text><circle r="3" cx="328.60520139602755" cy="418.0010792052497"></circle><text x="337.60520139602755" y="422.0010792052497">S+U Alexanderplatz [U8]</text><circle r="3" cx="329.38248326328323" cy="416.3957956643556"></circle><text x="338.38248326328323" y="420.3957956643556">S+U Alexanderpl./Grunerstr.(Bln) [Grunerstr.]</text><circle r="3" cx="313.8920996404846" cy="461.73971479755164"></circle><text x="322.8920996404846" y="465.73971479755164">S+U Friedrichstr. Bhf</text><circle r="3" cx="308.5068410484606" cy="491.8464004346797"></circle><text x="317.5068410484606" y="495.8464004346797">U Heinrich-Heine-Str.</text><circle r="3" cx="701.4209075798879" cy="509.95301131008716"></circle><text x="710.4209075798879" y="513.9530113100872">Berlin, Revaler Str.</text><circle r="3" cx="320.2196028852974" cy="398.06806229453434"></circle><text x="329.2196028852974" y="402.06806229453434">U Alexanderplatz [Tram]</text><circle r="3" cx="315.0588426259345" cy="407.76183316949397"></circle><text x="324.0588426259345" y="411.76183316949397">S+U Alexanderplatz [U5]</text><circle r="3" cx="317.42472691338884" cy="403.1631228897767"></circle><text x="326.42472691338884" y="407.1631228897767">S+U Alexanderplatz [U2]</text><circle r="3" cx="316.197254773511" cy="405.5136943344831"></circle><text x="325.197254773511" y="409.5136943344831">Berlin, S+U Alexanderplatz Bhf/Memhardstr.</text><circle r="3" cx="676.9180336370705" cy="616.201493758773"></circle><text x="685.9180336370705" y="620.201493758773">S Treptower Park</text><circle r="3" cx="714.1571741464423" cy="480.9814626847807"></circle><text x="723.1571741464423" y="484.9814626847807">S+U Frankfurter Allee</text><circle r="3" cx="289.58717979833636" cy="551.6806495627409"></circle><text x="298.58717979833636" y="555.6806495627409">U Moritzplatz</text><circle r="3" cx="677.1846788989795" cy="627.5736415091689"></circle><text x="686.1846788989795" y="631.5736415091689">Berlin, Tamara-Danz-Str.</text><circle r="3" cx="691.7626061570135" cy="604.3865284618403"></circle><text x="700.7626061570135" y="608.3865284618403">Berlin, Oberbaumbrücke</text><circle r="3" cx="719.7949325185715" cy="490.5032827168219"></circle><text x="728.7949325185715" y="494.5032827168219">S Friedrichsfelde Ost</text><circle r="3" cx="719.0398644043514" cy="543.5811378867182"></circle><text x="728.0398644043514" y="547.5811378867182">S Rummelsburg</text><circle r="3" cx="303.4067072421564" cy="394.033708093533"></circle><text x="312.4067072421564" y="398.033708093533">S+U Alexanderpl/Memhardstr.[4-5]</text><circle r="3" cx="305.0972714488379" cy="390.95549449380866"></circle><text x="314.0972714488379" y="394.95549449380866">Berlin, Memhardstr.</text><circle r="3" cx="725.7363507470089" cy="534.3396427257837"></circle><text x="734.7363507470089" y="538.3396427257837">S Nöldnerplatz/Schlichtallee</text><circle r="3" cx="290.577092961484" cy="397.1093276726138"></circle><text x="299.577092961484" y="401.1093276726138">U Weinmeisterstr.</text><circle r="3" cx="271.0150821870039" cy="447.1709605030018"></circle><text x="280.0150821870039" y="451.1709605030018">S+U Berlin Hauptbahnhof</text><circle r="3" cx="293.73894221752306" cy="377.2955744789386"></circle><text x="302.73894221752306" y="381.2955744789386">U Alexanderplatz [Bus]</text><circle r="3" cx="285.40424246093" cy="392.5353041867578"></circle><text x="294.40424246093" y="396.5353041867578">S+U Alexanderpl./Grunerstr.(Bln) [Alexanderstr.]</text><circle r="3" cx="744.9621792186512" cy="495.69526395124586"></circle><text x="753.9621792186512" y="499.69526395124586">S+U Lichtenberg [U5]</text><circle r="3" cx="253.36901964409307" cy="470.97235846423837"></circle><text x="262.3690196440931" y="474.97235846423837">S+U Brandenburger Tor</text><circle r="3" cx="284.8698231405556" cy="627.3538652904739"></circle><text x="293.8698231405556" y="631.3538652904739">U Kottbusser Tor</text><circle r="3" cx="726.2849046847069" cy="393.7213948537474"></circle><text x="735.2849046847069" y="397.7213948537474">S Storkower Str.</text><circle r="3" cx="260.559105986345" cy="417.2604323692744"></circle><text x="269.559105986345" y="421.2604323692744">S Oranienburger Str.</text><circle r="3" cx="274.6126497548842" cy="373.7595411106382"></circle><text x="283.6126497548842" y="377.7595411106382">U Rosenthaler Platz</text><circle r="3" cx="288.18886623304206" cy="352.10762452557947"></circle><text x="297.18886623304206" y="356.10762452557947">U Rosa-Luxemburg-Platz</text><circle r="3" cx="648.4101931611331" cy="711.4486360253627"></circle><text x="657.4101931611331" y="715.4486360253627">U Schlesisches Tor</text><circle r="3" cx="724.7397134756653" cy="634.0205418259466"></circle><text x="733.7397134756653" y="638.0205418259466">S Treptower Park [Bus Treptowers]</text><circle r="3" cx="717.6777309184993" cy="645.2096756645984"></circle><text x="726.6777309184993" y="649.2096756645984">S Treptower Park [Bus Puschkinallee]</text><circle r="3" cx="753.6983239685947" cy="564.082796911265"></circle><text x="762.6983239685947" y="568.082796911265">S Betriebsbahnhof Rummelsburg</text><circle r="3" cx="632.2001639897147" cy="729.669581444937"></circle><text x="641.2001639897147" y="733.669581444937">S Sonnenallee</text><circle r="3" cx="771.5823432169466" cy="493.2317926619858"></circle><text x="780.5823432169466" y="497.2317926619858">S Biesdorf</text><circle r="3" cx="324.9456262768501" cy="712.0871666093819"></circle><text x="333.9456262768501" y="716.0871666093819">U Schönleinstr.</text><circle r="3" cx="778.3284797844575" cy="498.356289162518"></circle><text x="787.3284797844575" y="502.356289162518">S+U Lichtenberg [Bus]</text><circle r="3" cx="778.3274335115142" cy="498.18776399493095"></circle><text x="787.3274335115142" y="502.18776399493095">S+U Lichtenberg [N50]</text><circle r="3" cx="778.2376727286749" cy="507.296706035963"></circle><text x="787.2376727286749" y="511.296706035963">Berlin, Margaretenstr. [Ri. Lückstr.]</text><circle r="3" cx="778.2602535016348" cy="493.62224446608377"></circle><text x="787.2602535016348" y="497.62224446608377">Berlin, Lichtenberger Brücke Süd</text><circle r="3" cx="778.1047578585325" cy="511.2777702091973"></circle><text x="787.1047578585325" y="515.2777702091973">Berlin, Margaretenstr. [Ri. Lichtenberger Br.]</text><circle r="3" cx="221.65493657738267" cy="469.6022094839253"></circle><text x="230.65493657738267" y="473.6022094839253">S Bellevue</text><circle r="3" cx="708.9605140325986" cy="311.13069416566566"></circle><text x="717.9605140325986" y="315.13069416566566">S Landsberger Allee</text><circle r="3" cx="218.34989766549324" cy="503.0546630048146"></circle><text x="227.34989766549324" y="507.0546630048146">S+U Potsdamer Platz Bhf</text><circle r="3" cx="243.33346931101667" cy="379.9997091592734"></circle><text x="252.33346931101667" y="383.9997091592734">U Weinmeisterstr./Gipsstr.</text><circle r="3" cx="266.7011898035364" cy="339.22238047945774"></circle><text x="275.7011898035364" y="343.22238047945774">U Bernauer Str.</text><circle r="3" cx="228.7550346525785" cy="418.1223684303588"></circle><text x="237.7550346525785" y="422.1223684303588">U Klosterstr.</text><circle r="3" cx="294.7567411372364" cy="304.67211548483306"></circle><text x="303.7567411372364" y="308.67211548483306">U Senefelderplatz</text><circle r="3" cx="238.48956612491412" cy="382.5688680449595"></circle><text x="247.48956612491412" y="386.5688680449595">S Nordbahnhof</text><circle r="3" cx="263.7884499870873" cy="328.90485662958844"></circle><text x="272.7884499870873" y="332.90485662958844">U Schillingstr.</text><circle r="3" cx="335.5954319737897" cy="740.9161315822575"></circle><text x="344.5954319737897" y="744.9161315822575">U Görlitzer Bahnhof</text><circle r="3" cx="794.805940073905" cy="489.3015095858765"></circle><text x="803.805940073905" y="493.3015095858765">S+U Lichtenberg Bhf/Siegfriedstr.</text><circle r="3" cx="558.0482028871382" cy="789.2324430999636"></circle><text x="567.0482028871382" y="793.2324430999636">S+U Neukölln</text><circle r="3" cx="236.10705110242282" cy="642.6902642864632"></circle><text x="245.10705110242282" y="646.6902642864632">U Kottbusser Tor [Bus Reichenbg. Str.]</text><circle r="3" cx="806.6109102252168" cy="494.15242141493655"></circle><text x="815.6109102252168" y="498.15242141493655">S+U Wuhletal</text><circle r="3" cx="363.90152768313243" cy="776.6706530831547"></circle><text x="372.90152768313243" y="780.6706530831547">U Hermannplatz</text><circle r="3" cx="250.88357087215917" cy="318.31222060072963"></circle><text x="259.88357087215917" y="322.31222060072963">U Voltastr.</text><circle r="3" cx="193.18740412578205" cy="469.414456725958"></circle><text x="202.18740412578205" y="473.414456725958">U Französische Str.</text><circle r="3" cx="808.085982870056" cy="487.65206076156653"></circle><text x="817.085982870056" y="491.65206076156653">U Magdalenenstr.</text><circle r="3" cx="192.46993921212257" cy="477.7580091662447"></circle><text x="201.46993921212257" y="481.7580091662447">U Märkisches Museum</text><circle r="3" cx="752.7130839212712" cy="682.4067112967933"></circle><text x="761.7130839212712" y="686.4067112967933">Berlin, Elsenstr./S Treptower Park</text><circle r="3" cx="809.7797939723699" cy="452.944107444297"></circle><text x="818.7797939723699" y="456.944107444297">S Springpfuhl</text><circle r="3" cx="799.107127124713" cy="593.3418677817116"></circle><text x="808.107127124713" y="597.3418677817116">S Karlshorst</text><circle r="3" cx="185.23566875169678" cy="487.8173987257064"></circle><text x="194.23566875169678" y="491.8173987257064">S Tiergarten</text><circle r="3" cx="224.42046309373183" cy="655.9926171852519"></circle><text x="233.42046309373183" y="659.9926171852519">U Kottbusser Tor [Bus Adalbertstr.]</text><circle r="3" cx="369.2267620912172" cy="211.5972641866401"></circle><text x="378.2267620912172" y="215.5972641866401">U Strausberger Platz</text><circle r="3" cx="304.95920295528833" cy="250.52682455634363"></circle><text x="313.95920295528833" y="254.52682455634363">U Eberswalder Str.</text><circle r="3" cx="184.8746191146549" cy="531.2053216558322"></circle><text x="193.8746191146549" y="535.2053216558322">S Anhalter Bahnhof</text><circle r="3" cx="527.9982867742508" cy="179.55415374489365"></circle><text x="536.9982867742508" y="183.55415374489365">S Greifswalder Str.</text><circle r="3" cx="818.2497818719082" cy="557.1097258173005"></circle><text x="827.2497818719082" y="561.1097258173005">Berlin, Marktstr.</text><circle r="3" cx="468.78736247794035" cy="821.8232678091517"></circle><text x="477.78736247794035" y="825.8232678091517">S+U Hermannstr.</text><circle r="3" cx="170.94365389694184" cy="458.4705060579572"></circle><text x="179.94365389694184" y="462.4705060579572">S+U Brandenburger Tor/Glinkastr.</text><circle r="3" cx="168.33429150418073" cy="499.2027636837069"></circle><text x="177.33429150418073" y="503.2027636837069">S Potsdamer Platz Bhf/Voßstr.</text><circle r="3" cx="214.68723571851012" cy="330.8864159334538"></circle><text x="223.68723571851012" y="334.8864159334538">S Humboldthain</text><circle r="3" cx="393.1099672153163" cy="815.7303153046922"></circle><text x="402.1099672153163" y="819.7303153046922">U Boddinstr.</text><circle r="3" cx="238.87449099962242" cy="292.81752086528934"></circle><text x="247.87449099962242" y="296.81752086528934">S+U Gesundbrunnen Bhf</text><circle r="3" cx="166.83271862422495" cy="489.47984164633266"></circle><text x="175.83271862422495" y="493.47984164633266">U Stadtmitte</text><circle r="3" cx="166.90540547229503" cy="487.3864276457881"></circle><text x="175.90540547229503" y="491.3864276457881">U Spittelmarkt</text><circle r="3" cx="795.3515742692234" cy="345.47311338216093"></circle><text x="804.3515742692234" y="349.47311338216093">Berlin, Franz-Jacob-Str.</text><circle r="3" cx="172.07861341083992" cy="431.4977064804205"></circle><text x="181.07861341083992" y="435.4977064804205">Berlin, Washingtonplatz/Hauptbahnhof</text><circle r="3" cx="173.3121585889465" cy="399.94418864804766"></circle><text x="182.3121585889465" y="403.94418864804766">U Oranienburger Tor</text><circle r="3" cx="755.9531015962089" cy="273.6725361464237"></circle><text x="764.9531015962089" y="277.6725361464237">U Weberwiese</text><circle r="3" cx="841.1187023996061" cy="519.3427501746784"></circle><text x="850.1187023996061" y="523.3427501746784">U Friedrichsfelde</text><circle r="3" cx="761.8561785059545" cy="724.6248912704416"></circle><text x="770.8561785059545" y="728.6248912704416">Berlin, Beermannstr.</text><circle r="3" cx="844.9687994380304" cy="495.36023553571783"></circle><text x="853.9687994380304" y="499.36023553571783">S Kaulsdorf</text><circle r="3" cx="844.7795044432876" cy="487.6673881176323"></circle><text x="853.7795044432876" y="491.6673881176323">S+U Lichtenberg Bhf/Gudrunstr.</text><circle r="3" cx="844.9099754074942" cy="492.1190822614587"></circle><text x="853.9099754074942" y="496.1190822614587">Berlin, Lichtenberger Brücke Nord</text><circle r="3" cx="552.4181289398608" cy="840.9946330346625"></circle><text x="561.4181289398608" y="844.9946330346625">S+U Neukölln [U7]</text><circle r="3" cx="831.3790141150754" cy="601.8122133238367"></circle><text x="840.3790141150754" y="605.8122133238367">S Karlshorst [Bus Stolzenfelsstr.]</text><circle r="3" cx="153.4798763027741" cy="510.07877227826214"></circle><text x="162.4798763027741" y="514.0787722782621">S+U Zoologischer Garten Bhf</text><circle r="3" cx="151.6744171885408" cy="502.3236760033123"></circle><text x="160.6744171885408" y="506.3236760033123">S+U Potsdamer Platz (Bln) [Bus Leipziger Str.]</text><circle r="3" cx="151.68855113564445" cy="503.9045743845546"></circle><text x="160.68855113564445" y="507.9045743845546">Berlin, Varian-Fry-Str./Potsdamer Platz</text><circle r="3" cx="150.90696391154424" cy="525.1803922635075"></circle><text x="159.90696391154424" y="529.1803922635075">U Kochstr./Checkpoint Charlie</text><circle r="3" cx="163.57356759298247" cy="403.47406784761694"></circle><text x="172.57356759298247" y="407.47406784761694">Berlin, Berliner Rathaus</text><circle r="3" cx="334.04333595161023" cy="191.84681462310039"></circle><text x="343.04333595161023" y="195.84681462310039">S+U Schönhauser Allee</text><circle r="3" cx="173.97116945599635" cy="627.299653000742"></circle><text x="182.97116945599635" y="631.299653000742">U Prinzenstr.</text><circle r="3" cx="415.2118486850744" cy="155.27406625465895"></circle><text x="424.2118486850744" y="159.27406625465895">S Prenzlauer Allee</text><circle r="3" cx="428.5858149363249" cy="851.1449728380984"></circle><text x="437.5858149363249" y="855.1449728380984">U Leinestr.</text><circle r="3" cx="344.1231090755196" cy="822.6533320043286"></circle><text x="353.1231090755196" y="826.6533320043286">U Hermannplatz/Karl-Marx-Str.</text><circle r="3" cx="215.05995220449807" cy="282.71689679113365"></circle><text x="224.05995220449807" y="286.71689679113365">U Pankstr.</text><circle r="3" cx="842.643906822187" cy="395.128979716004"></circle><text x="851.643906822187" y="399.128979716004">U Frankfurter Tor</text><circle r="3" cx="857.3917043658324" cy="474.03950254207007"></circle><text x="866.3917043658324" y="478.03950254207007">U Kaulsdorf-Nord</text><circle r="3" cx="143.33111692622836" cy="465.50238233318174"></circle><text x="152.33111692622836" y="469.50238233318174">U Märkisches Museum/Inselstr.</text><circle r="3" cx="557.5615920548635" cy="857.0566354206113"></circle><text x="566.5615920548635" y="861.0566354206113">S+U Neukölln [Bus]</text><circle r="3" cx="150.90325362876527" cy="594.5211058483533"></circle><text x="159.90325362876527" y="598.5211058483533">S+U Yorckstr. S2 S25 S26 U7</text><circle r="3" cx="844.2103843337259" cy="616.3199141503286"></circle><text x="853.2103843337259" y="620.3199141503286">S Wuhlheide</text><circle r="3" cx="135.04475580514642" cy="505.7157444549909"></circle><text x="144.04475580514642" y="509.7157444549909">S+U Potsdamer Platz (Bln) [U2]</text><circle r="3" cx="135.08274795395263" cy="507.7716895950344"></circle><text x="144.08274795395263" y="511.7716895950344">S+U Potsdamer Platz (Bln) [Bus Stresemannstr.]</text><circle r="3" cx="487.74745132700104" cy="866.4618936471571"></circle><text x="496.74745132700104" y="870.4618936471571">U Rathaus Neukölln</text><circle r="3" cx="158.12664471305266" cy="367.4592387629787"></circle><text x="167.12664471305266" y="371.4592387629787">U Naturkundemuseum</text><circle r="3" cx="862.4414753403171" cy="444.496654176719"></circle><text x="871.4414753403171" y="448.496654176719">U Samariterstr.</text><circle r="3" cx="134.5274674101446" cy="470.4319028883913"></circle><text x="143.5274674101446" y="474.4319028883913">U Hausvogteiplatz</text><circle r="3" cx="165.2612617410535" cy="342.3612449021228"></circle><text x="174.2612617410535" y="346.3612449021228">S Nordbahnhof/Gartenstr.</text><circle r="3" cx="338.54482854208055" cy="838.4630372869302"></circle><text x="347.54482854208055" y="842.4630372869302">U Hermannplatz [Bus Ostseite]</text><circle r="3" cx="330.82614603305524" cy="834.6717901675772"></circle><text x="339.82614603305524" y="838.6717901675772">U Hermannplatz [Bus Westseite]</text><circle r="3" cx="138.00166621703437" cy="597.888744697011"></circle><text x="147.00166621703437" y="601.888744697011">U Hallesches Tor</text><circle r="3" cx="143.85952563465486" cy="382.57358679229367"></circle><text x="152.85952563465486" y="386.57358679229367">U Oranienburger Tor [Linienstr.]</text><circle r="3" cx="140.4294504861055" cy="393.5386458743083"></circle><text x="149.4294504861055" y="397.5386458743083">U Oranienburger Tor [Tram/Bus]</text><circle r="3" cx="871.3152434907439" cy="552.440346598869"></circle><text x="880.3152434907439" y="556.440346598869">U Tierpark</text><circle r="3" cx="860.6617871209353" cy="619.6790512610003"></circle><text x="869.6617871209353" y="623.6790512610003">S Karlshorst /Wandlitzstr.</text><circle r="3" cx="120.30100840252771" cy="515.1220296211418"></circle><text x="129.3010084025277" y="519.1220296211418">S Savignyplatz</text><circle r="3" cx="881.6404342160278" cy="495.5252468396382"></circle><text x="890.6404342160278" y="499.5252468396382">S Mahlsdorf Bhf</text><circle r="3" cx="190.93003733720727" cy="273.2397684247425"></circle><text x="199.93003733720727" y="277.2397684247425">U Osloer Str.</text><circle r="3" cx="116.67567651833166" cy="497.3717930511946"></circle><text x="125.67567651833166" y="501.3717930511946">U Stadtmitte [3-4]</text><circle r="3" cx="116.68493342006525" cy="503.74221555561314"></circle><text x="125.68493342006525" y="507.74221555561314">U Stadtmitte [5]</text><circle r="3" cx="146.6759459503555" cy="351.317259662164"></circle><text x="155.6759459503555" y="355.317259662164">U Schwartzkopffstr.</text><circle r="3" cx="880.7760351182743" cy="455.79529975159585"></circle><text x="889.7760351182743" y="459.79529975159585">U Kienberg (Gärten der Welt)</text><circle r="3" cx="124.03242279487809" cy="417.094144413614"></circle><text x="133.03242279487807" y="421.094144413614">S+U Berlin Hauptbahnhof (tief)</text><circle r="3" cx="802.7407618787539" cy="740.5392737333817"></circle><text x="811.7407618787539" y="744.5392737333817">S Plänterwald</text><circle r="3" cx="192.8825668546446" cy="734.9255059999217"></circle><text x="201.8825668546446" y="738.9255059999217">S+U Tempelhof</text><circle r="3" cx="465.3113149316491" cy="888.4542381391003"></circle><text x="474.3113149316491" y="892.4542381391003">S+U Hermannstr./Silbersteinstr.</text><circle r="3" cx="743.711229060561" cy="804.4746899658342"></circle><text x="752.711229060561" y="808.4746899658342">S Köllnische Heide</text><circle r="3" cx="346.9405395460182" cy="860.521260598198"></circle><text x="355.9405395460182" y="864.521260598198">U Hermannplatz/Sonnenallee</text><circle r="3" cx="318.60982536471073" cy="847.1316498442011"></circle><text x="327.60982536471073" y="851.1316498442011">U Hermannplatz/Urbanstr.</text><circle r="3" cx="548.3299847055096" cy="888.673372327129"></circle><text x="557.3299847055096" y="892.673372327129">U Karl-Marx-Str.</text><circle r="3" cx="112.39702797915702" cy="443.7264373050062"></circle><text x="121.39702797915702" y="447.7264373050062">Berlin, Unter den Linden/Friedrichstr.</text><circle r="3" cx="891.4237373065886" cy="486.2074059466495"></circle><text x="900.4237373065886" y="490.2074059466495">Berlin, Atzpodienstr./U Magdalenenstr.</text><circle r="3" cx="891.3001022343418" cy="516.9413036443912"></circle><text x="900.3001022343418" y="520.9413036443912">U Friedrichsfelde/Massower Str.</text><circle r="3" cx="337.44362788072044" cy="143.6599886888983"></circle><text x="346.44362788072044" y="147.6599886888983">U Vinetastr.</text><circle r="3" cx="889.3908109175317" cy="566.3309608929881"></circle><text x="898.3908109175317" y="570.3309608929881">Berlin, Michiganseestr.</text><circle r="3" cx="880.897430365776" cy="610.7320729743341"></circle><text x="889.897430365776" y="614.7320729743341">S Karlshorst [Tram Ri. Tierpark]</text><circle r="3" cx="238.4733102746438" cy="199.54495343605612"></circle><text x="247.4733102746438" y="203.54495343605612">S Bornholmer Str.</text><circle r="3" cx="120.81094873453551" cy="627.3407373953715"></circle><text x="129.81094873453551" y="631.3407373953715">U Mehringdamm</text><circle r="3" cx="134.7171265670428" cy="674.9097549496945"></circle><text x="143.7171265670428" y="678.9097549496945">S Südkreuz Bhf</text><circle r="3" cx="864.5224748341544" cy="319.7192658142279"></circle><text x="873.5224748341544" y="323.7192658142279">S Gehrenseestr.</text><circle r="3" cx="126.94148039892144" cy="333.9775555409366"></circle><text x="135.94148039892144" y="337.9775555409366">U Reinickendorfer Str.</text><circle r="3" cx="904.1342828665406" cy="441.5911605742933"></circle><text x="913.1342828665406" y="445.5911605742933">U Cottbusser Platz</text><circle r="3" cx="99.97966654025109" cy="581.9746541917829"></circle><text x="108.97966654025109" y="585.9746541917829">U Möckernbrücke</text><circle r="3" cx="887.3631479009263" cy="634.3495130184141"></circle><text x="896.3631479009263" y="638.3495130184141">S Köpenick</text><circle r="3" cx="100.955964805582" cy="601.1597865764877"></circle><text x="109.955964805582" y="605.1597865764877">S+U Yorckstr. S1 U7</text><circle r="3" cx="86.97004678919667" cy="515.833578089809"></circle><text x="95.97004678919667" y="519.833578089809">S Charlottenburg Bhf</text><circle r="3" cx="86.81241252080557" cy="510.9755181001844"></circle><text x="95.81241252080557" y="514.9755181001844">S+U Zoologischer Garten/Jebensstr.</text><circle r="3" cx="163.97983925834737" cy="253.62312875136783"></circle><text x="172.97983925834737" y="257.62312875136786">U Franz-Neumann-Platz</text><circle r="3" cx="161.9267201135819" cy="743.5519832355112"></circle><text x="170.9267201135819" y="747.5519832355112">U Südstern</text><circle r="3" cx="110.41484877600777" cy="352.23491259133567"></circle><text x="119.41484877600777" y="356.23491259133567">U Naturkundemuseum [Chausseestr.]</text><circle r="3" cx="109.18283122778577" cy="355.5249097457222"></circle><text x="118.18283122778577" y="359.5249097457222">U Naturkundemuseum [Invalidenstr.]</text><circle r="3" cx="914.9391204008452" cy="537.9030008321768"></circle><text x="923.9391204008452" y="541.9030008321768">U Biesdorf-Süd</text><circle r="3" cx="83.5015887512855" cy="488.16004483083526"></circle><text x="92.5015887512855" y="492.16004483083526">U Mohrenstr.</text><circle r="3" cx="338.3012467802762" cy="115.98877058307528"></circle><text x="347.3012467802762" y="119.98877058307528">S+U Pankow</text><circle r="3" cx="835.8617820328436" cy="757.6974475636763"></circle><text x="844.8617820328436" y="761.6974475636763">S Baumschulenweg</text><circle r="3" cx="113.44917356836915" cy="323.35499275376276"></circle><text x="122.44917356836915" y="327.35499275376276">S+U Wedding</text><circle r="3" cx="85.11925217462135" cy="606.5054436557072"></circle><text x="94.11925217462135" y="610.5054436557072">S+U Yorckstr.</text><circle r="3" cx="906.4263258317651" cy="640.4195202630029"></circle><text x="915.4263258317651" y="644.4195202630029">Berlin, Treskowallee/Ehrlichstr.</text><circle r="3" cx="912.7476170964255" cy="620.5794533957694"></circle><text x="921.7476170964255" y="624.5794533957694">Berlin, Rheinsteinstr.</text><circle r="3" cx="70.22491605918873" cy="513.9060139388914"></circle><text x="79.22491605918873" y="517.9060139388914">Berlin, Schlüterstr.</text><circle r="3" cx="931.6076900958725" cy="492.86466810748374"></circle><text x="940.6076900958725" y="496.86466810748374">Berlin, Wodanstr./S Mahlsdorf Bhf</text><circle r="3" cx="931.6426539094842" cy="495.4469310253126"></circle><text x="940.6426539094842" y="499.4469310253126">S Mahlsdorf [Bus Hönower Str.]</text><circle r="3" cx="151.4258105229137" cy="242.56299370881013"></circle><text x="160.4258105229137" y="246.56299370881013">U Osloer Str./Tromsöer Str.</text><circle r="3" cx="159.6685476942325" cy="231.76077775756787"></circle><text x="168.6685476942325" y="235.76077775756787">U Residenzstr.</text><circle r="3" cx="111.43884090317363" cy="691.8280569132382"></circle><text x="120.43884090317363" y="695.8280569132382">U Platz der Luftbrücke</text><circle r="3" cx="930.7454176323841" cy="452.71191517431913"></circle><text x="939.7454176323841" y="456.71191517431913">U Kienberg</text><circle r="3" cx="928.64583909082" cy="436.43489630383175"></circle><text x="937.64583909082" y="440.43489630383175">U Hellersdorf</text><circle r="3" cx="72.43836527035685" cy="570.4899020079687"></circle><text x="81.43836527035685" y="574.4899020079687">U Gleisdreieck</text><circle r="3" cx="230.03882871208037" cy="161.0328278805862"></circle><text x="239.03882871208037" y="165.0328278805862">S Wollankstr.</text><circle r="3" cx="926.2301518964058" cy="397.70645804608233"></circle><text x="935.2301518964058" y="401.70645804608233">S Poelchaustr.</text><circle r="3" cx="79.50070109947276" cy="629.5389502202524"></circle><text x="88.50070109947276" y="633.5389502202524">S Julius-Leber-Brücke</text><circle r="3" cx="587.0144107029785" cy="933.0103194780211"></circle><text x="596.0144107029785" y="937.0103194780211">U Grenzallee</text><circle r="3" cx="97.51496494088829" cy="681.8659973659453"></circle><text x="106.51496494088829" y="685.8659973659453">U Gneisenaustr.</text><circle r="3" cx="862.290344787467" cy="244.48062594350566"></circle><text x="871.290344787467" y="248.48062594350566">S Hohenschönhausen Bhf</text><circle r="3" cx="944.846523087623" cy="488.3136448431131"></circle><text x="953.846523087623" y="492.3136448431131">S Birkenstein</text><circle r="3" cx="53.62151340981769" cy="516.042375776971"></circle><text x="62.62151340981769" y="520.042375776971">Berlin, Savignyplatz</text><circle r="3" cx="928.7681207133007" cy="630.9987650238052"></circle><text x="937.7681207133007" y="634.9987650238052">S Hirschgarten</text><circle r="3" cx="948.3224663776369" cy="496.8784749159559"></circle><text x="957.3224663776369" y="500.8784749159559">S Mahlsdorf [Tram Bus Treskowstr.]</text><circle r="3" cx="112.56449569897381" cy="271.10323286029234"></circle><text x="121.56449569897381" y="275.10323286029234">U Nauener Platz</text><circle r="3" cx="75.78790484144204" cy="650.1469224499342"></circle><text x="84.78790484144204" y="654.1469224499342">U Mehringdamm.</text><circle r="3" cx="91.96159106999063" cy="310.2510689414391"></circle><text x="100.96159106999063" y="314.2510689414391">U Leopoldplatz</text><circle r="3" cx="949.6099319460525" cy="518.7325677755632"></circle><text x="958.6099319460525" y="522.7325677755632">U Elsterwerdaer Platz</text><circle r="3" cx="117.4716912007273" cy="737.0065251573641"></circle><text x="126.4716912007273" y="741.0065251573641">S Priesterweg</text><circle r="3" cx="49.04988802532817" cy="525.4317574659854"></circle><text x="58.04988802532817" y="529.4317574659854">S Westkreuz</text><circle r="3" cx="864.753738542588" cy="769.1947646785063"></circle><text x="873.753738542588" y="773.1947646785063">S Plänterwald [Bus Köpenicker Landstr.]</text><circle r="3" cx="126.60880983349459" cy="234.2022130444179"></circle><text x="135.6088098334946" y="238.2022130444179">U Paracelsus-Bad</text><circle r="3" cx="112.60339905988614" cy="744.9353343731577"></circle><text x="121.60339905988614" y="748.9353343731577">U Paradestr.</text><circle r="3" cx="83.97962641451578" cy="307.6552750756117"></circle><text x="92.97962641451578" y="311.6552750756117">U Reinickendorfer Str./Fennstr.</text><circle r="3" cx="952.9988806005276" cy="430.27583905765977"></circle><text x="961.9988806005276" y="434.27583905765977">U Louis-Lewin-Str.</text><circle r="3" cx="935.2646424547834" cy="648.8109237546411"></circle><text x="944.2646424547834" y="652.8109237546411">S Köpenick [Tram Stellingdamm]</text><circle r="3" cx="186.00537030182142" cy="159.28729067074494"></circle><text x="195.00537030182142" y="163.28729067074494">S Schönholz</text><circle r="3" cx="607.9079341937743" cy="954.0194439842966"></circle><text x="616.9079341937743" y="958.0194439842966">U Blaschkoallee</text><circle r="3" cx="47.1676265895018" cy="612.7857232507415"></circle><text x="56.1676265895018" y="616.7857232507415">U Kleistpark</text><circle r="3" cx="77.65751674657379" cy="301.4940690631457"></circle><text x="86.65751674657379" y="305.4940690631457">U Seestr.</text><circle r="3" cx="35.59254280023022" cy="545.863836244058"></circle><text x="44.59254280023022" y="549.863836244058">U Mendelssohn-Bartholdy-Park</text><circle r="3" cx="37.6182858665437" cy="563.094597334356"></circle><text x="46.6182858665437" y="567.094597334356">U Kurfürstenstr.</text><circle r="3" cx="947.8621044600546" cy="363.04874407395073"></circle><text x="956.8621044600546" y="367.04874407395073">S Marzahn</text><circle r="3" cx="55.41852602651576" cy="657.5333534335145"></circle><text x="64.41852602651576" y="661.5333534335145">S Schöneberg</text><circle r="3" cx="883.4323374286454" cy="777.5321369831787"></circle><text x="892.4323374286454" y="781.5321369831787">S Schöneweide Bhf</text><circle r="3" cx="25.04388743344088" cy="493.54313267427716"></circle><text x="34.04388743344088" y="497.54313267427716">U Ernst-Reuter-Platz</text><circle r="3" cx="20.25047635989313" cy="515.5046627532026"></circle><text x="29.25047635989313" y="519.5046627532026">U Wilmersdorfer Str./S Charlottenburg</text><circle r="3" cx="17.482644931596568" cy="528.0733533604982"></circle><text x="26.482644931596568" y="532.0733533604982">U Kurfürstendamm</text><circle r="3" cx="96.24568936163242" cy="234.3054992062355"></circle><text x="105.24568936163242" y="238.3054992062355">U Lindauer Allee</text><circle r="3" cx="983.0118332705629" cy="517.6261178857126"></circle><text x="992.0118332705629" y="521.6261178857126">U Elsterwerdaer Platz Bus Köpenicker S.</text><circle r="3" cx="983.139098484221" cy="513.7011907134121"></circle><text x="992.139098484221" y="517.7011907134121">U Elsterwerdaer Platz [Busendstelle]</text><circle r="3" cx="314.9953437753742" cy="53.47520977406067"></circle><text x="323.9953437753742" y="57.47520977406067">Berlin, S+U Pankow/Granitzstr.</text><circle r="3" cx="193.33230501457348" cy="126.41462024935107"></circle><text x="202.33230501457348" y="130.41462024935106">S Wollankstr./Sternstr.</text><circle r="3" cx="968.1102887138859" cy="626.8769388037178"></circle><text x="977.1102887138859" y="630.8769388037178">S Friedrichshagen</text><circle r="3" cx="107.89753136549312" cy="785.4481635791786"></circle><text x="116.89753136549312" y="789.4481635791786">S Südende</text><circle r="3" cx="986.3984737797582" cy="483.8454604161455"></circle><text x="995.3984737797582" y="487.8454604161455">S Hoppegarten</text><circle r="3" cx="9.372413316922623" cy="521.7874882060673"></circle><text x="18.372413316922625" y="525.7874882060673">S Charlottenburg/Gervinusstr.</text><circle r="3" cx="10.072034434911338" cy="458.6877782204302"></circle><text x="19.072034434911338" y="462.6877782204302">U Hansaplatz</text><circle r="3" cx="103.48907148714642" cy="209.28502845400993"></circle><text x="112.48907148714642" y="213.28502845400993">U Paracelsus-Bad/Aroser Allee</text><circle r="3" cx="608.4315042766173" cy="979.5609658754776"></circle><text x="617.4315042766173" y="983.5609658754776">U Parchimer Allee</text><circle r="3" cx="21.229728135099435" cy="611.8710770910886"></circle><text x="30.229728135099435" y="615.8710770910886">U Eisenacher Str.</text><circle r="3" cx="987.0911441741084" cy="433.0796863555687"></circle><text x="996.0911441741084" y="437.0796863555687">U Hönow</text><circle r="3" cx="12.01129888055913" cy="560.0261500587211"></circle><text x="21.01129888055913" y="564.0261500587211">U Nollendorfplatz</text><circle r="3" cx="450.20711810632037" cy="7.510742337741849"></circle><text x="459.20711810632037" y="11.51074233774185">S Pankow-Heinersdorf</text><circle r="3" cx="970.1119631023703" cy="334.67954373657574"></circle><text x="979.1119631023703" y="338.67954373657574">S Raoul-Wallenberg-Str.</text><circle r="3" cx="870.7662888272629" cy="167.03082698188138"></circle><text x="879.7662888272629" y="171.03082698188138">S Wartenberg</text><line x1="150.90325362876527" y1="594.5211058483533" x2="20.177820029384065" y2="621.6374761668699" class="Transfer"></line><line x1="238.4733102746438" y1="199.54495343605612" x2="224.24800915987547" y2="183.2022103175152" class="S8 Connection"></line><line x1="126.60880983349459" y1="234.2022130444179" x2="103.48907148714642" y2="209.28502845400993" class="Transfer"></line><line x1="86.97004678919667" y1="515.833578089809" x2="9.372413316922623" y2="521.7874882060673" class="Transfer"></line><line x1="230.03882871208037" y1="161.0328278805862" x2="193.33230501457348" y2="126.41462024935107" class="Transfer"></line><line x1="338.3012467802762" y1="115.98877058307528" x2="314.9953437753742" y2="53.47520977406067" class="Transfer"></line><line x1="949.6099319460525" y1="518.7325677755632" x2="983.139098484221" y2="513.7011907134121" class="Transfer"></line><line x1="949.6099319460525" y1="518.7325677755632" x2="983.0118332705629" y2="517.6261178857126" class="Transfer"></line><line x1="153.4798763027741" y1="510.07877227826214" x2="41.860413381071545" y2="513.3252998871254" class="U9 Connection"></line><line x1="86.97004678919667" y1="515.833578089809" x2="20.25047635989313" y2="515.5046627532026" class="Transfer"></line><line x1="153.4798763027741" y1="510.07877227826214" x2="50.190224046870235" y2="513.0830217073595" class="U2 Connection"></line><line x1="166.83271862422495" y1="489.47984164633266" x2="100.1992623490699" y2="487.3758099755992" class="U2 Connection"></line><line x1="150.90325362876527" y1="594.5211058483533" x2="72.20467636682748" y2="609.8207882053011" class="U7 Connection"></line><line x1="887.3631479009263" y1="634.3495130184141" x2="935.2646424547834" y2="648.8109237546411" class="Transfer"></line><line x1="126.94148039892144" y1="333.9775555409366" x2="83.97962641451578" y2="307.6552750756117" class="Transfer"></line><line x1="802.7407618787539" y1="740.5392737333817" x2="864.753738542588" y2="769.1947646785063" class="Transfer"></line><line x1="120.81094873453551" y1="627.3407373953715" x2="75.78790484144204" y2="650.1469224499342" class="Transfer"></line><line x1="190.93003733720727" y1="273.2397684247425" x2="150.6165639464082" y2="243.6623469149264" class="U9 Connection"></line><line x1="881.6404342160278" y1="495.5252468396382" x2="948.3224663776369" y2="496.8784749159559" class="Transfer"></line><line x1="120.30100840252771" y1="515.1220296211418" x2="53.62151340981769" y2="516.042375776971" class="Transfer"></line><line x1="558.0482028871382" y1="789.2324430999636" x2="563.3069190094939" y2="911.8292669500755" class="U7 Connection"></line><line x1="880.7760351182743" y1="455.79529975159585" x2="930.7454176323841" y2="452.71191517431913" class="Transfer"></line><line x1="190.93003733720727" y1="273.2397684247425" x2="151.4258105229137" y2="242.56299370881013" class="Transfer"></line><line x1="881.6404342160278" y1="495.5252468396382" x2="931.6426539094842" y2="495.4469310253126" class="Transfer"></line><line x1="881.6404342160278" y1="495.5252468396382" x2="931.6076900958725" y2="492.86466810748374" class="Transfer"></line><line x1="120.30100840252771" y1="515.1220296211418" x2="70.22491605918873" y2="513.9060139388914" class="Transfer"></line><line x1="799.107127124713" y1="593.3418677817116" x2="912.7476170964255" y2="620.5794533957694" class="Transfer"></line><line x1="799.107127124713" y1="593.3418677817116" x2="906.4263258317651" y2="640.4195202630029" class="Transfer"></line><line x1="150.90325362876527" y1="594.5211058483533" x2="85.11925217462135" y2="606.5054436557072" class="Transfer"></line><line x1="218.34989766549324" y1="503.0546630048146" x2="108.3813589689927" y2="506.133333090972" class="U2 Connection"></line><line x1="158.12664471305266" y1="367.4592387629787" x2="109.18283122778577" y2="355.5249097457222" class="Transfer"></line><line x1="158.12664471305266" y1="367.4592387629787" x2="110.41484877600777" y2="352.23491259133567" class="Transfer"></line><line x1="153.4798763027741" y1="510.07877227826214" x2="86.81241252080557" y2="510.9755181001844" class="Transfer"></line><line x1="313.8920996404846" y1="461.73971479755164" x2="235.53087843647813" y2="445.63012102809967" class="S1 Connection"></line><line x1="799.107127124713" y1="593.3418677817116" x2="880.897430365776" y2="610.7320729743341" class="Transfer"></line><line x1="753.6983239685947" y1="564.082796911265" x2="889.3908109175317" y2="566.3309608929881" class="Transfer"></line><line x1="841.1187023996061" y1="519.3427501746784" x2="891.3001022343418" y2="516.9413036443912" class="Transfer"></line><line x1="808.085982870056" y1="487.65206076156653" x2="891.4237373065886" y2="486.2074059466495" class="Transfer"></line><line x1="193.18740412578205" y1="469.414456725958" x2="112.39702797915702" y2="443.7264373050062" class="Transfer"></line><line x1="363.90152768313243" y1="776.6706530831547" x2="318.60982536471073" y2="847.1316498442011" class="Transfer"></line><line x1="363.90152768313243" y1="776.6706530831547" x2="346.9405395460182" y2="860.521260598198" class="Transfer"></line><line x1="558.0482028871382" y1="789.2324430999636" x2="570.1825729821898" y2="849.6934622790519" class="S46 Connection"></line><line x1="468.78736247794035" y1="821.8232678091517" x2="465.3113149316491" y2="888.4542381391003" class="Transfer"></line><line x1="604.5930310823048" y1="520.9302562524639" x2="803.9734965829482" y2="560.8285572337231" class="S85 Connection"></line><line x1="271.0150821870039" y1="447.1709605030018" x2="124.03242279487809" y2="417.094144413614" class="Transfer"></line><line x1="166.83271862422495" y1="489.47984164633266" x2="116.68493342006525" y2="503.74221555561314" class="Transfer"></line><line x1="166.83271862422495" y1="489.47984164633266" x2="116.67567651833166" y2="497.3717930511946" class="Transfer"></line><line x1="799.107127124713" y1="593.3418677817116" x2="860.6617871209353" y2="619.6790512610003" class="Transfer"></line><line x1="173.3121585889465" y1="399.94418864804766" x2="140.4294504861055" y2="393.5386458743083" class="Transfer"></line><line x1="173.3121585889465" y1="399.94418864804766" x2="143.85952563465486" y2="382.57358679229367" class="Transfer"></line><line x1="363.90152768313243" y1="776.6706530831547" x2="330.82614603305524" y2="834.6717901675772" class="Transfer"></line><line x1="363.90152768313243" y1="776.6706530831547" x2="338.54482854208055" y2="838.4630372869302" class="Transfer"></line><line x1="238.48956612491412" y1="382.5688680449595" x2="165.2612617410535" y2="342.3612449021228" class="Transfer"></line><line x1="714.1571741464423" y1="480.9814626847807" x2="840.3272922482223" y2="469.7767430262019" class="U5 Connection"></line><line x1="363.90152768313243" y1="776.6706530831547" x2="349.18817932455215" y2="806.5809939570092" class="U7 Connection"></line><line x1="218.34989766549324" y1="503.0546630048146" x2="135.08274795395263" y2="507.7716895950344" class="Transfer"></line><line x1="218.34989766549324" y1="503.0546630048146" x2="135.04475580514642" y2="505.7157444549909" class="Transfer"></line><line x1="558.0482028871382" y1="789.2324430999636" x2="557.5615920548635" y2="857.0566354206113" class="Transfer"></line><line x1="192.46993921212257" y1="477.7580091662447" x2="143.33111692622836" y2="465.50238233318174" class="Transfer"></line><line x1="806.6109102252168" y1="494.15242141493655" x2="816.6090920803869" y2="493.9617395045541" class="U5 Connection"></line><line x1="363.90152768313243" y1="776.6706530831547" x2="344.1231090755196" y2="822.6533320043286" class="Transfer"></line><line x1="284.8698231405556" y1="627.3538652904739" x2="227.5017759780371" y2="661.3148960346002" class="U3 Connection"></line><line x1="228.7550346525785" y1="418.1223684303588" x2="163.57356759298247" y2="403.47406784761694" class="Transfer"></line><line x1="218.34989766549324" y1="503.0546630048146" x2="151.68855113564445" y2="503.9045743845546" class="Transfer"></line><line x1="218.34989766549324" y1="503.0546630048146" x2="151.6744171885408" y2="502.3236760033123" class="Transfer"></line><line x1="799.107127124713" y1="593.3418677817116" x2="831.3790141150754" y2="601.8122133238367" class="Transfer"></line><line x1="558.0482028871382" y1="789.2324430999636" x2="552.4181289398608" y2="840.9946330346625" class="Transfer"></line><line x1="678.3210893861014" y1="497.91029716662985" x2="844.9099754074942" y2="492.1190822614587" class="Transfer"></line><line x1="678.3210893861014" y1="497.91029716662985" x2="844.7795044432876" y2="487.6673881176323" class="Transfer"></line><line x1="676.9180336370705" y1="616.201493758773" x2="761.8561785059545" y2="724.6248912704416" class="Transfer"></line><line x1="271.0150821870039" y1="447.1709605030018" x2="172.07861341083992" y2="431.4977064804205" class="Transfer"></line><line x1="726.2849046847069" y1="393.7213948537474" x2="795.3515742692234" y2="345.47311338216093" class="Transfer"></line><line x1="218.34989766549324" y1="503.0546630048146" x2="168.33429150418073" y2="499.2027636837069" class="Transfer"></line><line x1="253.36901964409307" y1="470.97235846423837" x2="170.94365389694184" y2="458.4705060579572" class="Transfer"></line><line x1="719.0398644043514" y1="543.5811378867182" x2="818.2497818719082" y2="557.1097258173005" class="Transfer"></line><line x1="284.8698231405556" y1="627.3538652904739" x2="224.42046309373183" y2="655.9926171852519" class="Transfer"></line><line x1="604.5930310823048" y1="520.9302562524639" x2="658.5238127341182" y2="531.7224196326406" class="S75 Connection"></line><line x1="565.3210660474576" y1="520.064963864112" x2="614.7101647662672" y2="535.2360341028307" class="S75 Connection"></line><line x1="676.9180336370705" y1="616.201493758773" x2="752.7130839212712" y2="682.4067112967933" class="Transfer"></line><line x1="678.3210893861014" y1="497.91029716662985" x2="783.2895950147667" y2="495.02173382116865" class="U5 Connection"></line><line x1="313.8920996404846" y1="461.73971479755164" x2="214.30804769372637" y2="441.26710604887313" class="U6 Connection"></line><line x1="284.8698231405556" y1="627.3538652904739" x2="236.10705110242282" y2="642.6902642864632" class="Transfer"></line><line x1="678.3210893861014" y1="497.91029716662985" x2="794.805940073905" y2="489.3015095858765" class="Transfer"></line><line x1="387.84250376952974" y1="448.698858195717" x2="268.8235532824181" y2="384.7022914618675" class="U5 Connection"></line><line x1="290.577092961484" y1="397.1093276726138" x2="243.33346931101667" y2="379.9997091592734" class="Transfer"></line><line x1="678.3210893861014" y1="497.91029716662985" x2="778.1047578585325" y2="511.2777702091973" class="Transfer"></line><line x1="678.3210893861014" y1="497.91029716662985" x2="778.2602535016348" y2="493.62224446608377" class="Transfer"></line><line x1="678.3210893861014" y1="497.91029716662985" x2="778.2376727286749" y2="507.296706035963" class="Transfer"></line><line x1="678.3210893861014" y1="497.91029716662985" x2="778.3274335115142" y2="498.18776399493095" class="Transfer"></line><line x1="678.3210893861014" y1="497.91029716662985" x2="778.3284797844575" y2="498.356289162518" class="Transfer"></line><line x1="676.9180336370705" y1="616.201493758773" x2="717.6777309184993" y2="645.2096756645984" class="Transfer"></line><line x1="676.9180336370705" y1="616.201493758773" x2="724.7397134756653" y2="634.0205418259466" class="Transfer"></line><line x1="565.3210660474576" y1="520.064963864112" x2="715.0815589367509" y2="566.0675639428075" class="U3 Connection"></line><line x1="387.84250376952974" y1="448.698858195717" x2="301.228533333125" y2="394.5727547590311" class="U2 Connection"></line><line x1="313.8920996404846" y1="461.73971479755164" x2="273.0789635967312" y2="453.34930137596206" class="S25 Connection"></line><line x1="313.8920996404846" y1="461.73971479755164" x2="276.34401448023146" y2="454.02053444968925" class="S26 Connection"></line><line x1="678.3210893861014" y1="497.91029716662985" x2="744.9621792186512" y2="495.69526395124586" class="Transfer"></line><line x1="387.84250376952974" y1="448.698858195717" x2="285.40424246093" y2="392.5353041867578" class="Transfer"></line><line x1="387.84250376952974" y1="448.698858195717" x2="293.73894221752306" y2="377.2955744789386" class="Transfer"></line><line x1="387.84250376952974" y1="448.698858195717" x2="312.0671067938899" y2="410.0889026373352" class="U8 Connection"></line><line x1="643.7654337917926" y1="518.8812088240578" x2="725.7363507470089" y2="534.3396427257837" class="Transfer"></line><line x1="387.84250376952974" y1="448.698858195717" x2="305.0972714488379" y2="390.95549449380866" class="Transfer"></line><line x1="387.84250376952974" y1="448.698858195717" x2="303.4067072421564" y2="394.033708093533" class="Transfer"></line><line x1="565.3210660474576" y1="520.064963864112" x2="691.7626061570135" y2="604.3865284618403" class="Transfer"></line><line x1="565.3210660474576" y1="520.064963864112" x2="677.1846788989795" y2="627.5736415091689" class="Transfer"></line><line x1="604.5930310823048" y1="520.9302562524639" x2="683.0378043940334" y2="536.6279484418118" class="S42 Connection"></line><line x1="604.5930310823048" y1="520.9302562524639" x2="683.0378043940334" y2="536.6279484418118" class="S41 Connection"></line><line x1="387.84250376952974" y1="448.698858195717" x2="316.197254773511" y2="405.5136943344831" class="Transfer"></line><line x1="387.84250376952974" y1="448.698858195717" x2="317.42472691338884" y2="403.1631228897767" class="Transfer"></line><line x1="387.84250376952974" y1="448.698858195717" x2="315.0588426259345" y2="407.76183316949397" class="Transfer"></line><line x1="387.84250376952974" y1="448.698858195717" x2="320.2196028852974" y2="398.06806229453434" class="Transfer"></line><line x1="565.3210660474576" y1="520.064963864112" x2="701.4209075798879" y2="509.95301131008716" class="Transfer"></line><line x1="413.8398030890585" y1="473.9919153287331" x2="340.44407979455275" y2="451.8368802383947" class="U8 Connection"></line><line x1="387.84250376952974" y1="448.698858195717" x2="329.38248326328323" y2="416.3957956643556" class="Transfer"></line><line x1="387.84250376952974" y1="448.698858195717" x2="328.60520139602755" y2="418.0010792052497" class="Transfer"></line><line x1="387.84250376952974" y1="448.698858195717" x2="341.30398449261304" y2="430.2861627327569" class="Transfer"></line><line x1="565.3210660474576" y1="520.064963864112" x2="666.7600705668435" y2="522.9606179283679" class="Transfer"></line><line x1="565.3210660474576" y1="520.064963864112" x2="666.87224397903" y2="522.1306416652158" class="Transfer"></line><line x1="500" y1="500" x2="592.8748624017322" y2="638.3908873865512" class="Transfer"></line><line x1="387.84250376952974" y1="448.698858195717" x2="358.1730219867457" y2="433.4451147392444" class="Transfer"></line><line x1="500" y1="500" x2="408.7324040661989" y2="459.1316022767662" class="Transfer"></line><line x1="500" y1="500" x2="418.24316831382527" y2="483.8672718648417" class="Transfer"></line><line x1="500" y1="500" x2="577.9203683735279" y2="470.45578505056943" class="Transfer"></line><line x1="500" y1="500" x2="460" y2="500" class="S5 Connection"></line><line x1="500" y1="500" x2="500" y2="500" class="Transfer"></line><path d="M 181.65753885872365 434.5547753116015 C 181.65753885872365 434.5547753116015, 176.84325597874582 410.0243562318521, 173.3121585889465 399.94418864804766 C 169.75561591482963 389.79138281561285, 163.53841632621433 376.75661420290334, 158.12664471305266 367.4592387629787 C 155.13983588535598 362.3279277943413, 150.65056483442157 355.7279040545959, 146.6759459503555 351.317259662164 C 141.40013462084002 345.4626787992434, 132.9999502696388 339.0179171441086, 126.94148039892144 333.9775555409366 C 122.98120018092897 330.68278891264146, 117.67969008567133 326.2947268466329, 113.44917356836915 323.35499275376276 C 107.24878591462786 319.0464193443063, 98.404476909157 314.1877977795497, 91.96159106999063 310.2510689414391 C 87.66810724600788 307.6276666326343, 77.65751674657379 301.4940690631457, 77.65751674657379 301.4940690631457" class="U6 UrbanRailwayService"></path><path d="M 438.33333333333337 500 C 438.33333333333337 500, 421.3566191119085 481.63189511713404, 413.8398030890585 473.9919153287331 C 406.20829991822404 466.23536923221366, 397.75770946747406 453.18132893865993, 387.84250376952974 448.698858195717 C 378.2722047497477 444.3723130221476, 363.3183149520597 444.3880927026197, 352.9381187627512 445.9884500184843 C 340.45460021828336 447.9130851473413, 326.51817884092395 461.38675636722894, 313.8920996404846 461.73971479755164 C 300.31205051418465 462.1193411841149, 284.5837963655846 446.4987655862718, 271.0150821870039 447.1709605030018 C 254.7696232271058 447.97576151723706, 236.33515767764533 462.5983712549504, 221.65493657738267 469.6022094839253 C 210.62933460506343 474.8624526412855, 195.72866886050227 481.56192067497585, 185.23566875169678 487.8173987257064 C 175.242326796351 493.7750019475582, 164.27948344717035 505.7511395405869, 153.4798763027741 510.07877227826214 C 144.13430709352934 513.8237410277155, 130.33170838232138 514.2562856090152, 120.30100840252771 515.1220296211418 C 110.33648724057491 515.9820617771277, 96.88111436234495 514.4911635276026, 86.97004678919667 515.833578089809 C 75.34142139617397 517.4086290064558, 49.04988802532817 525.4317574659854, 49.04988802532817 525.4317574659854" class="S5 SuburbanRailway"></path><path d="M 334.99999999999994 500 C 334.99999999999994 500, 585.1769433202836 564.278805957479, 694.3700014095082 559.7055022297965 C 708.5532424334463 559.1114693289834, 726.6103668081093 552.0527305202851, 740.2371182671687 548.074182329878 C 751.0749526499785 544.9099031176822, 766.4533086746899 542.3282160591338, 775.9635338302227 536.24323992664 C 789.7770022308932 527.4048976003139, 799.3419138941838 504.9173137875458, 813.3118206036175 496.32837259183555 C 823.878566663807 489.83175365023, 842.0352417206517 490.539838146715, 853.0039825298269 484.74769648459284 C 872.6741363764742 474.3606958636815, 897.1668489295552 455.6341753654122, 910.2934505272345 437.6759720937764 C 917.911139635731 427.2543859389341, 920.3988815921856 409.2231820583883, 926.2301518964058 397.70645804608233 C 931.7666805188803 386.7718470943098, 940.8253262905944 373.0838135230333, 947.8621044600546 363.04874407395073 C 954.0719737378162 354.19292000626643, 970.1119631023703 334.67954373657574, 970.1119631023703 334.67954373657574" class="S7 SuburbanRailway"></path><path d="M 279.14281481458335 382.85861639892346 C 279.14281481458335 382.85861639892346, 241.37731171416533 404.66504419745286, 228.7550346525785 418.1223684303588 C 214.4282246560056 433.3969917337773, 208.5921527025216 464.3921633677464, 192.46993921212257 477.7580091662447 C 186.16082523882957 482.98847237419085, 175.0854001687944 487.88677878541074, 166.90540547229503 487.3864276457881 C 155.96133479274334 486.7170044444543, 145.491210888831 470.56282040084835, 134.5274674101446 470.4319028883913 C 123.04364642174173 470.2947751564057, 111.31910974834045 484.5042350896704, 100.1992623490699 487.3758099755992 C 95.34372670184668 488.6296971668221, 87.9897694043267 485.92292750368523, 83.5015887512855 488.16004483083526 C 63.36447065414269 498.1973181262984, 35.59254280023022 545.863836244058, 35.59254280023022 545.863836244058" class="U2 UrbanRailwayService"></path><path d="M 783.2895950147667 495.02173382116865 C 783.2895950147667 495.02173382116865, 800.9307325034077 490.65671648916043, 808.085982870056 487.65206076156653 M 840.3272922482223 469.7767430262019 C 848.1675935950101 463.447408658536, 862.4414753403171 444.496654176719, 862.4414753403171 444.496654176719" class="U5 UrbanRailwayService"></path><path d="M 268.8235532824181 384.7022914618675 C 268.8235532824181 384.7022914618675, 258.48416833480735 344.85315234005304, 263.7884499870873 328.90485662958844 C 278.7219527241087 284.00454151516004, 324.6128264152564 227.36573097554583, 369.2267620912172 211.5972641866401 C 480.0135050200426 172.4405063248692, 656.088858376651 211.75253113020932, 755.9531015962089 273.6725361464237 C 793.9994365531087 297.2628541163939, 842.643906822187 395.128979716004, 842.643906822187 395.128979716004" class="U5 UrbanRailwayService"></path><path d="M 460 500 C 460 500, 533.3340904234907 516.6893060062363, 565.3210660474576 520.064963864112 C 577.0404360456166 521.3017354766803, 592.8099283510243 521.1083775580205, 604.5930310823048 520.9302562524639 C 616.359473964484 520.7523867883908, 632.5192784310274 522.3460039474907, 643.7654337917926 518.8812088240578 C 655.3542641247154 515.3108399703708, 666.976754774068 502.1945234032883, 678.3210893861014 497.91029716662985 C 690.1450294711543 493.4449463051234, 707.18022995982 491.28698980847446, 719.7949325185715 490.5032827168219 C 735.3227666999419 489.53859300580666, 756.0366806080403 492.6180869892663, 771.5823432169466 493.2317926619858 C 782.0863601447776 493.64646619100336, 796.1030939505848 493.84890387935206, 806.6109102252168 494.15242141493655 C 818.1191804283039 494.484836992026, 833.4575920504581 495.15314216678246, 844.9687994380304 495.36023553571783 C 855.9686212823239 495.5581287789482, 870.6551988037353 496.1251178911375, 881.6404342160278 495.5252468396382 C 900.6968933771228 494.48463025148317, 925.8777815581935 490.41563519316793, 944.846523087623 488.3136448431131 C 957.3076966911837 486.93278008598594, 986.3984737797582 483.8454604161455, 986.3984737797582 483.8454604161455" class="S5 SuburbanRailway"></path><path d="M 715.0815589367509 566.0675639428075 C 715.0815589367509 566.0675639428075, 687.534839819818 683.6722527849838, 648.4101931611331 711.4486360253627 C 571.5503212368856 766.0149884578499, 426.4300212693979 766.0955699694873, 335.5954319737897 740.9161315822575 C 296.78663758431867 730.1582952250935, 260.7306256600367 684.0678543886875, 227.5017759780371 661.3148960346002 C 211.80240878605173 650.5649889110241, 190.09100219963898 637.4081457524476, 173.97116945599635 627.299653000742 C 160.81602331918216 619.0502684391025, 143.20692758330668 608.1607465381792, 129.9572587996351 600.0640501347224 C 120.99447634650481 594.5870129620907, 109.34922281157696 586.7223716192407, 99.97966654025109 581.9746541917829 C 91.99433821095725 577.9283491827629, 80.98474656061326 573.1540002783405, 72.43836527035685 570.4899020079687 C 62.243195795637945 567.3118395694589, 48.1535523268042 564.8409426875485, 37.6182858665437 563.094597334356 C 29.985387167572583 561.8293538566882, 12.01129888055913 560.0261500587211, 12.01129888055913 560.0261500587211" class="U3 UrbanRailwayService"></path><path d="M 41.860413381071545 513.3252998871254 C 41.860413381071545 513.3252998871254, 17.482644931596568 528.0733533604982, 17.482644931596568 528.0733533604982" class="U9 UrbanRailwayService"></path><path d="M 349.18817932455215 806.5809939570092 C 349.18817932455215 806.5809939570092, 445.6887281665685 849.6791862787493, 487.74745132700104 866.4618936471571 C 505.72669774926646 873.6361587873134, 533.2057337411237 876.5911368146058, 548.3299847055096 888.673372327129 M 563.3069190094939 911.8292669500755 C 569.5082583536416 919.0752854231175, 580.0926236620901 926.4490499717799, 587.0144107029785 933.0103194780211 C 593.4655892145441 939.1254918456792, 604.4335922670275 945.8376357825416, 607.9079341937743 954.0194439842966 C 610.9035245995045 961.0738291505982, 608.4315042766173 979.5609658754776, 608.4315042766173 979.5609658754776" class="U7 UrbanRailwayService"></path><path d="M 816.6090920803869 493.9617395045541 C 816.6090920803869 493.9617395045541, 845.8439855122238 481.25481392934233, 857.3917043658324 474.03950254207007 C 864.9376225261286 469.32461902960955, 873.4547802789199 460.8520017395707, 880.7760351182743 455.79529975159585 C 887.524269532876 451.13437602630637, 896.5083795677709 444.60918585006476, 904.1342828665406 441.5911605742933 C 911.1214040861339 438.8259395087425, 921.3250964160334 438.1298998932717, 928.64583909082 436.43489630383175 C 935.9875614848928 434.73503518817137, 945.4887739000542 430.8993074784066, 952.9988806005276 430.27583905765977 C 963.2259097320754 429.42681920269865, 987.0911441741084 433.0796863555687, 987.0911441741084 433.0796863555687" class="U5 UrbanRailwayService"></path><path d="M 332.46628378428045 449.4287242503144 C 332.46628378428045 449.4287242503144, 321.15726522576455 419.78974478952927, 312.0671067938899 410.0889026373352 C 306.91720668131336 404.59302833920503, 296.05074966928765 402.2828359325357, 290.577092961484 397.1093276726138 C 284.41010724159224 391.28050915807404, 278.0141556292829 381.53363886737, 274.6126497548842 373.7595411106382 C 270.35178426711434 364.02138805333584, 271.19409852536273 348.8556753929156, 266.7011898035364 339.22238047945774 C 263.3765070744294 332.09389174173225, 254.9539945467405 325.04278655334525, 250.88357087215917 318.31222060072963 C 246.50845957445515 311.077844650354, 244.96834311813294 298.67779053625117, 238.87449099962242 292.81752086528934 C 233.28089734028643 287.438334328432, 222.2444148068815 285.65073982357836, 215.05995220449807 282.71689679113365 C 207.85986393332587 279.776672869534, 197.7488232065285 276.98013566475566, 190.93003733720727 273.2397684247425 C 182.1624156478436 268.4303895165017, 169.36062429927185 262.05215407546046, 163.97983925834737 253.62312875136783 C 160.38279840671967 247.98834717218094, 164.98556910027054 235.81278339689706, 159.6685476942325 231.76077775756787 C 151.75871087238312 225.73283448618844, 136.54634717631725 233.81884612975574, 126.60880983349459 234.2022130444179 C 117.50659159468343 234.55335530455895, 96.24568936163242 234.3054992062355, 96.24568936163242 234.3054992062355" class="U8 UrbanRailwayService"></path><path d="M 614.7101647662672 535.2360341028307 C 614.7101647662672 535.2360341028307, 645.4486889662007 533.4310593238193, 658.5238127341182 531.7224196326406 C 669.0503379367063 530.3468273942353, 683.6330245580207 529.6908104573193, 693.339721306204 525.3919704875261 C 706.004400841589 519.7831179598601, 717.439406853542 503.17694553814823, 729.9842087409532 497.3048692429431 C 741.0592674864283 492.120762669481, 758.8618045098664 493.9140968006214, 769.7483262727923 488.34493787973605 C 784.020910420488 481.04358938099716, 800.4871177383649 466.00789390010874, 809.7797939723699 452.944107444297 C 834.8261696869206 417.73352917949336, 856.7820836384158 362.23034792599293, 864.5224748341544 319.7192658142279 C 868.567597353046 297.50300681592, 861.3947088332566 267.0443804252019, 862.290344787467 244.48062594350566 C 863.2173989050821 221.1253537452723, 870.7662888272629 167.03082698188138, 870.7662888272629 167.03082698188138" class="S75 SuburbanRailway"></path><path d="M 570.1825729821898 849.6934622790519 C 570.1825729821898 849.6934622790519, 743.711229060561 804.4746899658342, 743.711229060561 804.4746899658342" class="S46 SuburbanRailway"></path><path d="M 41.860413381071545 513.3252998871254 C 41.860413381071545 513.3252998871254, 10.072034434911338 458.6877782204302, 10.072034434911338 458.6877782204302" class="U9 UrbanRailwayService"></path><path d="M 325.3653465226983 85.26787222972132 C 325.3653465226983 85.26787222972132, 450.20711810632037 7.510742337741849, 450.20711810632037 7.510742337741849" class="S8 SuburbanRailway"></path><path d="M 376.66666666666663 500 C 376.66666666666663 500, 569.9703878281298 547.3902186611009, 654.5400830878876 547.4707681663135 C 668.1826644063825 547.4837622201724, 685.738423671782 539.7762820615195, 699.3804655006435 539.8983009812592 C 705.3806398780132 539.951968519078, 713.4234164028244 541.4691519469919, 719.0398644043514 543.5811378867182 C 730.3472922438265 547.8331364105092, 743.4202146377091 557.7347354454614, 753.6983239685947 564.082796911265 C 767.4862111900175 572.5986000368597, 785.0579212201479 585.2644579025672, 799.107127124713 593.3418677817116 C 812.2720928568552 600.9108951691493, 830.4291423448664 609.9415234783208, 844.2103843337259 616.3199141503286 C 856.9430933907428 622.2130109223261, 873.5064824127028 632.148765181372, 887.3631479009263 634.3495130184141 C 899.6709849086848 636.3042723143292, 916.359376662919 632.1507228384105, 928.7681207133007 630.9987650238052 C 940.584560966093 629.9017933532837, 968.1102887138859 626.8769388037178, 968.1102887138859 626.8769388037178" class="S3 SuburbanRailway"></path><path d="M 330.7964938763268 843.9689200493274 C 330.7964938763268 843.9689200493274, 208.84420553560767 779.2283075101832, 161.9267201135819 743.5519832355112 C 140.62907107940086 727.3571290911138, 97.51496494088829 681.8659973659453, 97.51496494088829 681.8659973659453" class="U7 UrbanRailwayService"></path><path d="M 683.0378043940334 536.6279484418118 C 683.0378043940334 536.6279484418118, 682.2850505141432 592.8682300865012, 676.9180336370705 616.201493758773 C 668.7162613639802 651.8589398617419, 653.896086975302 700.2075812275514, 632.2001639897147 729.669581444937 C 615.2806322480478 752.6454764175637, 582.903167663909 775.2184133406141, 558.0482028871382 789.2324430999636 C 533.2160371621667 803.2336180195147, 497.28751601002836 821.1824851878737, 468.78736247794035 821.8232678091517 C 382.0295614147587 823.7738850617569, 192.8825668546446 734.9255059999217, 192.8825668546446 734.9255059999217" class="S41 SuburbanRailway"></path><path d="M 214.30804769372637 441.26710604887313 C 214.30804769372637 441.26710604887313, 200.62621370539298 461.9233916364028, 193.18740412578205 469.414456725958 C 186.18541199624636 476.4656358477724, 173.0022457282263 481.68985088234695, 166.83271862422495 489.47984164633266 C 159.551645396068 498.6733328561305, 154.34613997956436 513.9685067864091, 150.90696391154424 525.1803922635075 C 144.41030703359016 546.3598176430166, 145.63965749977478 577.0936563547883, 138.00166621703437 597.888744697011 C 134.4744007715795 607.4920283130126, 124.18729215228029 617.6833587211394, 120.81094873453551 627.3407373953715 C 114.35914887122223 645.794865634493, 112.63449284628577 672.3152153217857, 111.43884090317363 691.8280569132382 C 110.46418760742186 707.7342371993582, 112.60339905988614 744.9353343731577, 112.60339905988614 744.9353343731577" class="U6 UrbanRailwayService"></path><path d="M 72.20467636682748 609.8207882053011 C 72.20467636682748 609.8207882053011, 54.72477164062841 612.4733423933425, 47.1676265895018 612.7857232507415 C 39.38806403261475 613.1072979201793, 21.229728135099435 611.8710770910886, 21.229728135099435 611.8710770910886" class="U7 UrbanRailwayService"></path><path d="M 50.190224046870235 513.0830217073595 C 50.190224046870235 513.0830217073595, 25.04388743344088 493.54313267427716, 25.04388743344088 493.54313267427716" class="U2 UrbanRailwayService"></path><path d="M 301.228533333125 394.5727547590311 C 301.228533333125 394.5727547590311, 289.256143227052 365.39143942049225, 288.18886623304206 352.10762452557947 C 287.038316381498 337.7873577709697, 292.44076761294866 318.85062286462687, 294.7567411372364 304.67211548483306 C 297.42141027450646 288.35887587683237, 299.7094366897352 266.20043940028506, 304.95920295528833 250.52682455634363 C 311.1993220422395 231.89642880121104, 328.89173126015777 210.80708100612355, 334.04333595161023 191.84681462310039 C 337.8431272292674 177.8618411751562, 336.70897240000363 158.1333496468139, 337.44362788072044 143.6599886888983 C 337.8646584117649 135.3653158659806, 338.3012467802762 115.98877058307528, 338.3012467802762 115.98877058307528" class="U2 UrbanRailwayService"></path><path d="M 108.3813589689927 506.133333090972 C 108.3813589689927 506.133333090972, 83.5015887512855 488.16004483083526, 83.5015887512855 488.16004483083526" class="U2 UrbanRailwayService"></path><path d="M 276.34401448023146 454.02053444968925 C 276.34401448023146 454.02053444968925, 259.98246641686785 465.52886261631585, 253.36901964409307 470.97235846423837 C 242.36822226931554 480.0270612373755, 229.05753326853545 493.6551031755868, 218.34989766549324 503.0546630048146 C 208.48880884434695 511.71109265856177, 193.14592481578453 521.0190392580548, 184.8746191146549 531.2053216558322 C 171.28650749802384 547.9393594463374, 158.20502458916394 574.239366797622, 150.90325362876527 594.5211058483533 C 142.57020450440945 617.6673711521724, 140.44022384398187 650.9841313887002, 134.7171265670428 674.9097549496945 C 130.21923100962306 693.7133766104904, 121.93607717540817 718.1949194343833, 117.4716912007273 737.0065251573641 C 114.05111825271061 751.4198106594949, 107.89753136549312 785.4481635791786, 107.89753136549312 785.4481635791786" class="S26 SuburbanRailway"></path><path d="M 150.6165639464082 243.6623469149264 C 150.6165639464082 243.6623469149264, 112.56449569897381 271.10323286029234, 112.56449569897381 271.10323286029234" class="U9 UrbanRailwayService"></path><path d="M 683.0378043940334 536.6279484418118 C 683.0378043940334 536.6279484418118, 708.0678259124866 499.11334145302015, 714.1571741464423 480.9814626847807 C 722.571386344491 455.92697907773174, 727.1921243067751 420.1354643676828, 726.2849046847069 393.7213948537474 C 725.4158966618646 368.4198716446282, 722.7165895221038 332.38375603383884, 708.9605140325986 311.13069416566566 C 672.4887045187977 254.78194668805872, 589.2768869645446 206.94589319722138, 527.9982867742508 179.55415374489365 C 496.4003569193375 165.4297733065199, 415.2118486850744 155.27406625465895, 415.2118486850744 155.27406625465895" class="S42 SuburbanRailway"></path><path d="M 235.53087843647813 445.63012102809967 C 235.53087843647813 445.63012102809967, 212.3559070563039 458.0134762869006, 203.71177527713192 465.12786687985675 C 191.608679285531 475.0890931161069, 179.60467608550238 492.68329084371345, 168.35283807948613 503.59691087549174 C 157.4765638165854 514.146256200517, 139.20767703715998 524.4843012503877, 130.14231611877918 536.6251933118452 C 117.42954354311246 553.65092466801, 111.80817562233987 582.8917917450465, 100.955964805582 601.1597865764877 C 95.50489620324375 610.3358056139705, 86.20251916521747 621.2323799955868, 79.50070109947276 629.5389502202524 C 72.54444039126601 638.160889447333, 55.41852602651576 657.5333534335145, 55.41852602651576 657.5333534335145" class="S1 SuburbanRailway"></path><path d="M 808.2857357513637 494.58247504068356 C 808.2857357513637 494.58247504068356, 831.9972992573562 511.03632207086827, 841.1187023996061 519.3427501746784 C 851.0563689267042 528.3925105283927, 858.3082709329444 549.0530108694034, 871.3152434907439 552.440346598869 C 884.6646897000342 555.9168708947702, 902.3063568012915 543.4444103200699, 914.9391204008452 537.9030008321768 C 925.8233473408781 533.1285935571123, 949.6099319460525 518.7325677755632, 949.6099319460525 518.7325677755632" class="U5 UrbanRailwayService"></path><path d="M 340.44407979455275 451.8368802383947 C 340.44407979455275 451.8368802383947, 315.734164259713 478.2952675500956, 308.5068410484606 491.8464004346797 C 299.64737312761866 508.45778248759825, 293.03642935402945 533.173060226174, 289.58717979833636 551.6806495627409 C 285.41977051926915 574.0416583239281, 280.5793053052812 605.0161512260863, 284.8698231405556 627.3538652904739 C 290.1739758325987 654.9688643972506, 311.65537658315924 687.3062974856579, 324.9456262768501 712.0871666093819 C 335.63973767614283 732.0273017526821, 351.2673384666207 757.8996576115518, 363.90152768313243 776.6706530831547 C 372.0715485367431 788.8090991534099, 383.52620575895475 804.6739763945247, 393.1099672153163 815.7303153046922 C 402.9598523292193 827.093668675016, 428.5858149363249 851.1449728380984, 428.5858149363249 851.1449728380984" class="U8 UrbanRailwayService"></path><path d="M 803.9734965829482 560.8285572337231 C 803.9734965829482 560.8285572337231, 786.9513439545165 651.335810011242, 789.7555196575642 690.3142574946836 C 790.8722580223604 705.8370821371072, 793.0409445193164 728.3688697693221, 802.7407618787539 740.5392737333817 C 809.7153706983147 749.290346426803, 825.7206058665239 752.9663813587804, 835.8617820328436 757.6974475636763 C 849.8739734565909 764.2344216004344, 883.4323374286454 777.5321369831787, 883.4323374286454 777.5321369831787" class="S85 SuburbanRailway"></path><path d="M 273.0789635967312 453.34930137596206 C 273.0789635967312 453.34930137596206, 265.5463118425637 427.5779696149865, 260.559105986345 417.2604323692744 C 255.19097241693393 406.15483142976353, 244.39340579439718 393.39919155830574, 238.48956612491412 382.5688680449595 C 230.3193890759297 367.58105239352847, 218.04371336470214 347.6232157716441, 214.68723571851012 330.8864159334538 M 216.67882273459028 275.2070101388389 C 220.3979866568161 251.88009423111131, 237.70747116365118 223.1540761750029, 238.4733102746438 199.54495343605612 C 238.85677144447433 187.72369529684406, 239.1047142288668 168.62880749214239, 230.03882871208037 161.0328278805862 C 219.9052423871944 152.54226013921644, 186.00537030182142 159.28729067074494, 186.00537030182142 159.28729067074494" class="S25 SuburbanRailway"></path></svg>