<svg xmlns="http://www.w3.org/2000/svg" version="1.1" xmlns:xlink="http://www.w3.org/1999/xlink" xmlns:svgjs="http://svgjs.com/svgjs" width="1100" height="1400">
<style>
.grid {
  fill: none;
  stroke: lightgray;
  stroke-width: 1pt;
  stroke-dasharray: 10 10;
}
text {
  font-size: 10pt;
}
.Rail, .RailwayService, .SuburbanRailway, .UrbanRailwayService {
  stroke-width: 2pt;
}
.BusService, .TramService {
  stroke-width: 1pt;
}
.Rail, .RailwayService {
  stroke: red
}
.BusService {
  stroke:#a01c7d
}
.Ferry {
  stroke:#0099d6
}
.Connection {
  stroke-dasharray: 2 4;
}
.ire {
  stroke:#e2001a
}
.S1 {
  stroke:#eb588f
}
.S2 {
  stroke:#047939
}
.S25 {
  stroke:#047939
}
.S26 {
  stroke:#047939
}
.S3 {
  stroke:#026597
}
.S41 {
  stroke:#aa3c1f
}
.S42 {
  stroke:#ba622d
}
.S45 {
  stroke:#aa3c1f
}
.S46 {
  stroke:#ca8539
}
.S47 {
  stroke:#ca8539
}
.S5 {
  stroke:#ea561c
}
.S7 {
  stroke:#764d9a
}
.S75 {
  stroke:#764d9a
}
.S8 {
  stroke:#4fa433
}
.S85 {
  stroke:#4fa433
}
.S9 {
  stroke:#951732
}
.U1 {
  stroke:#7dad4c
}
.U2 {
  stroke:#da421e
}
.U3 {
  stroke:#2e937d
}
.U4 {
  stroke:#f0d722
}
.U5 {
  stroke:#7e5330
}
.U55 {
  stroke:#7e5330
}
.U6 {
  stroke:#8c6dab
}
.U7 {
  stroke:#528dba
}
.U8 {
  stroke:#224f86
}
.U9 {
  stroke:#f3791d
}
.M1 {
  stroke:#63b9ea
}
.M2 {
  stroke:#7ab829
}
.M4 {
  stroke:#ca1215
}
.M5 {
  stroke:#c8893b
}
.M6 {
  stroke:#025695
}
.M8 {
  stroke:#ee7100
}
.M10 {
  stroke:#007b3c
}
.T12 {
  stroke:#8870ab
}
.M13 {
  stroke:#00a092
}
.T16 {
  stroke:#027fab
}
.M17 {
  stroke:#a6432a
}
.T18 {
  stroke:#d6ad00
}
.T21 {
  stroke:#bd90c1
}
.T27 {
  stroke:#cb621a
}
.T37 {
  stroke:#825238
}
.T50 {
  stroke:#ea9000
}
.T60 {
  stroke:#039bd9
}
.T61 {
  stroke:#e30313
}
.T62 {
  stroke:#00512d
}
.T63 {
  stroke:#ef7200
}
.T67 {
  stroke:#dd6ca6
}
.T68 {
  stroke:#65b42f
}
</style>
<circle r="166.66666666666666" cx="500" cy="500" class="grid"></circle><circle r="333.3333333333333" cx="500" cy="500" class="grid"></circle><circle r="500" cx="500" cy="500" class="grid"></circle><circle r="3" cx="500" cy="500"></circle><text x="508.75" y="487.16670989990234"><tspan dy="17.33329" x="508.75">U Voltastr. (Berlin)</tspan></text><circle r="3" cx="450.7189272532802" cy="432.8001464780097"></circle><text x="459.4689272532802" y="419.96685637791205"><tspan dy="17.33329" x="459.4689272532802">S+U Gesundbrunnen Bhf (Berlin)</tspan></text><circle r="3" cx="552.1707001142707" cy="564.9820166971699"></circle><text x="560.9207001142707" y="552.1487265970723"><tspan dy="17.33329" x="560.9207001142707">U Bernauer Str. (Berlin)</tspan></text><circle r="3" cx="561.9410310962323" cy="588.8786801085992"></circle><text x="570.6910310962323" y="576.0453900085015"><tspan dy="17.33329" x="570.6910310962323">U Rosenthaler Platz (Berlin)</tspan></text><circle r="3" cx="418.9689564122666" cy="428.0967240927511"></circle><text x="427.7189564122666" y="415.26343399265346"><tspan dy="17.33329" x="427.7189564122666">U Pankstr. (Berlin)</tspan></text><circle r="3" cx="580.3013330008454" cy="606.4400004512642"></circle><text x="589.0513330008454" y="593.6067103511665"><tspan dy="17.33329" x="589.0513330008454">U Weinmeisterstr. (Berlin)</tspan></text><circle r="3" cx="392.96563253971857" cy="420.4926295230737"></circle><text x="401.71563253971857" y="407.659339422976"><tspan dy="17.33329" x="401.71563253971857">U Osloer Str. (Berlin)</tspan></text><circle r="3" cx="615.4284283204044" cy="620.2250211613999"></circle><text x="624.1784283204044" y="607.3917310613023"><tspan dy="17.33329" x="624.1784283204044">S+U Alexanderplatz (Berlin) [U8]</tspan></text><circle r="3" cx="365.9470082802785" cy="400.96680764122544"></circle><text x="374.6970082802785" y="388.1335175411278"><tspan dy="17.33329" x="374.6970082802785">U Franz-Neumann-Platz (Berlin)</tspan></text><circle r="3" cx="563.8222973444472" cy="329.91328053179825"></circle><text x="572.5722973444472" y="317.0799904317006"><tspan dy="17.33329" x="572.5722973444472">S Bornholmer Str. (Berlin)</tspan></text><circle r="3" cx="361.34344562029196" cy="380.06055261650494"></circle><text x="370.09344562029196" y="367.2272625164073"><tspan dy="17.33329" x="370.09344562029196">U Residenzstr. (Berlin)</tspan></text><circle r="3" cx="313.3172490375121" cy="464.6510185001361"></circle><text x="322.0672490375121" y="451.81772840003845"><tspan dy="17.33329" x="322.0672490375121">S Humboldthain (Berlin)</tspan></text><circle r="3" cx="633.2673659375585" cy="637.75311352988"></circle><text x="642.0173659375585" y="624.9198234297824"><tspan dy="17.33329" x="642.0173659375585">S+U Jannowitzbrücke (Berlin)</tspan></text><circle r="3" cx="311.93670157953244" cy="431.93976353836115"></circle><text x="320.68670157953244" y="419.1064734382635"><tspan dy="17.33329" x="320.68670157953244">U Nauener Platz (Berlin)</tspan></text><circle r="3" cx="328.95280653553607" cy="381.0645747234743"></circle><text x="337.70280653553607" y="368.23128462337667"><tspan dy="17.33329" x="337.70280653553607">U Paracelsus-Bad (Berlin)</tspan></text><circle r="3" cx="631.2589972313584" cy="672.3819018640376"></circle><text x="640.0089972313584" y="659.5486117639399"><tspan dy="17.33329" x="640.0089972313584">U Heinrich-Heine-Str. (Berlin)</tspan></text><circle r="3" cx="499.94243629727083" cy="283.3333409800562"></circle><text x="508.69243629727083" y="270.50005087995856"><tspan dy="17.33329" x="508.69243629727083">S Wollankstr. (Berlin)</tspan></text><circle r="3" cx="276.9203587772974" cy="470.6661684747752"></circle><text x="285.6703587772974" y="457.83287837467753"><tspan dy="17.33329" x="285.6703587772974">U Leopoldplatz (Berlin)</tspan></text><circle r="3" cx="300.075841278138" cy="379.68884006959206"></circle><text x="308.825841278138" y="366.8555499694944"><tspan dy="17.33329" x="308.825841278138">U Lindauer Allee (Berlin)</tspan></text><circle r="3" cx="405.26919789675844" cy="716.8805806059813"></circle><text x="414.01919789675844" y="704.0472905058837"><tspan dy="17.33329" x="414.01919789675844">S Nordbahnhof (Berlin)</tspan></text><circle r="3" cx="604.3909790119908" cy="717.9571088051405"></circle><text x="613.1409790119908" y="705.1238187050428"><tspan dy="17.33329" x="613.1409790119908">U Moritzplatz (Berlin)</tspan></text><circle r="3" cx="400.11404359129074" cy="274.4623309583034"></circle><text x="408.86404359129074" y="261.62904085820577"><tspan dy="17.33329" x="408.86404359129074">S Schönholz (Berlin)</tspan></text><circle r="3" cx="250.0046005775116" cy="498.4833366917845"></circle><text x="258.7546005775116" y="485.6500465916868"><tspan dy="17.33329" x="258.7546005775116">U Amrumer Str. (Berlin)</tspan></text><circle r="3" cx="284.25208559672376" cy="373.6954576009374"></circle><text x="293.00208559672376" y="360.86216750083975"><tspan dy="17.33329" x="293.00208559672376">S+U Karl-Bonhoeffer-Nervenklinik (Berlin)</tspan></text><circle r="3" cx="743.9020886261117" cy="420.0653458029739"></circle><text x="752.6520886261117" y="407.23205570287627"><tspan dy="17.33329" x="752.6520886261117">S+U Schönhauser Allee (Berlin)</tspan></text><circle r="3" cx="498.5361105782127" cy="769.9960315037255"></circle><text x="507.2861105782127" y="757.1627414036278"><tspan dy="17.33329" x="507.2861105782127">S Oranienburger Str. (Berlin)</tspan></text><circle r="3" cx="226.7506751961807" cy="530.9807439267826"></circle><text x="235.5006751961807" y="518.1474538266849"><tspan dy="17.33329" x="235.5006751961807">S+U Westhafen (Berlin)</tspan></text><circle r="3" cx="639.6746304085157" cy="736.8881542421329"></circle><text x="648.4246304085157" y="724.0548641420353"><tspan dy="17.33329" x="648.4246304085157">U Kottbusser Tor (Berlin)</tspan></text><circle r="3" cx="264.22863680339" cy="342.8706199522508"></circle><text x="272.97863680339" y="330.03732985215316"><tspan dy="17.33329" x="272.97863680339">U Rathaus Reinickendorf (Berlin)</tspan></text><circle r="3" cx="785.7185581878501" cy="476.70443637011823"></circle><text x="794.4685581878501" y="463.8711462700206"><tspan dy="17.33329" x="794.4685581878501">S Prenzlauer Allee (Berlin)</tspan></text><circle r="3" cx="695.4008269945506" cy="714.2860630322133"></circle><text x="704.1508269945506" y="701.4527729321156"><tspan dy="17.33329" x="704.1508269945506">S+U Alexanderplatz Bhf (Berlin)</tspan></text><circle r="3" cx="213.06918305515515" cy="552.3464490849991"></circle><text x="221.81918305515515" y="539.5131589849015"><tspan dy="17.33329" x="221.81918305515515">U Birkenstr. (Berlin)</tspan></text><circle r="3" cx="208.45418181782182" cy="491.6047427121759"></circle><text x="217.20418181782182" y="478.77145261207824"><tspan dy="17.33329" x="217.20418181782182">S+U Wedding (Berlin)</tspan></text><circle r="3" cx="319.4155304263494" cy="266.7313794167693"></circle><text x="328.1655304263494" y="253.89808931667164"><tspan dy="17.33329" x="328.1655304263494">S Wilhelmsruh (Berlin)</tspan></text><circle r="3" cx="656.8672645086198" cy="755.7198884044467"></circle><text x="665.6172645086198" y="742.886598304349"><tspan dy="17.33329" x="665.6172645086198">U Schönleinstr. (Berlin)</tspan></text><circle r="3" cx="417.80315391239617" cy="788.5198060675398"></circle><text x="426.55315391239617" y="775.6865159674421"><tspan dy="17.33329" x="426.55315391239617">S+U Friedrichstr. Bhf (Berlin)</tspan></text><circle r="3" cx="270.10248990152854" cy="294.53326474835967"></circle><text x="278.85248990152854" y="281.699974648262"><tspan dy="17.33329" x="278.85248990152854">S+U Wittenau (Berlin) [U8]</tspan></text><circle r="3" cx="192.82624356658724" cy="526.7156845884747"></circle><text x="201.57624356658724" y="513.882394488377"><tspan dy="17.33329" x="201.57624356658724">U Reinickendorfer Str. (Berlin)</tspan></text><circle r="3" cx="692.014943160167" cy="252.39539709251036"></circle><text x="700.764943160167" y="239.5621069924127"><tspan dy="17.33329" x="700.764943160167">S+U Pankow (Berlin)</tspan></text><circle r="3" cx="196.75062615853633" cy="591.2008500099532"></circle><text x="205.50062615853633" y="578.3675599098556"><tspan dy="17.33329" x="205.50062615853633">U Turmstr. (Berlin)</tspan></text><circle r="3" cx="757.2201294996526" cy="687.547103660102"></circle><text x="765.9701294996526" y="674.7138135600044"><tspan dy="17.33329" x="765.9701294996526">S Ostbahnhof (Berlin)</tspan></text><circle r="3" cx="819.8922978092412" cy="508.30167466983175"></circle><text x="828.6422978092412" y="495.4683845697341"><tspan dy="17.33329" x="828.6422978092412">S Greifswalder Str. (Berlin)</tspan></text><circle r="3" cx="642.1634477221592" cy="790.4031655753658"></circle><text x="650.9134477221592" y="777.5698754752682"><tspan dy="17.33329" x="650.9134477221592">S Hackescher Markt (Berlin)</tspan></text><circle r="3" cx="362.9745949823598" cy="802.0377727330299"></circle><text x="371.7245949823598" y="789.2044826329322"><tspan dy="17.33329" x="371.7245949823598">S+U Brandenburger Tor (Berlin)</tspan></text><circle r="3" cx="669.4670068834421" cy="787.0401447342837"></circle><text x="678.2170068834421" y="774.206854634186"><tspan dy="17.33329" x="678.2170068834421">U Hermannplatz (Berlin)</tspan></text><circle r="3" cx="189.88949141560894" cy="622.2398608336963"></circle><text x="198.63949141560894" y="609.4065707335986"><tspan dy="17.33329" x="198.63949141560894">U Schwartzkopffstr. (Berlin)</tspan></text><circle r="3" cx="188.95452761949826" cy="641.3747686919476"></circle><text x="197.70452761949826" y="628.5414785918499"><tspan dy="17.33329" x="197.70452761949826">U Hansaplatz (Berlin)</tspan></text><circle r="3" cx="244.73823422105178" cy="265.43826247831646"></circle><text x="253.48823422105178" y="252.6049723782188"><tspan dy="17.33329" x="253.48823422105178">S+U Wittenau (Berlin)</tspan></text><circle r="3" cx="248.38213338076525" cy="743.2867633020444"></circle><text x="257.13213338076525" y="730.4534732019467"><tspan dy="17.33329" x="257.13213338076525">U Naturkundemuseum (Berlin)</tspan></text><circle r="3" cx="670.1421781125349" cy="815.3639437299391"></circle><text x="678.8921781125349" y="802.5306536298415"><tspan dy="17.33329" x="678.8921781125349">U Boddinstr. (Berlin)</tspan></text><circle r="3" cx="731.5052433986378" cy="773.510694592945"></circle><text x="740.2552433986378" y="760.6774044928474"><tspan dy="17.33329" x="740.2552433986378">U Görlitzer Bahnhof (Berlin)</tspan></text><circle r="3" cx="804.861817205063" cy="691.4661129558615"></circle><text x="813.611817205063" y="678.6328228557638"><tspan dy="17.33329" x="813.611817205063">S+U Warschauer Str. (Berlin)</tspan></text><circle r="3" cx="852.748094314945" cy="571.8942414743672"></circle><text x="861.498094314945" y="559.0609513742695"><tspan dy="17.33329" x="861.498094314945">S Landsberger Allee (Berlin)</tspan></text><circle r="3" cx="329.89397959250664" cy="822.9379844817353"></circle><text x="338.64397959250664" y="810.1046943816376"><tspan dy="17.33329" x="338.64397959250664">S+U Potsdamer Platz Bhf (Berlin)</tspan></text><circle r="3" cx="173.306272830743" cy="684.1092301549792"></circle><text x="182.056272830743" y="671.2759400548815"><tspan dy="17.33329" x="182.056272830743">S+U Zoologischer Garten Bhf (Berlin)</tspan></text><circle r="3" cx="378.8267139698656" cy="854.8831283009368"></circle><text x="387.5767139698656" y="842.0498382008392"><tspan dy="17.33329" x="387.5767139698656">U Oranienburger Tor (Berlin)</tspan></text><circle r="3" cx="678.1433256370328" cy="839.4251021586686"></circle><text x="686.8933256370328" y="826.5918120585709"><tspan dy="17.33329" x="686.8933256370328">U Leinestr. (Berlin)</tspan></text><circle r="3" cx="209.49310867833975" cy="247.3525260474091"></circle><text x="218.24310867833975" y="234.51923594731144"><tspan dy="17.33329" x="218.24310867833975">S Waidmannslust (Berlin)</tspan></text><circle r="3" cx="780.5615550613765" cy="229.10294608183318"></circle><text x="789.3115550613765" y="216.26965598173553"><tspan dy="17.33329" x="789.3115550613765">S Pankow-Heinersdorf (Berlin)</tspan></text><circle r="3" cx="803.525346012105" cy="747.538162928486"></circle><text x="812.275346012105" y="734.7048728283884"><tspan dy="17.33329" x="812.275346012105">U Schlesisches Tor (Berlin)</tspan></text><circle r="3" cx="883.8650022274046" cy="593.1271177743339"></circle><text x="892.6150022274046" y="580.2938276742362"><tspan dy="17.33329" x="892.6150022274046">S Storkower Str. (Berlin)</tspan></text><circle r="3" cx="856.811677635958" cy="677.0730672548979"></circle><text x="865.561677635958" y="664.2397771548002"><tspan dy="17.33329" x="865.561677635958">S Ostkreuz Bhf (Berlin)</tspan></text><circle r="3" cx="157.24168832577183" cy="706.1958772095909"></circle><text x="165.99168832577183" y="693.3625871094932"><tspan dy="17.33329" x="165.99168832577183">U Kurfürstendamm (Berlin)</tspan></text><circle r="3" cx="687.4109725695135" cy="853.3795797164136"></circle><text x="696.1609725695135" y="840.5462896163159"><tspan dy="17.33329" x="696.1609725695135">S+U Hermannstr. (Berlin)</tspan></text><circle r="3" cx="620.1855624028815" cy="881.5172743007885"></circle><text x="628.9355624028815" y="868.6839842006908"><tspan dy="17.33329" x="628.9355624028815">U Prinzenstr. (Berlin)</tspan></text><circle r="3" cx="383.4769349465989" cy="882.6517676825247"></circle><text x="392.2269349465989" y="869.818477582427"><tspan dy="17.33329" x="392.2269349465989">S Anhalter Bahnhof (Berlin)</tspan></text><circle r="3" cx="162.56529403571247" cy="717.8851310252857"></circle><text x="171.31529403571247" y="705.051840925188"><tspan dy="17.33329" x="171.31529403571247">S+U Berlin Hauptbahnhof</tspan></text><circle r="3" cx="611.3533740597549" cy="892.8568914969158"></circle><text x="620.1033740597549" y="880.0236013968181"><tspan dy="17.33329" x="620.1033740597549">U Südstern (Berlin)</tspan></text><circle r="3" cx="178.47025249955624" cy="240.2634682668891"></circle><text x="187.22025249955624" y="227.43017816679145"><tspan dy="17.33329" x="187.22025249955624">S Alt-Reinickendorf (Berlin)</tspan></text><circle r="3" cx="159.5461769042992" cy="740.2130417996333"></circle><text x="168.2961769042992" y="727.3797516995356"><tspan dy="17.33329" x="168.2961769042992">U Spichernstr. (Berlin)</tspan></text><circle r="3" cx="438.4312294168656" cy="912.092705104073"></circle><text x="447.1812294168656" y="899.2594150039754"><tspan dy="17.33329" x="447.1812294168656">U Französische Str. (Berlin)</tspan></text><circle r="3" cx="178.91448404636301" cy="224.1101622823018"></circle><text x="187.66448404636301" y="211.27687218220413"><tspan dy="17.33329" x="187.66448404636301">S Hermsdorf (Berlin)</tspan></text><circle r="3" cx="906.1208140385947" cy="636.1445145757756"></circle><text x="914.8708140385947" y="623.3112244756779"><tspan dy="17.33329" x="914.8708140385947">S+U Frankfurter Allee (Berlin)</tspan></text><circle r="3" cx="811.5059141087386" cy="201.1686485885555"></circle><text x="820.2559141087386" y="188.33535848845784"><tspan dy="17.33329" x="820.2559141087386">S Blankenburg (Berlin)</tspan></text><circle r="3" cx="159.0577434301706" cy="767.462437480201"></circle><text x="167.8077434301706" y="754.6291473801033"><tspan dy="17.33329" x="167.8077434301706">U Güntzelstr. (Berlin)</tspan></text><circle r="3" cx="519.5817867150581" cy="932.8906691149899"></circle><text x="528.3317867150581" y="920.0573790148923"><tspan dy="17.33329" x="528.3317867150581">U Gneisenaustr. (Berlin)</tspan></text><circle r="3" cx="75.22428737880472" cy="414.3065244902886"></circle><text x="83.97428737880472" y="401.47323439019095"><tspan dy="17.33329" x="83.97428737880472">U Seestr. (Berlin)</tspan></text><circle r="3" cx="833.4582861436444" cy="223.26303250212277"></circle><text x="842.2082861436444" y="210.4297424020251"><tspan dy="17.33329" x="842.2082861436444">U Vinetastr. (Berlin)</tspan></text><circle r="3" cx="485.9531379075459" cy="933.1056031075256"></circle><text x="494.7031379075459" y="920.2723130074279"><tspan dy="17.33329" x="494.7031379075459">U Hallesches Tor (Berlin)</tspan></text><circle r="3" cx="903.9387033586485" cy="665.8653119452996"></circle><text x="912.6887033586485" y="653.0320218452019"><tspan dy="17.33329" x="912.6887033586485">S Nöldnerplatz (Berlin)</tspan></text><circle r="3" cx="449.08327915320297" cy="938.7219301364519"></circle><text x="457.83327915320297" y="925.8886400363542"><tspan dy="17.33329" x="457.83327915320297">U Stadtmitte (Berlin)</tspan></text><circle r="3" cx="322.97493197639784" cy="908.2733462904957"></circle><text x="331.72493197639784" y="895.4400561903981"><tspan dy="17.33329" x="331.72493197639784">S+U Yorckstr. S2 S25 S26 U7 (Berlin)</tspan></text><circle r="3" cx="94.87350077556323" cy="688.1053713673896"></circle><text x="103.62350077556323" y="675.2720812672919"><tspan dy="17.33329" x="103.62350077556323">S Bellevue (Berlin)</tspan></text><circle r="3" cx="759.1960940896882" cy="867.8551138813344"></circle><text x="767.9460940896882" y="855.0218237812368"><tspan dy="17.33329" x="767.9460940896882">U Rathaus Neukölln (Berlin)</tspan></text><circle r="3" cx="109.01969142129292" cy="722.7877875999917"></circle><text x="117.76969142129292" y="709.954497499894"><tspan dy="17.33329" x="117.76969142129292">U Uhlandstr. (Berlin)</tspan></text><circle r="3" cx="153.21919569472493" cy="799.6873674512007"></circle><text x="161.96919569472493" y="786.854077351103"><tspan dy="17.33329" x="161.96919569472493">U Berliner Str. (Berlin)</tspan></text><circle r="3" cx="469.4458592556865" cy="957.3137751345581"></circle><text x="478.1958592556865" y="944.4804850344605"><tspan dy="17.33329" x="478.1958592556865">U Kochstr./Checkpoint Charlie (Berlin)</tspan></text><circle r="3" cx="394.44077935108265" cy="946.0119901756427"></circle><text x="403.19077935108265" y="933.1787000755451"><tspan dy="17.33329" x="403.19077935108265">U Möckernbrücke (Berlin)</tspan></text><circle r="3" cx="450.56273641987485" cy="964.0406606618509"></circle><text x="459.31273641987485" y="951.2073705617532"><tspan dy="17.33329" x="459.31273641987485">U Mehringdamm (Berlin)</tspan></text><circle r="3" cx="50.043539816279846" cy="376.238286547438"></circle><text x="58.793539816279846" y="363.40499644734035"><tspan dy="17.33329" x="58.793539816279846">U Rehberge (Berlin)</tspan></text><circle r="3" cx="951.580962133067" cy="630.2867400734752"></circle><text x="960.330962133067" y="617.4534499733776"><tspan dy="17.33329" x="960.330962133067">S+U Lichtenberg Bhf (Berlin)</tspan></text><circle r="3" cx="142.82640154289567" cy="194.50528553638907"></circle><text x="151.57640154289567" y="181.6719954362914"><tspan dy="17.33329" x="151.57640154289567">S Frohnau (Berlin)</tspan></text><circle r="3" cx="780.6543885417013" cy="883.220712112855"></circle><text x="789.4043885417013" y="870.3874220127574"><tspan dy="17.33329" x="789.4043885417013">U Karl-Marx-Str. (Berlin)</tspan></text><circle r="3" cx="65.46237190491522" cy="707.7975638627064"></circle><text x="74.21237190491522" y="694.9642737626087"><tspan dy="17.33329" x="74.21237190491522">S Tiergarten (Berlin)</tspan></text><circle r="3" cx="155.08000202404105" cy="838.5872208270353"></circle><text x="163.83000202404105" y="825.7539307269376"><tspan dy="17.33329" x="163.83000202404105">S+U Bundesplatz (Berlin)</tspan></text><circle r="3" cx="298.7967945629822" cy="939.4637427968095"></circle><text x="307.5467945629822" y="926.6304526967118"><tspan dy="17.33329" x="307.5467945629822">U Gleisdreieck (Berlin)</tspan></text><circle r="3" cx="308.4751718992311" cy="949.207841277749"></circle><text x="317.2251718992311" y="936.3745511776514"><tspan dy="17.33329" x="317.2251718992311">S Südkreuz Bhf (Berlin)</tspan></text><circle r="3" cx="30.22278036755921" cy="354.9294136445139"></circle><text x="38.97278036755921" y="342.09612354441623"><tspan dy="17.33329" x="38.97278036755921">U Afrikanische Str. (Berlin)</tspan></text><circle r="3" cx="46.44042504012042" cy="689.7888908058753"></circle><text x="55.19042504012042" y="676.9556007057777"><tspan dy="17.33329" x="55.19042504012042">U Ernst-Reuter-Platz (Berlin)</tspan></text><circle r="3" cx="864.3364486328213" cy="160.0072599176055"></circle><text x="873.0864486328213" y="147.17396981750784"><tspan dy="17.33329" x="873.0864486328213">S Karow Bhf (Berlin)</tspan></text><line x1="558.3333333333334" y1="500" x2="450.7189272532802" y2="432.8001464780097" class="U8 UrbanRailwayService"></line><line x1="558.3333333333334" y1="500" x2="552.1707001142707" y2="564.9820166971699" class="U8 UrbanRailwayService"></line><line x1="552.1707001142707" y1="564.9820166971699" x2="562.6048401371248" y2="577.978420036604" class="null Transfer"></line><line x1="450.7189272532802" y1="432.8001464780097" x2="440.86271270393615" y2="419.3601757736116" class="null Transfer"></line><line x1="552.1707001142707" y1="564.9820166971699" x2="561.9410310962323" y2="588.8786801085992" class="U8 UrbanRailwayService"></line><line x1="450.7189272532802" y1="432.8001464780097" x2="418.9689564122666" y2="428.0967240927511" class="U8 UrbanRailwayService"></line><line x1="561.9410310962323" y1="588.8786801085992" x2="580.3013330008454" y2="606.4400004512642" class="U8 UrbanRailwayService"></line><line x1="418.9689564122666" y1="428.0967240927511" x2="392.96563253971857" y2="420.4926295230737" class="U8 UrbanRailwayService"></line><line x1="392.96563253971857" y1="420.4926295230737" x2="379.5863366071834" y2="410.55420821345785" class="null Transfer"></line><line x1="561.9410310962323" y1="588.8786801085992" x2="590.5291992944934" y2="629.8996093894909" class="null Transfer"></line><line x1="418.9689564122666" y1="428.0967240927511" x2="381.5700132179281" y2="394.9105967509439" class="null Transfer"></line><line x1="580.3013330008454" y1="606.4400004512642" x2="615.4284283204044" y2="620.2250211613999" class="U8 UrbanRailwayService"></line><line x1="392.96563253971857" y1="420.4926295230737" x2="365.9470082802785" y2="400.96680764122544" class="U8 UrbanRailwayService"></line><line x1="414.2509334207075" y1="383.0722548717369" x2="563.8222973444472" y2="329.91328053179825" class="S1 SuburbanRailway"></line><line x1="563.8222973444472" y1="329.91328053179825" x2="563.8222973444472" y2="329.91328053179825" class="null Transfer"></line><line x1="615.4284283204044" y1="620.2250211613999" x2="626.9712711524447" y2="632.2475232775398" class="null Transfer"></line><line x1="580.3013330008454" y1="606.4400004512642" x2="610.4143328761625" y2="646.3550006204882" class="null Transfer"></line><line x1="365.9470082802785" y1="400.96680764122544" x2="361.34344562029196" y2="380.06055261650494" class="U8 UrbanRailwayService"></line><line x1="404.3947188713636" y1="369.63228416733887" x2="313.3172490375121" y2="464.6510185001361" class="S2 SuburbanRailway"></line><line x1="313.3172490375121" y1="464.6510185001361" x2="313.3172490375121" y2="464.6510185001361" class="null Transfer"></line><line x1="615.4284283204044" y1="620.2250211613999" x2="633.2673659375585" y2="637.75311352988" class="U8 UrbanRailwayService"></line><line x1="352.827744742113" y1="390.6773655942263" x2="311.93670157953244" y2="431.93976353836115" class="U9 UrbanRailwayService"></line><line x1="633.2673659375585" y1="637.75311352988" x2="644.8558325408245" y2="649.7316451411739" class="null Transfer"></line><line x1="361.34344562029196" y1="380.06055261650494" x2="328.95280653553607" y2="381.0645747234743" class="U8 UrbanRailwayService"></line><line x1="311.93670157953244" y1="431.93976353836115" x2="296.2647600444935" y2="426.2680771665579" class="null Transfer"></line><line x1="633.2673659375585" y1="637.75311352988" x2="631.2589972313584" y2="672.3819018640376" class="U8 UrbanRailwayService"></line><line x1="365.9470082802785" y1="400.96680764122544" x2="325.73111076436203" y2="371.25684993359306" class="null Transfer"></line><line x1="563.8222973444472" y1="329.91328053179825" x2="499.94243629727083" y2="283.3333409800562" class="S1 SuburbanRailway"></line><line x1="499.94243629727083" y1="283.3333409800562" x2="499.94243629727083" y2="283.3333409800562" class="null Transfer"></line><line x1="311.93670157953244" y1="431.93976353836115" x2="276.9203587772974" y2="470.6661684747752" class="U9 UrbanRailwayService"></line><line x1="328.95280653553607" y1="381.0645747234743" x2="315.26903105837897" y2="371.5497407013523" class="null Transfer"></line><line x1="631.2589972313584" y1="672.3819018640376" x2="641.3558431722322" y2="685.6420481612713" class="null Transfer"></line><line x1="361.34344562029196" y1="380.06055261650494" x2="323.52802169855346" y2="347.3497942391881" class="null Transfer"></line><line x1="328.95280653553607" y1="381.0645747234743" x2="300.075841278138" y2="379.68884006959206" class="U8 UrbanRailwayService"></line><line x1="313.3172490375121" y1="464.6510185001361" x2="405.26919789675844" y2="716.8805806059813" class="S2 SuburbanRailway"></line><line x1="405.26919789675844" y1="716.8805806059813" x2="405.26919789675844" y2="716.8805806059813" class="null Transfer"></line><line x1="276.9203587772974" y1="470.6661684747752" x2="260.395940908949" y2="468.4932920654993" class="null Transfer"></line><line x1="631.2589972313584" y1="672.3819018640376" x2="604.3909790119908" y2="717.9571088051405" class="U8 UrbanRailwayService"></line><line x1="499.94243629727083" y1="283.3333409800562" x2="400.11404359129074" y2="274.4623309583034" class="S1 SuburbanRailway"></line><line x1="400.11404359129074" y1="274.4623309583034" x2="400.11404359129074" y2="274.4623309583034" class="null Transfer"></line><line x1="276.9203587772974" y1="470.6661684747752" x2="250.0046005775116" y2="498.4833366917845" class="U9 UrbanRailwayService"></line><line x1="300.075841278138" y1="379.68884006959206" x2="284.25208559672376" y2="373.6954576009374" class="U8 UrbanRailwayService"></line><line x1="570.8486053089734" y1="311.1881371041063" x2="743.9020886261117" y2="420.0653458029739" class="S8 SuburbanRailway"></line><line x1="405.26919789675844" y1="716.8805806059813" x2="498.5361105782127" y2="769.9960315037255" class="S2 SuburbanRailway"></line><line x1="498.5361105782127" y1="769.9960315037255" x2="498.5361105782127" y2="769.9960315037255" class="null Transfer"></line><line x1="743.9020886261117" y1="420.0653458029739" x2="759.7398865888463" y2="414.87478384212807" class="null Transfer"></line><line x1="250.0046005775116" y1="498.4833366917845" x2="226.7506751961807" y2="530.9807439267826" class="U9 UrbanRailwayService"></line><line x1="604.3909790119908" y1="717.9571088051405" x2="639.6746304085157" y2="736.8881542421329" class="U8 UrbanRailwayService"></line><line x1="639.6746304085157" y1="736.8881542421329" x2="639.6746304085157" y2="736.8881542421329" class="null Transfer"></line><line x1="300.075841278138" y1="379.68884006959206" x2="257.2349501234533" y2="353.90787722736184" class="null Transfer"></line><line x1="284.25208559672376" y1="373.6954576009374" x2="255.4856970096203" y2="356.8548519477291" class="null Transfer"></line><line x1="284.25208559672376" y1="373.6954576009374" x2="264.22863680339" y2="342.8706199522508" class="U8 UrbanRailwayService"></line><line x1="743.9020886261117" y1="420.0653458029739" x2="785.7185581878501" y2="476.70443637011823" class="S8 SuburbanRailway"></line><line x1="785.7185581878501" y1="476.70443637011823" x2="785.7185581878501" y2="476.70443637011823" class="null Transfer"></line><line x1="678.4623856902956" y1="684.4693868139262" x2="695.4008269945506" y2="714.2860630322133" class="S5 SuburbanRailway"></line><line x1="695.4008269945506" y1="714.2860630322133" x2="695.4008269945506" y2="714.2860630322133" class="null Transfer"></line><line x1="226.7506751961807" y1="530.9807439267826" x2="213.06918305515515" y2="552.3464490849991" class="U9 UrbanRailwayService"></line><line x1="226.7506751961807" y1="530.9807439267826" x2="210.1901100565553" y2="532.85836477083" class="null Transfer"></line><line x1="604.3909790119908" y1="717.9571088051405" x2="625.9891126006786" y2="763.0516830406868" class="null Transfer"></line><line x1="227.34710517225233" y1="464.1475392469475" x2="208.45418181782182" y2="491.6047427121759" class="U6 UrbanRailwayService"></line><line x1="400.11404359129074" y1="274.4623309583034" x2="319.4155304263494" y2="266.7313794167693" class="S1 SuburbanRailway"></line><line x1="319.4155304263494" y1="266.7313794167693" x2="319.4155304263494" y2="266.7313794167693" class="null Transfer"></line><line x1="250.0046005775116" y1="498.4833366917845" x2="200.00552069301392" y2="498.1800040301414" class="null Transfer"></line><line x1="639.6746304085157" y1="736.8881542421329" x2="656.8672645086198" y2="755.7198884044467" class="U8 UrbanRailwayService"></line><line x1="498.5361105782127" y1="769.9960315037255" x2="417.80315391239617" y2="788.5198060675398" class="S2 SuburbanRailway"></line><line x1="417.80315391239617" y1="788.5198060675398" x2="417.80315391239617" y2="788.5198060675398" class="null Transfer"></line><line x1="264.22863680339" y1="342.8706199522508" x2="270.10248990152854" y2="294.53326474835967" class="U8 UrbanRailwayService"></line><line x1="208.45418181782182" y1="491.6047427121759" x2="192.82624356658724" y2="526.7156845884747" class="U6 UrbanRailwayService"></line><line x1="208.45418181782182" y1="491.6047427121759" x2="191.79442077884025" y2="491.12501372430023" class="null Transfer"></line><line x1="583.1446442468945" y1="278.4191361056455" x2="692.014943160167" y2="252.39539709251036" class="S85 SuburbanRailway"></line><line x1="692.014943160167" y1="252.39539709251036" x2="692.014943160167" y2="252.39539709251036" class="null Transfer"></line><line x1="213.06918305515515" y1="552.3464490849991" x2="196.75062615853633" y2="591.2008500099532" class="U9 UrbanRailwayService"></line><line x1="656.8672645086198" y1="755.7198884044467" x2="665.5821125368765" y2="769.9265488713605" class="null Transfer"></line><line x1="695.8450855951945" y1="702.437184230867" x2="757.2201294996526" y2="687.547103660102" class="S7 SuburbanRailway"></line><line x1="757.2201294996526" y1="687.547103660102" x2="757.2201294996526" y2="687.547103660102" class="null Transfer"></line><line x1="785.7185581878501" y1="476.70443637011823" x2="819.8922978092412" y2="508.30167466983175" class="S8 SuburbanRailway"></line><line x1="819.8922978092412" y1="508.30167466983175" x2="819.8922978092412" y2="508.30167466983175" class="null Transfer"></line><line x1="695.4008269945506" y1="714.2860630322133" x2="642.1634477221592" y2="790.4031655753658" class="S5 SuburbanRailway"></line><line x1="642.1634477221592" y1="790.4031655753658" x2="642.1634477221592" y2="790.4031655753658" class="null Transfer"></line><line x1="270.10248990152854" y1="294.53326474835967" x2="257.67559746377333" y2="283.4269547347575" class="null Transfer"></line><line x1="417.80315391239617" y1="788.5198060675398" x2="362.9745949823598" y2="802.0377727330299" class="S2 SuburbanRailway"></line><line x1="362.9745949823598" y1="802.0377727330299" x2="362.9745949823598" y2="802.0377727330299" class="null Transfer"></line><line x1="196.75062615853633" y1="591.2008500099532" x2="180.79013279845935" y2="596.0008947473193" class="null Transfer"></line><line x1="656.8672645086198" y1="755.7198884044467" x2="669.4670068834421" y2="787.0401447342837" class="U8 UrbanRailwayService"></line><line x1="669.4670068834421" y1="787.0401447342837" x2="669.4670068834421" y2="787.0401447342837" class="null Transfer"></line><line x1="264.22863680339" y1="342.8706199522508" x2="222.62192565104704" y2="315.14190582617744" class="null Transfer"></line><line x1="192.82624356658724" y1="526.7156845884747" x2="189.88949141560894" y2="622.2398608336963" class="U6 UrbanRailwayService"></line><line x1="196.75062615853633" y1="591.2008500099532" x2="188.95452761949826" y2="641.3747686919476" class="U9 UrbanRailwayService"></line><line x1="213.06918305515515" y1="552.3464490849991" x2="163.88104300746747" y2="561.3201260709989" class="null Transfer"></line><line x1="319.4155304263494" y1="266.7313794167693" x2="244.73823422105178" y2="265.43826247831646" class="S1 SuburbanRailway"></line><line x1="244.73823422105178" y1="265.43826247831646" x2="244.73823422105178" y2="265.43826247831646" class="null Transfer"></line><line x1="189.88949141560894" y1="622.2398608336963" x2="248.38213338076525" y2="743.2867633020444" class="U6 UrbanRailwayService"></line><line x1="189.88949141560894" y1="622.2398608336963" x2="174.38396598638946" y2="628.3518538753812" class="null Transfer"></line><line x1="669.4670068834421" y1="787.0401447342837" x2="670.1421781125349" y2="815.3639437299391" class="U8 UrbanRailwayService"></line><line x1="192.82624356658724" y1="526.7156845884747" x2="143.01428306387166" y2="531.0479577649842" class="null Transfer"></line><line x1="669.3025823133522" y1="787.1371566571308" x2="731.5052433986378" y2="773.510694592945" class="U3 UrbanRailwayService"></line><line x1="757.2201294996526" y1="687.547103660102" x2="804.861817205063" y2="691.4661129558615" class="S7 SuburbanRailway"></line><line x1="804.861817205063" y1="691.4661129558615" x2="804.861817205063" y2="691.4661129558615" class="null Transfer"></line><line x1="819.8922978092412" y1="508.30167466983175" x2="852.748094314945" y2="571.8942414743672" class="S8 SuburbanRailway"></line><line x1="852.748094314945" y1="571.8942414743672" x2="852.748094314945" y2="571.8942414743672" class="null Transfer"></line><line x1="362.9745949823598" y1="802.0377727330299" x2="329.89397959250664" y2="822.9379844817353" class="S2 SuburbanRailway"></line><line x1="329.89397959250664" y1="822.9379844817353" x2="329.89397959250664" y2="822.9379844817353" class="null Transfer"></line><line x1="248.38213338076525" y1="743.2867633020444" x2="236.4003302084207" y2="754.8718472688084" class="null Transfer"></line><line x1="188.95452761949826" y1="641.3747686919476" x2="173.306272830743" y2="684.1092301549792" class="U9 UrbanRailwayService"></line><line x1="670.1421781125349" y1="815.3639437299391" x2="678.0557677921878" y2="830.0320341359828" class="null Transfer"></line><line x1="248.38213338076525" y1="743.2867633020444" x2="378.8267139698656" y2="854.8831283009368" class="U6 UrbanRailwayService"></line><line x1="670.1421781125349" y1="815.3639437299391" x2="678.1433256370328" y2="839.4251021586686" class="U8 UrbanRailwayService"></line><line x1="244.73823422105178" y1="265.43826247831646" x2="209.49310867833975" y2="247.3525260474091" class="S1 SuburbanRailway"></line><line x1="209.49310867833975" y1="247.3525260474091" x2="209.49310867833975" y2="247.3525260474091" class="null Transfer"></line><line x1="264.1902093105416" y1="455.34865494754035" x2="340.3293243006278" y2="282.2724745887514" class="S2 SuburbanRailway"></line><line x1="340.3293243006278" y1="282.2724745887514" x2="607.7367221227365" y2="212.88113410872373" class="S2 SuburbanRailway"></line><line x1="607.7367221227365" y1="212.88113410872373" x2="711.4207086923116" y2="227.37152764973217" class="S2 SuburbanRailway"></line><line x1="711.4207086923116" y1="227.37152764973217" x2="780.5615550613765" y2="229.10294608183318" class="S2 SuburbanRailway"></line><line x1="780.5615550613765" y1="229.10294608183318" x2="780.5615550613765" y2="229.10294608183318" class="null Transfer"></line><line x1="173.306272830743" y1="684.1092301549792" x2="158.78655162322048" y2="692.2918626063115" class="null Transfer"></line><line x1="188.95452761949826" y1="641.3747686919476" x2="143.43567800283952" y2="662.0637592322325" class="null Transfer"></line><line x1="731.5052433986378" y1="773.510694592945" x2="803.525346012105" y2="747.538162928486" class="U3 UrbanRailwayService"></line><line x1="852.748094314945" y1="571.8942414743672" x2="883.8650022274046" y2="593.1271177743339" class="S8 SuburbanRailway"></line><line x1="883.8650022274046" y1="593.1271177743339" x2="883.8650022274046" y2="593.1271177743339" class="null Transfer"></line><line x1="804.861817205063" y1="691.4661129558615" x2="856.811677635958" y2="677.0730672548979" class="S7 SuburbanRailway"></line><line x1="173.306272830743" y1="684.1092301549792" x2="157.24168832577183" y2="706.1958772095909" class="U9 UrbanRailwayService"></line><line x1="157.24168832577183" y1="706.1958772095909" x2="157.24168832577183" y2="706.1958772095909" class="null Transfer"></line><line x1="678.1433256370328" y1="839.4251021586686" x2="687.4109725695135" y2="853.3795797164136" class="U8 UrbanRailwayService"></line><line x1="686.2328405446875" y1="815.8508723228439" x2="620.1855624028815" y2="881.5172743007885" class="U1 UrbanRailwayService"></line><line x1="329.89397959250664" y1="822.9379844817353" x2="383.4769349465989" y2="882.6517676825247" class="S2 SuburbanRailway"></line><line x1="383.4769349465989" y1="882.6517676825247" x2="383.4769349465989" y2="882.6517676825247" class="null Transfer"></line><line x1="642.1634477221592" y1="790.4031655753658" x2="402.27708298473766" y2="843.0179916580751" class="S5 SuburbanRailway"></line><line x1="402.27708298473766" y1="843.0179916580751" x2="162.56529403571247" y2="717.8851310252857" class="S5 SuburbanRailway"></line><line x1="162.56529403571247" y1="717.8851310252857" x2="162.56529403571247" y2="717.8851310252857" class="null Transfer"></line><line x1="690.6503827438723" y1="822.920162826069" x2="611.3533740597549" y2="892.8568914969158" class="U7 UrbanRailwayService"></line><line x1="378.8267139698656" y1="854.8831283009368" x2="368.0557552116314" y2="886.42829526102" class="null Transfer"></line><line x1="731.5052433986378" y1="773.510694592945" x2="763.8083006170524" y2="811.6749775594024" class="null Transfer"></line><line x1="176.37812839508567" y1="310.5431864014061" x2="178.47025249955624" y2="240.2634682668891" class="S25 SuburbanRailway"></line><line x1="856.811677635958" y1="677.0730672548979" x2="871.7410365328601" y2="684.4819822028015" class="null Transfer"></line><line x1="157.24168832577183" y1="706.1958772095909" x2="159.5461769042992" y2="740.2130417996333" class="U9 UrbanRailwayService"></line><line x1="687.4109725695135" y1="853.3795797164136" x2="695.2197630932433" y2="868.103728871264" class="null Transfer"></line><line x1="378.8267139698656" y1="854.8831283009368" x2="390.4042052165283" y2="884.6930747567197" class="U6 UrbanRailwayService"></line><line x1="390.4042052165283" y1="884.6930747567197" x2="438.4312294168656" y2="912.092705104073" class="U6 UrbanRailwayService"></line><line x1="209.49310867833975" y1="247.3525260474091" x2="178.91448404636301" y2="224.1101622823018" class="S1 SuburbanRailway"></line><line x1="178.91448404636301" y1="224.1101622823018" x2="178.91448404636301" y2="224.1101622823018" class="null Transfer"></line><line x1="611.3533740597549" y1="892.8568914969158" x2="615.8984097356632" y2="908.8918666600551" class="null Transfer"></line><line x1="803.525346012105" y1="747.538162928486" x2="859.9063119781995" y2="726.0363833506698" class="U3 UrbanRailwayService"></line><line x1="883.8650022274046" y1="593.1271177743339" x2="906.1208140385947" y2="636.1445145757756" class="S8 SuburbanRailway"></line><line x1="906.1208140385947" y1="636.1445145757756" x2="906.1208140385947" y2="636.1445145757756" class="null Transfer"></line><line x1="780.5615550613765" y1="229.10294608183318" x2="811.5059141087386" y2="201.1686485885555" class="S2 SuburbanRailway"></line><line x1="811.5059141087386" y1="201.1686485885555" x2="811.5059141087386" y2="201.1686485885555" class="null Transfer"></line><line x1="159.5461769042992" y1="740.2130417996333" x2="159.0577434301706" y2="767.462437480201" class="U9 UrbanRailwayService"></line><line x1="159.5461769042992" y1="740.2130417996333" x2="145.92802398047115" y2="749.8215634716187" class="null Transfer"></line><line x1="678.1433256370328" y1="839.4251021586686" x2="701.3794115896893" y2="883.6979415706687" class="null Transfer"></line><line x1="611.3533740597549" y1="892.8568914969158" x2="519.5817867150581" y2="932.8906691149899" class="U7 UrbanRailwayService"></line><line x1="438.4312294168656" y1="912.092705104073" x2="435.9684785935403" y2="928.5764133082359" class="null Transfer"></line><line x1="141.81513766189542" y1="489.68582676067325" x2="119.9383890279881" y2="450.02384258665404" class="U6 UrbanRailwayService"></line><line x1="119.9383890279881" y1="450.02384258665404" x2="75.22428737880472" y2="414.3065244902886" class="U6 UrbanRailwayService"></line><line x1="750.2322397566006" y1="177.32378876417576" x2="833.4582861436444" y2="223.26303250212277" class="U2 UrbanRailwayService"></line><line x1="620.1855624028815" y1="881.5172743007885" x2="485.9531379075459" y2="933.1056031075256" class="U1 UrbanRailwayService"></line><line x1="856.811677635958" y1="677.0730672548979" x2="903.9387033586485" y2="665.8653119452996" class="S7 SuburbanRailway"></line><line x1="438.4312294168656" y1="912.092705104073" x2="449.08327915320297" y2="938.7219301364519" class="U6 UrbanRailwayService"></line><line x1="803.525346012105" y1="747.538162928486" x2="842.2732625242887" y2="779.1387794725481" class="null Transfer"></line><line x1="383.4769349465989" y1="882.6517676825247" x2="322.97493197639784" y2="908.2733462904957" class="S2 SuburbanRailway"></line><line x1="322.97493197639784" y1="908.2733462904957" x2="322.97493197639784" y2="908.2733462904957" class="null Transfer"></line><line x1="162.56529403571247" y1="717.8851310252857" x2="94.87350077556323" y2="688.1053713673896" class="S5 SuburbanRailway"></line><line x1="94.87350077556323" y1="688.1053713673896" x2="94.87350077556323" y2="688.1053713673896" class="null Transfer"></line><line x1="159.0577434301706" y1="767.462437480201" x2="145.9445797159464" y2="777.7494543063625" class="null Transfer"></line><line x1="716.0704337763888" y1="865.9761845362115" x2="759.1960940896882" y2="867.8551138813344" class="U7 UrbanRailwayService"></line><line x1="833.4582861436444" y1="223.26303250212277" x2="846.2836048414769" y2="212.61930298297366" class="null Transfer"></line><line x1="128.67849568625283" y1="723.3788669770568" x2="109.01969142129292" y2="722.7877875999917" class="U1 UrbanRailwayService"></line><line x1="620.1855624028815" y1="881.5172743007885" x2="635.2087577032416" y2="929.2069335883871" class="null Transfer"></line><line x1="903.9387033586485" y1="665.8653119452996" x2="919.356211120429" y2="672.1960490424484" class="null Transfer"></line><line x1="159.0577434301706" y1="767.462437480201" x2="153.21919569472493" y2="799.6873674512007" class="U9 UrbanRailwayService"></line><line x1="449.08327915320297" y1="938.7219301364519" x2="469.4458592556865" y2="957.3137751345581" class="U6 UrbanRailwayService"></line><line x1="449.08327915320297" y1="938.7219301364519" x2="447.161893460871" y2="955.2774746699029" class="null Transfer"></line><line x1="485.9531379075459" y1="933.1056031075256" x2="394.44077935108265" y2="946.0119901756427" class="U1 UrbanRailwayService"></line><line x1="519.5817867150581" y1="932.8906691149899" x2="450.56273641987485" y2="964.0406606618509" class="U7 UrbanRailwayService"></line><line x1="450.56273641987485" y1="964.0406606618509" x2="450.56273641987485" y2="964.0406606618509" class="null Transfer"></line><line x1="75.22428737880472" y1="414.3065244902886" x2="50.043539816279846" y2="376.238286547438" class="U6 UrbanRailwayService"></line><line x1="109.01969142129292" y1="722.7877875999917" x2="94.5389392517112" y2="731.0391871407321" class="null Transfer"></line><line x1="903.9387033586485" y1="665.8653119452996" x2="951.580962133067" y2="630.2867400734752" class="S7 SuburbanRailway"></line><line x1="951.580962133067" y1="630.2867400734752" x2="951.580962133067" y2="630.2867400734752" class="null Transfer"></line><line x1="178.91448404636301" y1="224.1101622823018" x2="142.82640154289567" y2="194.50528553638907" class="S1 SuburbanRailway"></line><line x1="142.82640154289567" y1="194.50528553638907" x2="142.82640154289567" y2="194.50528553638907" class="null Transfer"></line><line x1="153.21919569472493" y1="799.6873674512007" x2="140.60898462907855" y2="810.5850899039715" class="null Transfer"></line><line x1="759.1960940896882" y1="867.8551138813344" x2="780.6543885417013" y2="883.220712112855" class="U7 UrbanRailwayService"></line><line x1="469.4458592556865" y1="957.3137751345581" x2="468.3347995922569" y2="973.943366957633" class="null Transfer"></line><line x1="485.9531379075459" y1="933.1056031075256" x2="484.6024780909638" y2="974.7503726370952" class="null Transfer"></line><line x1="94.87350077556323" y1="688.1053713673896" x2="65.46237190491522" y2="707.7975638627064" class="S5 SuburbanRailway"></line><line x1="65.46237190491522" y1="707.7975638627064" x2="65.46237190491522" y2="707.7975638627064" class="null Transfer"></line><line x1="153.21919569472493" y1="799.6873674512007" x2="155.08000202404105" y2="838.5872208270353" class="U9 UrbanRailwayService"></line><line x1="519.5817867150581" y1="932.8906691149899" x2="521.8412236437186" y2="982.8395924744119" class="null Transfer"></line><line x1="469.4458592556865" y1="957.3137751345581" x2="484.3323461276474" y2="983.0793265430091" class="U6 UrbanRailwayService"></line><line x1="75.22428737880472" y1="414.3065244902886" x2="26.211705153282196" y2="404.4188157776296" class="null Transfer"></line><line x1="394.44077935108265" y1="946.0119901756427" x2="298.7967945629822" y2="939.4637427968095" class="U1 UrbanRailwayService"></line><line x1="298.7967945629822" y1="939.4637427968095" x2="298.7967945629822" y2="939.4637427968095" class="null Transfer"></line><line x1="322.97493197639784" y1="908.2733462904957" x2="308.4751718992311" y2="949.207841277749" class="S2 SuburbanRailway"></line><line x1="308.4751718992311" y1="949.207841277749" x2="308.4751718992311" y2="949.207841277749" class="null Transfer"></line><line x1="450.56273641987485" y1="964.0406606618509" x2="386.7637451220705" y2="978.4492258247803" class="U7 UrbanRailwayService"></line><line x1="50.043539816279846" y1="376.238286547438" x2="30.22278036755921" y2="354.9294136445139" class="U6 UrbanRailwayService"></line><line x1="93.4478061893691" y1="729.1137086373074" x2="46.44042504012042" y2="689.7888908058753" class="U2 UrbanRailwayService"></line><line x1="394.44077935108265" y1="946.0119901756427" x2="386.7637451220705" y2="978.4492258247803" class="null Transfer"></line><line x1="811.5059141087386" y1="201.1686485885555" x2="864.3364486328213" y2="160.0072599176055" class="S2 SuburbanRailway"></line></svg>