<svg xmlns="http://www.w3.org/2000/svg" version="1.1" xmlns:xlink="http://www.w3.org/1999/xlink" xmlns:svgjs="http://svgjs.com/svgjs" width="1100" height="1400">
<style>
    .grid {
      fill: none;
      stroke: lightgray;
      stroke-width: 1pt;
      stroke-dasharray: 10 10;
    }
    text {
      font-size: 10pt;
    }
    .Rail, .RailwayService, .SuburbanRailway, .UrbanRailwayService {
      stroke-width: 2pt;
    }
    .BusService, .TramService {
      stroke-width: 1pt;
    }
    .Rail, .RailwayService {
      stroke: red
    }
    .BusService {
      stroke:#a01c7d
    }
    .Ferry {
      stroke:#0099d6
    }
    .Connection {
      stroke-dasharray: 2 4;
    }
    .ire {
      stroke:#e2001a
    }
    .S1 {
      stroke:#eb588f
    }
    .S2 {
      stroke:#047939
    }
    .S25 {
      stroke:#047939
    }
    .S26 {
      stroke:#047939
    }
    .S3 {
      stroke:#026597
    }
    .S41 {
      stroke:#aa3c1f
    }
    .S42 {
      stroke:#ba622d
    }
    .S45 {
      stroke:#aa3c1f
    }
    .S46 {
      stroke:#ca8539
    }
    .S47 {
      stroke:#ca8539
    }
    .S5 {
      stroke:#ea561c
    }
    .S7 {
      stroke:#764d9a
    }
    .S75 {
      stroke:#764d9a
    }
    .S8 {
      stroke:#4fa433
    }
    .S85 {
      stroke:#4fa433
    }
    .S9 {
      stroke:#951732
    }
    .U1 {
      stroke:#7dad4c
    }
    .U2 {
      stroke:#da421e
    }
    .U3 {
      stroke:#2e937d
    }
    .U4 {
      stroke:#f0d722
    }
    .U5 {
      stroke:#7e5330
    }
    .U55 {
      stroke:#7e5330
    }
    .U6 {
      stroke:#8c6dab
    }
    .U7 {
      stroke:#528dba
    }
    .U8 {
      stroke:#224f86
    }
    .U9 {
      stroke:#f3791d
    }
    .M1 {
      stroke:#63b9ea
    }
    .M2 {
      stroke:#7ab829
    }
    .M4 {
      stroke:#ca1215
    }
    .M5 {
      stroke:#c8893b
    }
    .M6 {
      stroke:#025695
    }
    .M8 {
      stroke:#ee7100
    }
    .M10 {
      stroke:#007b3c
    }
    .T12 {
      stroke:#8870ab
    }
    .M13 {
      stroke:#00a092
    }
    .T16 {
      stroke:#027fab
    }
    .M17 {
      stroke:#a6432a
    }
    .T18 {
      stroke:#d6ad00
    }
    .T21 {
      stroke:#bd90c1
    }
    .T27 {
      stroke:#cb621a
    }
    .T37 {
      stroke:#825238
    }
    .T50 {
      stroke:#ea9000
    }
    .T60 {
      stroke:#039bd9
    }
    .T61 {
      stroke:#e30313
    }
    .T62 {
      stroke:#00512d
    }
    .T63 {
      stroke:#ef7200
    }
    .T67 {
      stroke:#dd6ca6
    }
    .T68 {
      stroke:#65b42f
    }
  </style>
  <circle r="166.66666666666666" cx="500" cy="500" class="grid"></circle><circle r="333.3333333333333" cx="500" cy="500" class="grid"></circle><circle r="500" cx="500" cy="500" class="grid"></circle><circle r="3" cx="500" cy="500"></circle><text x="508.6666666865349" y="486.6667103767395"><tspan dy="17.33329" x="508.6666666865349">U Voltastr. (Berlin)</tspan></text><circle r="3" cx="450.7189272532802" cy="432.8001464780097"></circle><text x="459.38559393981507" y="419.4668568547492"><tspan dy="17.33329" x="459.38559393981507">S+U Gesundbrunnen Bhf (Berlin)</tspan></text><circle r="3" cx="552.1707001142707" cy="564.9820166971699"></circle><text x="560.8373668008056" y="551.6487270739094"><tspan dy="17.33329" x="560.8373668008056">U Bernauer Str. (Berlin)</tspan></text><circle r="3" cx="561.9410310962323" cy="588.8786801085992"></circle><text x="570.6076977827672" y="575.5453904853387"><tspan dy="17.33329" x="570.6076977827672">U Rosenthaler Platz (Berlin)</tspan></text><circle r="3" cx="418.9689564122666" cy="428.0967240927511"></circle><text x="427.6356230988015" y="414.7634344694906"><tspan dy="17.33329" x="427.6356230988015">U Pankstr. (Berlin)</tspan></text><circle r="3" cx="580.3013330008454" cy="606.4400004512642"></circle><text x="588.9679996873803" y="593.1067108280037"><tspan dy="17.33329" x="588.9679996873803">U Weinmeisterstr. (Berlin)</tspan></text><circle r="3" cx="392.96563253971857" cy="420.4926295230737"></circle><text x="401.63229922625345" y="407.1593398998132"><tspan dy="17.33329" x="401.63229922625345">U Osloer Str. (Berlin)</tspan></text><circle r="3" cx="615.4284283204044" cy="620.2250211613999"></circle><text x="624.0950950069392" y="606.8917315381394"><tspan dy="17.33329" x="624.0950950069392">S+U Alexanderplatz (Berlin) [U8]</tspan></text><circle r="3" cx="365.9470082802785" cy="400.96680764122544"></circle><text x="374.6136749668134" y="387.63351801796495"><tspan dy="17.33329" x="374.6136749668134">U Franz-Neumann-Platz (Berlin)</tspan></text><circle r="3" cx="563.8222973444472" cy="329.91328053179825"></circle><text x="572.4889640309821" y="316.57999090853775"><tspan dy="17.33329" x="572.4889640309821">S Bornholmer Str. (Berlin)</tspan></text><circle r="3" cx="361.34344562029196" cy="380.06055261650494"></circle><text x="370.01011230682684" y="366.72726299324444"><tspan dy="17.33329" x="370.01011230682684">U Residenzstr. (Berlin)</tspan></text><circle r="3" cx="313.3172490375121" cy="464.6510185001361"></circle><text x="321.983915724047" y="451.3177288768756"><tspan dy="17.33329" x="321.983915724047">S Humboldthain (Berlin)</tspan></text><circle r="3" cx="633.2673659375585" cy="637.75311352988"></circle><text x="641.9340326240933" y="624.4198239066195"><tspan dy="17.33329" x="641.9340326240933">S+U Jannowitzbrücke (Berlin)</tspan></text><circle r="3" cx="311.93670157953244" cy="431.93976353836115"></circle><text x="320.6033682660673" y="418.60647391510065"><tspan dy="17.33329" x="320.6033682660673">U Nauener Platz (Berlin)</tspan></text><circle r="3" cx="328.95280653553607" cy="381.0645747234743"></circle><text x="337.61947322207095" y="367.7312851002138"><tspan dy="17.33329" x="337.61947322207095">U Paracelsus-Bad (Berlin)</tspan></text><circle r="3" cx="631.2589972313584" cy="672.3819018640376"></circle><text x="639.9256639178933" y="659.0486122407771"><tspan dy="17.33329" x="639.9256639178933">U Heinrich-Heine-Str. (Berlin)</tspan></text><circle r="3" cx="499.94243629727083" cy="283.3333409800562"></circle><text x="508.6091029838057" y="270.0000513567957"><tspan dy="17.33329" x="508.6091029838057">S Wollankstr. (Berlin)</tspan></text><circle r="3" cx="276.9203587772974" cy="470.6661684747752"></circle><text x="285.5870254638323" y="457.3328788515147"><tspan dy="17.33329" x="285.5870254638323">U Leopoldplatz (Berlin)</tspan></text><circle r="3" cx="300.075841278138" cy="379.68884006959206"></circle><text x="308.7425079646729" y="366.35555044633156"><tspan dy="17.33329" x="308.7425079646729">U Lindauer Allee (Berlin)</tspan></text><circle r="3" cx="405.26919789675844" cy="716.8805806059813"></circle><text x="413.9358645832933" y="703.5472909827208"><tspan dy="17.33329" x="413.9358645832933">S Nordbahnhof (Berlin)</tspan></text><circle r="3" cx="604.3909790119908" cy="717.9571088051405"></circle><text x="613.0576456985257" y="704.62381918188"><tspan dy="17.33329" x="613.0576456985257">U Moritzplatz (Berlin)</tspan></text><circle r="3" cx="400.11404359129074" cy="274.4623309583034"></circle><text x="408.7807102778256" y="261.1290413350429"><tspan dy="17.33329" x="408.7807102778256">S Schönholz (Berlin)</tspan></text><circle r="3" cx="250.0046005775116" cy="498.4833366917845"></circle><text x="258.6712672640465" y="485.150047068524"><tspan dy="17.33329" x="258.6712672640465">U Amrumer Str. (Berlin)</tspan></text><circle r="3" cx="284.25208559672376" cy="373.6954576009374"></circle><text x="292.91875228325864" y="360.3621679776769"><tspan dy="17.33329" x="292.91875228325864">S+U Karl-Bonhoeffer-Nervenklinik (Berlin)</tspan></text><circle r="3" cx="743.9020886261117" cy="420.0653458029739"></circle><text x="752.5687553126465" y="406.7320561797134"><tspan dy="17.33329" x="752.5687553126465">S+U Schönhauser Allee (Berlin)</tspan></text><circle r="3" cx="498.5361105782127" cy="769.9960315037255"></circle><text x="507.20277726474757" y="756.662741880465"><tspan dy="17.33329" x="507.20277726474757">S Oranienburger Str. (Berlin)</tspan></text><circle r="3" cx="226.7506751961807" cy="530.9807439267826"></circle><text x="235.4173418827156" y="517.6474543035221"><tspan dy="17.33329" x="235.4173418827156">S+U Westhafen (Berlin)</tspan></text><circle r="3" cx="639.6746304085157" cy="736.8881542421329"></circle><text x="648.3412970950505" y="723.5548646188724"><tspan dy="17.33329" x="648.3412970950505">U Kottbusser Tor (Berlin)</tspan></text><circle r="3" cx="264.22863680339" cy="342.8706199522508"></circle><text x="272.89530348992486" y="329.5373303289903"><tspan dy="17.33329" x="272.89530348992486">U Rathaus Reinickendorf (Berlin)</tspan></text><circle r="3" cx="785.7185581878501" cy="476.70443637011823"></circle><text x="794.385224874385" y="463.37114674685773"><tspan dy="17.33329" x="794.385224874385">S Prenzlauer Allee (Berlin)</tspan></text><circle r="3" cx="695.4008269945506" cy="714.2860630322133"></circle><text x="704.0674936810855" y="700.9527734089528"><tspan dy="17.33329" x="704.0674936810855">S+U Alexanderplatz Bhf (Berlin)</tspan></text><circle r="3" cx="213.06918305515515" cy="552.3464490849991"></circle><text x="221.73584974169003" y="539.0131594617386"><tspan dy="17.33329" x="221.73584974169003">U Birkenstr. (Berlin)</tspan></text><circle r="3" cx="208.45418181782182" cy="491.6047427121759"></circle><text x="217.1208485043567" y="478.2714530889154"><tspan dy="17.33329" x="217.1208485043567">S+U Wedding (Berlin)</tspan></text><circle r="3" cx="319.4155304263494" cy="266.7313794167693"></circle><text x="328.0821971128843" y="253.3980897935088"><tspan dy="17.33329" x="328.0821971128843">S Wilhelmsruh (Berlin)</tspan></text><circle r="3" cx="656.8672645086198" cy="755.7198884044467"></circle><text x="665.5339311951547" y="742.3865987811862"><tspan dy="17.33329" x="665.5339311951547">U Schönleinstr. (Berlin)</tspan></text><circle r="3" cx="417.80315391239617" cy="788.5198060675398"></circle><text x="426.46982059893105" y="775.1865164442793"><tspan dy="17.33329" x="426.46982059893105">S+U Friedrichstr. Bhf (Berlin)</tspan></text><circle r="3" cx="270.10248990152854" cy="294.53326474835967"></circle><text x="278.7691565880634" y="281.1999751250992"><tspan dy="17.33329" x="278.7691565880634">S+U Wittenau (Berlin) [U8]</tspan></text><circle r="3" cx="192.82624356658724" cy="526.7156845884747"></circle><text x="201.49291025312212" y="513.3823949652142"><tspan dy="17.33329" x="201.49291025312212">U Reinickendorfer Str. (Berlin)</tspan></text><circle r="3" cx="692.014943160167" cy="252.39539709251036"></circle><text x="700.6816098467019" y="239.06210746924987"><tspan dy="17.33329" x="700.6816098467019">S+U Pankow (Berlin)</tspan></text><circle r="3" cx="196.75062615853633" cy="591.2008500099532"></circle><text x="205.41729284507122" y="577.8675603866927"><tspan dy="17.33329" x="205.41729284507122">U Turmstr. (Berlin)</tspan></text><circle r="3" cx="757.2201294996526" cy="687.547103660102"></circle><text x="765.8867961861874" y="674.2138140368415"><tspan dy="17.33329" x="765.8867961861874">S Ostbahnhof (Berlin)</tspan></text><circle r="3" cx="819.8922978092412" cy="508.30167466983175"></circle><text x="828.5589644957761" y="494.96838504657126"><tspan dy="17.33329" x="828.5589644957761">S Greifswalder Str. (Berlin)</tspan></text><circle r="3" cx="642.1634477221592" cy="790.4031655753658"></circle><text x="650.830114408694" y="777.0698759521053"><tspan dy="17.33329" x="650.830114408694">S Hackescher Markt (Berlin)</tspan></text><circle r="3" cx="362.9745949823598" cy="802.0377727330299"></circle><text x="371.6412616688947" y="788.7044831097694"><tspan dy="17.33329" x="371.6412616688947">S+U Brandenburger Tor (Berlin)</tspan></text><circle r="3" cx="669.4670068834421" cy="787.0401447342837"></circle><text x="678.133673569977" y="773.7068551110232"><tspan dy="17.33329" x="678.133673569977">U Hermannplatz (Berlin)</tspan></text><circle r="3" cx="189.88949141560894" cy="622.2398608336963"></circle><text x="198.55615810214383" y="608.9065712104358"><tspan dy="17.33329" x="198.55615810214383">U Schwartzkopffstr. (Berlin)</tspan></text><circle r="3" cx="188.95452761949826" cy="641.3747686919476"></circle><text x="197.62119430603315" y="628.0414790686871"><tspan dy="17.33329" x="197.62119430603315">U Hansaplatz (Berlin)</tspan></text><circle r="3" cx="244.73823422105178" cy="265.43826247831646"></circle><text x="253.40490090758666" y="252.10497285505596"><tspan dy="17.33329" x="253.40490090758666">S+U Wittenau (Berlin)</tspan></text><circle r="3" cx="248.38213338076525" cy="743.2867633020444"></circle><text x="257.04880006730014" y="729.9534736787839"><tspan dy="17.33329" x="257.04880006730014">U Naturkundemuseum (Berlin)</tspan></text><circle r="3" cx="670.1421781125349" cy="815.3639437299391"></circle><text x="678.8088447990698" y="802.0306541066786"><tspan dy="17.33329" x="678.8088447990698">U Boddinstr. (Berlin)</tspan></text><circle r="3" cx="731.5052433986378" cy="773.510694592945"></circle><text x="740.1719100851727" y="760.1774049696845"><tspan dy="17.33329" x="740.1719100851727">U Görlitzer Bahnhof (Berlin)</tspan></text><circle r="3" cx="804.861817205063" cy="691.4661129558615"></circle><text x="813.5284838915978" y="678.132823332601"><tspan dy="17.33329" x="813.5284838915978">S+U Warschauer Str. (Berlin)</tspan></text><circle r="3" cx="852.748094314945" cy="571.8942414743672"></circle><text x="861.4147610014799" y="558.5609518511067"><tspan dy="17.33329" x="861.4147610014799">S Landsberger Allee (Berlin)</tspan></text><circle r="3" cx="329.89397959250664" cy="822.9379844817353"></circle><text x="338.5606462790415" y="809.6046948584748"><tspan dy="17.33329" x="338.5606462790415">S+U Potsdamer Platz Bhf (Berlin)</tspan></text><circle r="3" cx="173.306272830743" cy="684.1092301549792"></circle><text x="181.9729395172779" y="670.7759405317187"><tspan dy="17.33329" x="181.9729395172779">S+U Zoologischer Garten Bhf (Berlin)</tspan></text><circle r="3" cx="378.8267139698656" cy="854.8831283009368"></circle><text x="387.49338065640046" y="841.5498386776763"><tspan dy="17.33329" x="387.49338065640046">U Oranienburger Tor (Berlin)</tspan></text><circle r="3" cx="678.1433256370328" cy="839.4251021586686"></circle><text x="686.8099923235677" y="826.091812535408"><tspan dy="17.33329" x="686.8099923235677">U Leinestr. (Berlin)</tspan></text><circle r="3" cx="209.49310867833975" cy="247.3525260474091"></circle><text x="218.15977536487463" y="234.0192364241486"><tspan dy="17.33329" x="218.15977536487463">S Waidmannslust (Berlin)</tspan></text><circle r="3" cx="780.5615550613765" cy="229.10294608183318"></circle><text x="789.2282217479113" y="215.76965645857268"><tspan dy="17.33329" x="789.2282217479113">S Pankow-Heinersdorf (Berlin)</tspan></text><circle r="3" cx="803.525346012105" cy="747.538162928486"></circle><text x="812.1920126986399" y="734.2048733052255"><tspan dy="17.33329" x="812.1920126986399">U Schlesisches Tor (Berlin)</tspan></text><circle r="3" cx="883.8650022274046" cy="593.1271177743339"></circle><text x="892.5316689139395" y="579.7938281510734"><tspan dy="17.33329" x="892.5316689139395">S Storkower Str. (Berlin)</tspan></text><circle r="3" cx="856.811677635958" cy="677.0730672548979"></circle><text x="865.4783443224928" y="663.7397776316374"><tspan dy="17.33329" x="865.4783443224928">S Ostkreuz Bhf (Berlin)</tspan></text><circle r="3" cx="157.24168832577183" cy="706.1958772095909"></circle><text x="165.9083550123067" y="692.8625875863304"><tspan dy="17.33329" x="165.9083550123067">U Kurfürstendamm (Berlin)</tspan></text><circle r="3" cx="687.4109725695135" cy="853.3795797164136"></circle><text x="696.0776392560484" y="840.0462900931531"><tspan dy="17.33329" x="696.0776392560484">S+U Hermannstr. (Berlin)</tspan></text><circle r="3" cx="620.1855624028815" cy="881.5172743007885"></circle><text x="628.8522290894164" y="868.183984677528"><tspan dy="17.33329" x="628.8522290894164">U Prinzenstr. (Berlin)</tspan></text><circle r="3" cx="383.4769349465989" cy="882.6517676825247"></circle><text x="392.14360163313376" y="869.3184780592642"><tspan dy="17.33329" x="392.14360163313376">S Anhalter Bahnhof (Berlin)</tspan></text><circle r="3" cx="162.56529403571247" cy="717.8851310252857"></circle><text x="171.23196072224735" y="704.5518414020252"><tspan dy="17.33329" x="171.23196072224735">S+U Berlin Hauptbahnhof</tspan></text><circle r="3" cx="611.3533740597549" cy="892.8568914969158"></circle><text x="620.0200407462897" y="879.5236018736553"><tspan dy="17.33329" x="620.0200407462897">U Südstern (Berlin)</tspan></text><circle r="3" cx="178.47025249955624" cy="240.2634682668891"></circle><text x="187.13691918609112" y="226.9301786436286"><tspan dy="17.33329" x="187.13691918609112">S Alt-Reinickendorf (Berlin)</tspan></text><circle r="3" cx="159.5461769042992" cy="740.2130417996333"></circle><text x="168.21284359083407" y="726.8797521763728"><tspan dy="17.33329" x="168.21284359083407">U Spichernstr. (Berlin)</tspan></text><circle r="3" cx="438.4312294168656" cy="912.092705104073"></circle><text x="447.0978961034005" y="898.7594154808125"><tspan dy="17.33329" x="447.0978961034005">U Französische Str. (Berlin)</tspan></text><circle r="3" cx="178.91448404636301" cy="224.1101622823018"></circle><text x="187.5811507328979" y="210.7768726590413"><tspan dy="17.33329" x="187.5811507328979">S Hermsdorf (Berlin)</tspan></text><circle r="3" cx="906.1208140385947" cy="636.1445145757756"></circle><text x="914.7874807251296" y="622.8112249525151"><tspan dy="17.33329" x="914.7874807251296">S+U Frankfurter Allee (Berlin)</tspan></text><circle r="3" cx="811.5059141087386" cy="201.1686485885555"></circle><text x="820.1725807952735" y="187.835358965295"><tspan dy="17.33329" x="820.1725807952735">S Blankenburg (Berlin)</tspan></text><circle r="3" cx="159.0577434301706" cy="767.462437480201"></circle><text x="167.72441011670549" y="754.1291478569404"><tspan dy="17.33329" x="167.72441011670549">U Güntzelstr. (Berlin)</tspan></text><circle r="3" cx="519.5817867150581" cy="932.8906691149899"></circle><text x="528.248453401593" y="919.5573794917294"><tspan dy="17.33329" x="528.248453401593">U Gneisenaustr. (Berlin)</tspan></text><circle r="3" cx="75.22428737880472" cy="414.3065244902886"></circle><text x="83.8909540653396" y="400.9732348670281"><tspan dy="17.33329" x="83.8909540653396">U Seestr. (Berlin)</tspan></text><circle r="3" cx="833.4582861436444" cy="223.26303250212277"></circle><text x="842.1249528301793" y="209.92974287886227"><tspan dy="17.33329" x="842.1249528301793">U Vinetastr. (Berlin)</tspan></text><circle r="3" cx="485.9531379075459" cy="933.1056031075256"></circle><text x="494.6198045940808" y="919.772313484265"><tspan dy="17.33329" x="494.6198045940808">U Hallesches Tor (Berlin)</tspan></text><circle r="3" cx="903.9387033586485" cy="665.8653119452996"></circle><text x="912.6053700451833" y="652.5320223220391"><tspan dy="17.33329" x="912.6053700451833">S Nöldnerplatz (Berlin)</tspan></text><circle r="3" cx="449.08327915320297" cy="938.7219301364519"></circle><text x="457.74994583973785" y="925.3886405131914"><tspan dy="17.33329" x="457.74994583973785">U Stadtmitte (Berlin)</tspan></text><circle r="3" cx="322.97493197639784" cy="908.2733462904957"></circle><text x="331.6415986629327" y="894.9400566672352"><tspan dy="17.33329" x="331.6415986629327">S+U Yorckstr. S2 S25 S26 U7 (Berlin)</tspan></text><circle r="3" cx="94.87350077556323" cy="688.1053713673896"></circle><text x="103.54016746209811" y="674.7720817441291"><tspan dy="17.33329" x="103.54016746209811">S Bellevue (Berlin)</tspan></text><circle r="3" cx="759.1960940896882" cy="867.8551138813344"></circle><text x="767.8627607762231" y="854.5218242580739"><tspan dy="17.33329" x="767.8627607762231">U Rathaus Neukölln (Berlin)</tspan></text><circle r="3" cx="109.01969142129292" cy="722.7877875999917"></circle><text x="117.6863581078278" y="709.4544979767312"><tspan dy="17.33329" x="117.6863581078278">U Uhlandstr. (Berlin)</tspan></text><circle r="3" cx="153.21919569472493" cy="799.6873674512007"></circle><text x="161.8858623812598" y="786.3540778279402"><tspan dy="17.33329" x="161.8858623812598">U Berliner Str. (Berlin)</tspan></text><circle r="3" cx="469.4458592556865" cy="957.3137751345581"></circle><text x="478.1125259422214" y="943.9804855112976"><tspan dy="17.33329" x="478.1125259422214">U Kochstr./Checkpoint Charlie (Berlin)</tspan></text><circle r="3" cx="394.44077935108265" cy="946.0119901756427"></circle><text x="403.10744603761754" y="932.6787005523822"><tspan dy="17.33329" x="403.10744603761754">U Möckernbrücke (Berlin)</tspan></text><circle r="3" cx="450.56273641987485" cy="964.0406606618509"></circle><text x="459.22940310640973" y="950.7073710385904"><tspan dy="17.33329" x="459.22940310640973">U Mehringdamm (Berlin)</tspan></text><circle r="3" cx="50.043539816279846" cy="376.238286547438"></circle><text x="58.71020650281473" y="362.9049969241775"><tspan dy="17.33329" x="58.71020650281473">U Rehberge (Berlin)</tspan></text><circle r="3" cx="951.580962133067" cy="630.2867400734752"></circle><text x="960.2476288196019" y="616.9534504502147"><tspan dy="17.33329" x="960.2476288196019">S+U Lichtenberg Bhf (Berlin)</tspan></text><circle r="3" cx="142.82640154289567" cy="194.50528553638907"></circle><text x="151.49306822943055" y="181.17199591312857"><tspan dy="17.33329" x="151.49306822943055">S Frohnau (Berlin)</tspan></text><circle r="3" cx="780.6543885417013" cy="883.220712112855"></circle><text x="789.3210552282362" y="869.8874224895945"><tspan dy="17.33329" x="789.3210552282362">U Karl-Marx-Str. (Berlin)</tspan></text><circle r="3" cx="65.46237190491522" cy="707.7975638627064"></circle><text x="74.1290385914501" y="694.4642742394459"><tspan dy="17.33329" x="74.1290385914501">S Tiergarten (Berlin)</tspan></text><circle r="3" cx="155.08000202404105" cy="838.5872208270353"></circle><text x="163.74666871057593" y="825.2539312037748"><tspan dy="17.33329" x="163.74666871057593">S+U Bundesplatz (Berlin)</tspan></text><circle r="3" cx="298.7967945629822" cy="939.4637427968095"></circle><text x="307.4634612495171" y="926.130453173549"><tspan dy="17.33329" x="307.4634612495171">U Gleisdreieck (Berlin)</tspan></text><circle r="3" cx="308.4751718992311" cy="949.207841277749"></circle><text x="317.141838585766" y="935.8745516544885"><tspan dy="17.33329" x="317.141838585766">S Südkreuz Bhf (Berlin)</tspan></text><circle r="3" cx="30.22278036755921" cy="354.9294136445139"></circle><text x="38.88944705409409" y="341.5961240212534"><tspan dy="17.33329" x="38.88944705409409">U Afrikanische Str. (Berlin)</tspan></text><circle r="3" cx="46.44042504012042" cy="689.7888908058753"></circle><text x="55.1070917266553" y="676.4556011826148"><tspan dy="17.33329" x="55.1070917266553">U Ernst-Reuter-Platz (Berlin)</tspan></text><circle r="3" cx="864.3364486328213" cy="160.0072599176055"></circle><text x="873.0031153193562" y="146.673970294345"><tspan dy="17.33329" x="873.0031153193562">S Karow Bhf (Berlin)</tspan></text><line x1="811.5059141087386" y1="201.1686485885555" x2="864.3364486328213" y2="160.0072599176055" class="S2 SuburbanRailway"></line><line x1="93.4478061893691" y1="729.1137086373074" x2="46.44042504012042" y2="689.7888908058753" class="U2 UrbanRailwayService"></line><line x1="173.306272830743" y1="684.1092301549792" x2="93.4478061893691" y2="729.1137086373074" class="U2 Connection"></line><line x1="50.043539816279846" y1="376.238286547438" x2="30.22278036755921" y2="354.9294136445139" class="U6 UrbanRailwayService"></line><line x1="450.56273641987485" y1="964.0406606618509" x2="386.7637451220705" y2="978.4492258247803" class="U7 UrbanRailwayService"></line><line x1="322.97493197639784" y1="908.2733462904957" x2="308.4751718992311" y2="949.207841277749" class="S2 SuburbanRailway"></line><line x1="394.44077935108265" y1="946.0119901756427" x2="298.7967945629822" y2="939.4637427968095" class="U1 UrbanRailwayService"></line><line x1="469.4458592556865" y1="957.3137751345581" x2="484.3323461276474" y2="983.0793265430091" class="U6 UrbanRailwayService"></line><line x1="153.21919569472493" y1="799.6873674512007" x2="155.08000202404105" y2="838.5872208270353" class="U9 UrbanRailwayService"></line><line x1="94.87350077556323" y1="688.1053713673896" x2="65.46237190491522" y2="707.7975638627064" class="S5 SuburbanRailway"></line><line x1="759.1960940896882" y1="867.8551138813344" x2="780.6543885417013" y2="883.220712112855" class="U7 UrbanRailwayService"></line><line x1="178.91448404636301" y1="224.1101622823018" x2="142.82640154289567" y2="194.50528553638907" class="S1 SuburbanRailway"></line><line x1="903.9387033586485" y1="665.8653119452996" x2="951.580962133067" y2="630.2867400734752" class="S7 SuburbanRailway"></line><line x1="75.22428737880472" y1="414.3065244902886" x2="50.043539816279846" y2="376.238286547438" class="U6 UrbanRailwayService"></line><line x1="519.5817867150581" y1="932.8906691149899" x2="450.56273641987485" y2="964.0406606618509" class="U7 UrbanRailwayService"></line><line x1="485.9531379075459" y1="933.1056031075256" x2="394.44077935108265" y2="946.0119901756427" class="U1 UrbanRailwayService"></line><line x1="449.08327915320297" y1="938.7219301364519" x2="469.4458592556865" y2="957.3137751345581" class="U6 UrbanRailwayService"></line><line x1="159.0577434301706" y1="767.462437480201" x2="153.21919569472493" y2="799.6873674512007" class="U9 UrbanRailwayService"></line><line x1="128.67849568625283" y1="723.3788669770568" x2="109.01969142129292" y2="722.7877875999917" class="U1 UrbanRailwayService"></line><line x1="157.24168832577183" y1="706.1958772095909" x2="128.67849568625283" y2="723.3788669770568" class="U1 Connection"></line><line x1="716.0704337763888" y1="865.9761845362115" x2="759.1960940896882" y2="867.8551138813344" class="U7 UrbanRailwayService"></line><line x1="162.56529403571247" y1="717.8851310252857" x2="94.87350077556323" y2="688.1053713673896" class="S5 SuburbanRailway"></line><line x1="383.4769349465989" y1="882.6517676825247" x2="322.97493197639784" y2="908.2733462904957" class="S2 SuburbanRailway"></line><line x1="438.4312294168656" y1="912.092705104073" x2="449.08327915320297" y2="938.7219301364519" class="U6 UrbanRailwayService"></line><line x1="856.811677635958" y1="677.0730672548979" x2="903.9387033586485" y2="665.8653119452996" class="S7 SuburbanRailway"></line><line x1="620.1855624028815" y1="881.5172743007885" x2="485.9531379075459" y2="933.1056031075256" class="U1 UrbanRailwayService"></line><line x1="750.2322397566006" y1="177.32378876417576" x2="833.4582861436444" y2="223.26303250212277" class="U2 UrbanRailwayService"></line><line x1="692.014943160167" y1="252.39539709251036" x2="750.2322397566006" y2="177.32378876417576" class="U2 Connection"></line><line x1="119.9383890279881" y1="450.02384258665404" x2="75.22428737880472" y2="414.3065244902886" class="U6 UrbanRailwayService"></line><line x1="141.81513766189542" y1="489.68582676067325" x2="119.9383890279881" y2="450.02384258665404" class="U6 UrbanRailwayService"></line><line x1="208.45418181782182" y1="491.6047427121759" x2="141.81513766189542" y2="489.68582676067325" class="U6 Connection"></line><line x1="611.3533740597549" y1="892.8568914969158" x2="519.5817867150581" y2="932.8906691149899" class="U7 UrbanRailwayService"></line><line x1="159.5461769042992" y1="740.2130417996333" x2="159.0577434301706" y2="767.462437480201" class="U9 UrbanRailwayService"></line><line x1="780.5615550613765" y1="229.10294608183318" x2="811.5059141087386" y2="201.1686485885555" class="S2 SuburbanRailway"></line><line x1="883.8650022274046" y1="593.1271177743339" x2="906.1208140385947" y2="636.1445145757756" class="S8 SuburbanRailway"></line><line x1="803.525346012105" y1="747.538162928486" x2="859.9063119781995" y2="726.0363833506698" class="U3 UrbanRailwayService"></line><line x1="209.49310867833975" y1="247.3525260474091" x2="178.91448404636301" y2="224.1101622823018" class="S1 SuburbanRailway"></line><line x1="390.4042052165283" y1="884.6930747567197" x2="438.4312294168656" y2="912.092705104073" class="U6 UrbanRailwayService"></line><line x1="417.80315391239617" y1="788.5198060675398" x2="390.4042052165283" y2="884.6930747567197" class="U6 Connection"></line><line x1="378.8267139698656" y1="854.8831283009368" x2="390.4042052165283" y2="884.6930747567197" class="U6 UrbanRailwayService"></line><line x1="157.24168832577183" y1="706.1958772095909" x2="159.5461769042992" y2="740.2130417996333" class="U9 UrbanRailwayService"></line><line x1="170.62485067766497" y1="307.17506527076443" x2="178.47025249955624" y2="240.2634682668891" class="S25 SuburbanRailway"></line><line x1="284.25208559672376" y1="373.6954576009374" x2="170.62485067766497" y2="307.17506527076443" class="S25 Connection"></line><line x1="690.6503827438723" y1="822.920162826069" x2="611.3533740597549" y2="892.8568914969158" class="U7 UrbanRailwayService"></line><line x1="669.4670068834421" y1="787.0401447342837" x2="690.6503827438723" y2="822.920162826069" class="U7 Connection"></line><line x1="402.27708298473766" y1="843.0179916580751" x2="162.56529403571247" y2="717.8851310252857" class="S5 SuburbanRailway"></line><line x1="417.80315391239617" y1="788.5198060675398" x2="398.62388982528864" y2="855.8410941499658" class="S5 Connection"></line><line x1="642.1634477221592" y1="790.4031655753658" x2="402.27708298473766" y2="843.0179916580751" class="S5 SuburbanRailway"></line><line x1="329.89397959250664" y1="822.9379844817353" x2="383.4769349465989" y2="882.6517676825247" class="S2 SuburbanRailway"></line><line x1="686.2328405446875" y1="815.8508723228439" x2="620.1855624028815" y2="881.5172743007885" class="U1 UrbanRailwayService"></line><line x1="639.6746304085157" y1="736.8881542421329" x2="686.2328405446875" y2="815.8508723228439" class="U1 Connection"></line><line x1="678.1433256370328" y1="839.4251021586686" x2="687.4109725695135" y2="853.3795797164136" class="U8 UrbanRailwayService"></line><line x1="173.306272830743" y1="684.1092301549792" x2="157.24168832577183" y2="706.1958772095909" class="U9 UrbanRailwayService"></line><line x1="804.861817205063" y1="691.4661129558615" x2="856.811677635958" y2="677.0730672548979" class="S7 SuburbanRailway"></line><line x1="852.748094314945" y1="571.8942414743672" x2="883.8650022274046" y2="593.1271177743339" class="S8 SuburbanRailway"></line><line x1="731.5052433986378" y1="773.510694592945" x2="803.525346012105" y2="747.538162928486" class="U3 UrbanRailwayService"></line><line x1="717.5488451761466" y1="219.46925308885486" x2="780.5615550613765" y2="229.10294608183318" class="S2 SuburbanRailway"></line><line x1="692.014943160167" y1="252.39539709251036" x2="717.5488451761466" y2="219.46925308885486" class="S2 Connection"></line><line x1="607.7367221227365" y1="212.88113410872373" x2="711.4207086923116" y2="227.37152764973217" class="S2 SuburbanRailway"></line><line x1="563.8222973444472" y1="329.91328053179825" x2="610.6643504412892" y2="205.07899101385206" class="S2 Connection"></line><line x1="340.3293243006278" y1="282.2724745887514" x2="607.7367221227365" y2="212.88113410872373" class="S2 SuburbanRailway"></line><line x1="256.00236935604653" y1="453.79826102210774" x2="340.3293243006278" y2="282.2724745887514" class="S2 SuburbanRailway"></line><line x1="313.3172490375121" y1="464.6510185001361" x2="256.00236935604653" y2="453.79826102210774" class="S2 Connection"></line><line x1="244.73823422105178" y1="265.43826247831646" x2="209.49310867833975" y2="247.3525260474091" class="S1 SuburbanRailway"></line><line x1="670.1421781125349" y1="815.3639437299391" x2="678.1433256370328" y2="839.4251021586686" class="U8 UrbanRailwayService"></line><line x1="248.38213338076525" y1="743.2867633020444" x2="378.8267139698656" y2="854.8831283009368" class="U6 UrbanRailwayService"></line><line x1="188.95452761949826" y1="641.3747686919476" x2="173.306272830743" y2="684.1092301549792" class="U9 UrbanRailwayService"></line><line x1="362.9745949823598" y1="802.0377727330299" x2="329.89397959250664" y2="822.9379844817353" class="S2 SuburbanRailway"></line><line x1="819.8922978092412" y1="508.30167466983175" x2="852.748094314945" y2="571.8942414743672" class="S8 SuburbanRailway"></line><line x1="757.2201294996526" y1="687.547103660102" x2="804.861817205063" y2="691.4661129558615" class="S7 SuburbanRailway"></line><line x1="669.3025823133522" y1="787.1371566571308" x2="731.5052433986378" y2="773.510694592945" class="U3 UrbanRailwayService"></line><line x1="639.6746304085157" y1="736.8881542421329" x2="669.3025823133522" y2="787.1371566571308" class="U3 Connection"></line><line x1="669.4670068834421" y1="787.0401447342837" x2="670.1421781125349" y2="815.3639437299391" class="U8 UrbanRailwayService"></line><line x1="189.88949141560894" y1="622.2398608336963" x2="248.38213338076525" y2="743.2867633020444" class="U6 UrbanRailwayService"></line><line x1="319.4155304263494" y1="266.7313794167693" x2="244.73823422105178" y2="265.43826247831646" class="S1 SuburbanRailway"></line><line x1="196.75062615853633" y1="591.2008500099532" x2="188.95452761949826" y2="641.3747686919476" class="U9 UrbanRailwayService"></line><line x1="192.82624356658724" y1="526.7156845884747" x2="189.88949141560894" y2="622.2398608336963" class="U6 UrbanRailwayService"></line><line x1="656.8672645086198" y1="755.7198884044467" x2="669.4670068834421" y2="787.0401447342837" class="U8 UrbanRailwayService"></line><line x1="417.80315391239617" y1="788.5198060675398" x2="362.9745949823598" y2="802.0377727330299" class="S2 SuburbanRailway"></line><line x1="695.4008269945506" y1="714.2860630322133" x2="642.1634477221592" y2="790.4031655753658" class="S5 SuburbanRailway"></line><line x1="785.7185581878501" y1="476.70443637011823" x2="819.8922978092412" y2="508.30167466983175" class="S8 SuburbanRailway"></line><line x1="701.6393188968275" y1="708.4264500365141" x2="757.2201294996526" y2="687.547103660102" class="S7 SuburbanRailway"></line><line x1="633.2673659375585" y1="637.75311352988" x2="701.6393188968275" y2="708.4264500365141" class="S7 Connection"></line><line x1="213.06918305515515" y1="552.3464490849991" x2="196.75062615853633" y2="591.2008500099532" class="U9 UrbanRailwayService"></line><line x1="594.855157521105" y1="247.2105637261589" x2="692.014943160167" y2="252.39539709251036" class="S85 SuburbanRailway"></line><line x1="563.8222973444472" y1="329.91328053179825" x2="594.855157521105" y2="247.2105637261589" class="S85 Connection"></line><line x1="208.45418181782182" y1="491.6047427121759" x2="192.82624356658724" y2="526.7156845884747" class="U6 UrbanRailwayService"></line><line x1="264.22863680339" y1="342.8706199522508" x2="270.10248990152854" y2="294.53326474835967" class="U8 UrbanRailwayService"></line><line x1="498.5361105782127" y1="769.9960315037255" x2="417.80315391239617" y2="788.5198060675398" class="S2 SuburbanRailway"></line><line x1="639.6746304085157" y1="736.8881542421329" x2="656.8672645086198" y2="755.7198884044467" class="U8 UrbanRailwayService"></line><line x1="400.11404359129074" y1="274.4623309583034" x2="319.4155304263494" y2="266.7313794167693" class="S1 SuburbanRailway"></line><line x1="227.34710517225233" y1="464.1475392469475" x2="208.45418181782182" y2="491.6047427121759" class="U6 UrbanRailwayService"></line><line x1="276.9203587772974" y1="470.6661684747752" x2="227.34710517225233" y2="464.1475392469475" class="U6 Connection"></line><line x1="226.7506751961807" y1="530.9807439267826" x2="213.06918305515515" y2="552.3464490849991" class="U9 UrbanRailwayService"></line><line x1="684.2566189919286" y1="690.4586526195732" x2="695.4008269945506" y2="714.2860630322133" class="S5 SuburbanRailway"></line><line x1="633.2673659375585" y1="637.75311352988" x2="684.2566189919286" y2="690.4586526195732" class="S5 Connection"></line><line x1="743.9020886261117" y1="420.0653458029739" x2="785.7185581878501" y2="476.70443637011823" class="S8 SuburbanRailway"></line><line x1="284.25208559672376" y1="373.6954576009374" x2="264.22863680339" y2="342.8706199522508" class="U8 UrbanRailwayService"></line><line x1="604.3909790119908" y1="717.9571088051405" x2="639.6746304085157" y2="736.8881542421329" class="U8 UrbanRailwayService"></line><line x1="250.0046005775116" y1="498.4833366917845" x2="226.7506751961807" y2="530.9807439267826" class="U9 UrbanRailwayService"></line><line x1="405.26919789675844" y1="716.8805806059813" x2="498.5361105782127" y2="769.9960315037255" class="S2 SuburbanRailway"></line><line x1="578.4604389372104" y1="290.90256505744003" x2="743.9020886261117" y2="420.0653458029739" class="S8 SuburbanRailway"></line><line x1="563.8222973444472" y1="329.91328053179825" x2="578.4604389372104" y2="290.90256505744003" class="S8 Connection"></line><line x1="300.075841278138" y1="379.68884006959206" x2="284.25208559672376" y2="373.6954576009374" class="U8 UrbanRailwayService"></line><line x1="276.9203587772974" y1="470.6661684747752" x2="250.0046005775116" y2="498.4833366917845" class="U9 UrbanRailwayService"></line><line x1="499.94243629727083" y1="283.3333409800562" x2="400.11404359129074" y2="274.4623309583034" class="S1 SuburbanRailway"></line><line x1="631.2589972313584" y1="672.3819018640376" x2="604.3909790119908" y2="717.9571088051405" class="U8 UrbanRailwayService"></line><line x1="313.3172490375121" y1="464.6510185001361" x2="405.26919789675844" y2="716.8805806059813" class="S2 SuburbanRailway"></line><line x1="328.95280653553607" y1="381.0645747234743" x2="300.075841278138" y2="379.68884006959206" class="U8 UrbanRailwayService"></line><line x1="311.93670157953244" y1="431.93976353836115" x2="276.9203587772974" y2="470.6661684747752" class="U9 UrbanRailwayService"></line><line x1="563.8222973444472" y1="329.91328053179825" x2="499.94243629727083" y2="283.3333409800562" class="S1 SuburbanRailway"></line><line x1="633.2673659375585" y1="637.75311352988" x2="631.2589972313584" y2="672.3819018640376" class="U8 UrbanRailwayService"></line><line x1="361.34344562029196" y1="380.06055261650494" x2="328.95280653553607" y2="381.0645747234743" class="U8 UrbanRailwayService"></line><line x1="352.827744742113" y1="390.6773655942263" x2="311.93670157953244" y2="431.93976353836115" class="U9 UrbanRailwayService"></line><line x1="392.96563253971857" y1="420.4926295230737" x2="352.827744742113" y2="390.6773655942263" class="U9 Connection"></line><line x1="615.4284283204044" y1="620.2250211613999" x2="633.2673659375585" y2="637.75311352988" class="U8 UrbanRailwayService"></line><line x1="399.46661159669156" y1="362.91229881513976" x2="313.3172490375121" y2="464.6510185001361" class="S2 SuburbanRailway"></line><line x1="450.7189272532802" y1="432.8001464780097" x2="399.46661159669156" y2="362.91229881513976" class="S2 Connection"></line><line x1="365.9470082802785" y1="400.96680764122544" x2="361.34344562029196" y2="380.06055261650494" class="U8 UrbanRailwayService"></line><line x1="407.35158323616673" y1="373.6642753786582" x2="563.8222973444472" y2="329.91328053179825" class="S1 SuburbanRailway"></line><line x1="450.7189272532802" y1="432.8001464780097" x2="407.35158323616673" y2="373.6642753786582" class="S1 Connection"></line><line x1="392.96563253971857" y1="420.4926295230737" x2="365.9470082802785" y2="400.96680764122544" class="U8 UrbanRailwayService"></line><line x1="580.3013330008454" y1="606.4400004512642" x2="615.4284283204044" y2="620.2250211613999" class="U8 UrbanRailwayService"></line><line x1="418.9689564122666" y1="428.0967240927511" x2="392.96563253971857" y2="420.4926295230737" class="U8 UrbanRailwayService"></line><line x1="561.9410310962323" y1="588.8786801085992" x2="580.3013330008454" y2="606.4400004512642" class="U8 UrbanRailwayService"></line><line x1="450.7189272532802" y1="432.8001464780097" x2="418.9689564122666" y2="428.0967240927511" class="U8 UrbanRailwayService"></line><line x1="552.1707001142707" y1="564.9820166971699" x2="561.9410310962323" y2="588.8786801085992" class="U8 UrbanRailwayService"></line><line x1="441.66666666666663" y1="500" x2="552.1707001142707" y2="564.9820166971699" class="U8 UrbanRailwayService"></line><line x1="441.66666666666663" y1="500" x2="450.7189272532802" y2="432.8001464780097" class="U8 UrbanRailwayService"></line><line x1="500" y1="500" x2="441.66666666666663" y2="500" class="U8 Connection"></line><line x1="500" y1="500" x2="500" y2="500" class="null Connection"></line></svg>