<svg xmlns="http://www.w3.org/2000/svg" version="1.1" xmlns:xlink="http://www.w3.org/1999/xlink" xmlns:svgjs="http://svgjs.com/svgjs" width="1100" height="1400">
<style>
    .grid {
      fill: none;
      stroke: lightgray;
      stroke-width: 1pt;
      stroke-dasharray: 10 10;
    }
    text {
      font-size: 10pt;
    }
    .Rail, .RailwayService, .SuburbanRailway, .UrbanRailwayService {
      stroke-width: 2pt;
    }
    .BusService, .TramService {
      stroke-width: 1pt;
    }
    .Rail, .RailwayService {
      stroke: red
    }
    .BusService {
      stroke:#a01c7d
    }
    .Ferry {
      stroke:#0099d6
    }
    .Connection {
      stroke-dasharray: 2 4;
    }
    .ire {
      stroke:#e2001a
    }
    .S1 {
      stroke:#eb588f
    }
    .S2 {
      stroke:#047939
    }
    .S25 {
      stroke:#047939
    }
    .S26 {
      stroke:#047939
    }
    .S3 {
      stroke:#026597
    }
    .S41 {
      stroke:#aa3c1f
    }
    .S42 {
      stroke:#ba622d
    }
    .S45 {
      stroke:#aa3c1f
    }
    .S46 {
      stroke:#ca8539
    }
    .S47 {
      stroke:#ca8539
    }
    .S5 {
      stroke:#ea561c
    }
    .S7 {
      stroke:#764d9a
    }
    .S75 {
      stroke:#764d9a
    }
    .S8 {
      stroke:#4fa433
    }
    .S85 {
      stroke:#4fa433
    }
    .S9 {
      stroke:#951732
    }
    .U1 {
      stroke:#7dad4c
    }
    .U2 {
      stroke:#da421e
    }
    .U3 {
      stroke:#2e937d
    }
    .U4 {
      stroke:#f0d722
    }
    .U5 {
      stroke:#7e5330
    }
    .U55 {
      stroke:#7e5330
    }
    .U6 {
      stroke:#8c6dab
    }
    .U7 {
      stroke:#528dba
    }
    .U8 {
      stroke:#224f86
    }
    .U9 {
      stroke:#f3791d
    }
    .M1 {
      stroke:#63b9ea
    }
    .M2 {
      stroke:#7ab829
    }
    .M4 {
      stroke:#ca1215
    }
    .M5 {
      stroke:#c8893b
    }
    .M6 {
      stroke:#025695
    }
    .M8 {
      stroke:#ee7100
    }
    .M10 {
      stroke:#007b3c
    }
    .T12 {
      stroke:#8870ab
    }
    .M13 {
      stroke:#00a092
    }
    .T16 {
      stroke:#027fab
    }
    .M17 {
      stroke:#a6432a
    }
    .T18 {
      stroke:#d6ad00
    }
    .T21 {
      stroke:#bd90c1
    }
    .T27 {
      stroke:#cb621a
    }
    .T37 {
      stroke:#825238
    }
    .T50 {
      stroke:#ea9000
    }
    .T60 {
      stroke:#039bd9
    }
    .T61 {
      stroke:#e30313
    }
    .T62 {
      stroke:#00512d
    }
    .T63 {
      stroke:#ef7200
    }
    .T67 {
      stroke:#dd6ca6
    }
    .T68 {
      stroke:#65b42f
    }
  </style>
  <circle r="166.66666666666666" cx="500" cy="500" class="grid"></circle><circle r="333.3333333333333" cx="500" cy="500" class="grid"></circle><circle r="500" cx="500" cy="500" class="grid"></circle><circle r="3" cx="500" cy="500"></circle><text x="508.8333333134651" y="486.66670989990234"><tspan dy="17.33329" x="508.8333333134651">U Gneisenaustr. (Berlin)</tspan></text><circle r="3" cx="452.2553359404577" cy="485.1525404920084"></circle><text x="461.08866925392283" y="471.81925039191077"><tspan dy="17.33329" x="461.08866925392283">U Mehringdamm (Berlin)</tspan></text><circle r="3" cx="557.5940362150767" cy="509.2576870888036"></circle><text x="566.4273695285418" y="495.92439698870595"><tspan dy="17.33329" x="566.4273695285418">U Südstern (Berlin)</tspan></text><circle r="3" cx="436.17508540948546" cy="460.61243498877434"></circle><text x="445.0084187229506" y="447.2791448886767"><tspan dy="17.33329" x="445.0084187229506">U Möckernbrücke (Berlin)</tspan></text><circle r="3" cx="590.7512096381564" cy="512.9226826545095"></circle><text x="599.5845429516215" y="499.5893925544118"><tspan dy="17.33329" x="599.5845429516215">U Hermannplatz (Berlin)</tspan></text><circle r="3" cx="400.1737702819394" cy="494.1073044981948"></circle><text x="409.00710359540454" y="480.77401439809717"><tspan dy="17.33329" x="409.00710359540454">S+U Yorckstr. (Berlin)</tspan></text><circle r="3" cx="613.2014089694783" cy="528.2232549227766"></circle><text x="622.0347422829434" y="514.889964822679"><tspan dy="17.33329" x="622.0347422829434">U Rathaus Neukölln (Berlin)</tspan></text><circle r="3" cx="375.00824965636434" cy="501.43608705664377"></circle><text x="383.84158296982946" y="488.1027969565461"><tspan dy="17.33329" x="383.84158296982946">U Kleistpark (Berlin)</tspan></text><circle r="3" cx="634.7481352610646" cy="543.730818516354"></circle><text x="643.5814685745297" y="530.3975284162564"><tspan dy="17.33329" x="643.5814685745297">U Karl-Marx-Str. (Berlin)</tspan></text><circle r="3" cx="350.10986795998997" cy="505.7400624585776"></circle><text x="358.9432012734551" y="492.40677235847994"><tspan dy="17.33329" x="358.9432012734551">U Eisenacher Str. (Berlin)</tspan></text><circle r="3" cx="359.993380906415" cy="446.165562973281"></circle><text x="368.8267142198801" y="432.83227287318334"><tspan dy="17.33329" x="368.8267142198801">U Gleisdreieck (Berlin)</tspan></text><circle r="3" cx="656.4031403670372" cy="557.5832915098349"></circle><text x="665.2364736805023" y="544.2500014097373"><tspan dy="17.33329" x="665.2364736805023">U Boddinstr. (Berlin)</tspan></text><circle r="3" cx="650.832527843187" cy="570.903641106871"></circle><text x="659.6658611566521" y="557.5703510067733"><tspan dy="17.33329" x="659.6658611566521">S+U Neukölln (Berlin) [U7]</tspan></text><circle r="3" cx="333.5081739071979" cy="507.6321440016491"></circle><text x="342.341507220663" y="494.29885390155147"><tspan dy="17.33329" x="342.341507220663">U Bayerischer Platz (Berlin)</tspan></text><circle r="3" cx="417.3721746499123" cy="355.2573999967764"></circle><text x="426.20550796337744" y="341.9241098966788"><tspan dy="17.33329" x="426.20550796337744">U Hallesches Tor (Berlin)</tspan></text><circle r="3" cx="350.95415854741447" cy="606.7541486631872"></circle><text x="359.7874918608796" y="593.4208585630895"><tspan dy="17.33329" x="359.7874918608796">U Platz der Luftbrücke (Berlin)</tspan></text><circle r="3" cx="322.35324162653063" cy="454.69282230695353"></circle><text x="331.18657493999575" y="441.3595322068559"><tspan dy="17.33329" x="331.18657493999575">U Kurfürstenstr. (Berlin)</tspan></text><circle r="3" cx="668.5513664108282" cy="591.2499205049178"></circle><text x="677.3846997242933" y="577.9166304048201"><tspan dy="17.33329" x="677.3846997242933">U Leinestr. (Berlin)</tspan></text><circle r="3" cx="668.2568718202522" cy="591.7918089830151"></circle><text x="677.0902051337173" y="578.4585188829175"><tspan dy="17.33329" x="677.0902051337173">U Grenzallee (Berlin)</tspan></text><circle r="3" cx="308.72351606237373" cy="512.22365753652"></circle><text x="317.55684937583885" y="498.89036743642237"><tspan dy="17.33329" x="317.55684937583885">U Berliner Str. (Berlin)</tspan></text><circle r="3" cx="444.722908144502" cy="316.4773740730862"></circle><text x="453.55624145796713" y="303.14408397298854"><tspan dy="17.33329" x="453.55624145796713">U Kochstr./Checkpoint Charlie (Berlin)</tspan></text><circle r="3" cx="327.82834375330685" cy="398.2310421333178"></circle><text x="336.661677066772" y="384.8977520332202"><tspan dy="17.33329" x="336.661677066772">U Mendelssohn-Bartholdy-Park (Berlin)</tspan></text><circle r="3" cx="675.1094088518805" cy="612.8692726534673"></circle><text x="683.9427421653456" y="599.5359825533696"><tspan dy="17.33329" x="683.9427421653456">S+U Hermannstr. (Berlin)</tspan></text><circle r="3" cx="292.06690654766084" cy="512.9076111313656"></circle><text x="300.90023986112595" y="499.5743210312679"><tspan dy="17.33329" x="300.90023986112595">U Blissestr. (Berlin)</tspan></text><circle r="3" cx="382.99924546746786" cy="672.3763360110544"></circle><text x="391.832578780933" y="659.0430459109567"><tspan dy="17.33329" x="391.832578780933">U Paradestr. (Berlin)</tspan></text><circle r="3" cx="295.5751588582565" cy="459.83456583141805"></circle><text x="304.4084921717216" y="446.5012757313204"><tspan dy="17.33329" x="304.4084921717216">U Nollendorfplatz (Berlin)</tspan></text><circle r="3" cx="677.6011525728742" cy="624.1059025559667"></circle><text x="686.4344858863393" y="610.7726124558691"><tspan dy="17.33329" x="686.4344858863393">U Blaschkoallee (Berlin)</tspan></text><circle r="3" cx="440.128211040586" cy="291.7698068693115"></circle><text x="448.9615443540511" y="278.4365167692138"><tspan dy="17.33329" x="448.9615443540511">U Stadtmitte (Berlin)</tspan></text><circle r="3" cx="684.749986839438" cy="386.8103944380407"></circle><text x="693.5833201529031" y="373.47710433794305"><tspan dy="17.33329" x="693.5833201529031">U Prinzenstr. (Berlin)</tspan></text><circle r="3" cx="340.58576227822175" cy="341.21681193657696"></circle><text x="349.41909559168687" y="327.8835218364793"><tspan dy="17.33329" x="349.41909559168687">S+U Potsdamer Platz (Bln) [U2]</tspan></text><circle r="3" cx="732.7672337985719" cy="483.7562530737086"></circle><text x="741.600567112037" y="470.42296297361094"><tspan dy="17.33329" x="741.600567112037">U Schönleinstr. (Berlin)</tspan></text><circle r="3" cx="266.6853276281572" cy="502.95094907853775"></circle><text x="275.51866094162233" y="489.6176589784401"><tspan dy="17.33329" x="275.51866094162233">U Fehrbelliner Platz (Berlin)</tspan></text><circle r="3" cx="398.7953441266772" cy="710.242864502001"></circle><text x="407.6286774401423" y="696.9095744019033"><tspan dy="17.33329" x="407.6286774401423">S+U Tempelhof (Berlin)</tspan></text><circle r="3" cx="439.2179400965262" cy="274.7224253541091"></circle><text x="448.0512734099913" y="261.3891352540114"><tspan dy="17.33329" x="448.0512734099913">U Französische Str. (Berlin)</tspan></text><circle r="3" cx="686.9912952107173" cy="653.0915846583218"></circle><text x="695.8246285241825" y="639.7582945582242"><tspan dy="17.33329" x="695.8246285241825">U Parchimer Allee (Berlin)</tspan></text><circle r="3" cx="263.0261577606762" cy="452.60616208714663"></circle><text x="271.8594910741413" y="439.272871987049"><tspan dy="17.33329" x="271.8594910741413">U Wittenbergplatz (Berlin)</tspan></text><circle r="3" cx="409.348860037889" cy="732.9857738652078"></circle><text x="418.1821933513541" y="719.6524837651101"><tspan dy="17.33329" x="418.1821933513541">U Alt-Tempelhof (Berlin)</tspan></text><circle r="3" cx="373.3651448401499" cy="284.44579925539887"></circle><text x="382.19847815361504" y="271.1125091553012"><tspan dy="17.33329" x="382.19847815361504">U Mohrenstr. (Berlin)</tspan></text><circle r="3" cx="736.7648837521126" cy="419.73550086215806"></circle><text x="745.5982170655777" y="406.4022107620604"><tspan dy="17.33329" x="745.5982170655777">U Kottbusser Tor (Berlin)</tspan></text><circle r="3" cx="241.75671946934608" cy="493.17950354614027"></circle><text x="250.5900527828112" y="479.8462134460426"><tspan dy="17.33329" x="250.5900527828112">U Konstanzer Str. (Berlin)</tspan></text><circle r="3" cx="427.7173956154449" cy="251.98520968600076"></circle><text x="436.55072892891" y="238.6519195859031"><tspan dy="17.33329" x="436.55072892891">S+U Friedrichstr. Bhf (Berlin)</tspan></text><circle r="3" cx="742.3524308717757" cy="607.192813427679"></circle><text x="751.1857641852408" y="593.8595233275813"><tspan dy="17.33329" x="751.1857641852408">S+U Neukölln (Berlin)</tspan></text><circle r="3" cx="687.8440298785789" cy="689.2768648041451"></circle><text x="696.677363192044" y="675.9435747040475"><tspan dy="17.33329" x="696.677363192044">U Britz-Süd (Berlin)</tspan></text><circle r="3" cx="238.03589501435596" cy="450.141010738468"></circle><text x="246.86922832782108" y="436.80772063837037"><tspan dy="17.33329" x="246.86922832782108">U Kurfürstendamm (Berlin)</tspan></text><circle r="3" cx="226.3019216044429" cy="473.2724508684488"></circle><text x="235.13525491790801" y="459.93916076835114"><tspan dy="17.33329" x="235.13525491790801">U Adenauerplatz (Berlin)</tspan></text><circle r="3" cx="409.0887697232726" cy="759.5383366856847"></circle><text x="417.9221030367377" y="746.2050465855871"><tspan dy="17.33329" x="417.9221030367377">U Kaiserin-Augusta-Str. (Berlin)</tspan></text><circle r="3" cx="436.7797317736128" cy="232.36555213242139"></circle><text x="445.6130650870779" y="219.03226203232373"><tspan dy="17.33329" x="445.6130650870779">U Oranienburger Tor (Berlin)</tspan></text><circle r="3" cx="229.75306643163464" cy="449.0922903982556"></circle><text x="238.58639974509975" y="435.75900029815796"><tspan dy="17.33329" x="238.58639974509975">U Bülowstr. (Berlin)</tspan></text><circle r="3" cx="768.0725723111481" cy="438.6640727266289"></circle><text x="776.9059056246132" y="425.33078262653123"><tspan dy="17.33329" x="776.9059056246132">U Görlitzer Bahnhof (Berlin)</tspan></text><circle r="3" cx="224.69572225424454" cy="433.0273754981506"></circle><text x="233.52905556770966" y="419.69408539805295"><tspan dy="17.33329" x="233.52905556770966">S+U Zoologischer Garten Bhf (Berlin)</tspan></text><circle r="3" cx="220.2992495577885" cy="454.7753609208264"></circle><text x="229.13258287125362" y="441.44207082072876"><tspan dy="17.33329" x="229.13258287125362">U Uhlandstr. (Berlin)</tspan></text><circle r="3" cx="703.0535564009567" cy="709.3769272803668"></circle><text x="711.8868897144218" y="696.0436371802691"><tspan dy="17.33329" x="711.8868897144218">U Johannisthaler Chaussee (Berlin)</tspan></text><circle r="3" cx="419.16176411584263" cy="780.2402970016658"></circle><text x="427.99509742930775" y="766.9070069015681"><tspan dy="17.33329" x="427.99509742930775">U Ullsteinstr. (Berlin)</tspan></text><circle r="3" cx="499.52483607107723" cy="208.33372038632046"></circle><text x="508.35816938454235" y="195.0004302862228"><tspan dy="17.33329" x="508.35816938454235">U Hausvogteiplatz (Berlin)</tspan></text><circle r="3" cx="736.509714837344" cy="315.43793784323327"></circle><text x="745.3430481508091" y="302.1046477431356"><tspan dy="17.33329" x="745.3430481508091">U Moritzplatz (Berlin)</tspan></text><circle r="3" cx="204.07531558611493" cy="450.71936329000505"></circle><text x="212.90864889958004" y="437.3860731899074"><tspan dy="17.33329" x="212.90864889958004">U Wilmersdorfer Str. (Berlin)</tspan></text><circle r="3" cx="405.18490796592476" cy="215.37727019338422"></circle><text x="414.0182412793899" y="202.04398009328656"><tspan dy="17.33329" x="414.0182412793899">U Naturkundemuseum (Berlin)</tspan></text><circle r="3" cx="201.2560674110649" cy="472.57623765239697"></circle><text x="210.08940072453" y="459.2429475522993"><tspan dy="17.33329" x="210.08940072453">U Viktoria-Luise-Platz (Berlin)</tspan></text><circle r="3" cx="793.920699292706" cy="587.4932395773016"></circle><text x="802.7540326061711" y="574.1599494772039"><tspan dy="17.33329" x="802.7540326061711">S Köllnische Heide (Berlin)</tspan></text><circle r="3" cx="202.45688129983736" cy="419.14496330700615"></circle><text x="211.29021461330248" y="405.8116732069085"><tspan dy="17.33329" x="211.29021461330248">U Ernst-Reuter-Platz (Berlin)</tspan></text><circle r="3" cx="801.9101495145349" cy="437.3924440298489"></circle><text x="810.743482828" y="424.05915392975123"><tspan dy="17.33329" x="810.743482828">U Schlesisches Tor (Berlin)</tspan></text><circle r="3" cx="183.35326654124356" cy="496.4469776700621"></circle><text x="192.18659985470867" y="483.11368756996444"><tspan dy="17.33329" x="192.18659985470867">U Güntzelstr. (Berlin)</tspan></text><circle r="3" cx="189.72419653993794" cy="563.2985273524645"></circle><text x="198.55752985340305" y="549.9652372523668"><tspan dy="17.33329" x="198.55752985340305">S+U Bundesplatz (Berlin)</tspan></text><circle r="3" cx="728.8602978526615" cy="718.8623810630069"></circle><text x="737.6936311661266" y="705.5290909629092"><tspan dy="17.33329" x="737.6936311661266">U Lipschitzallee (Berlin)</tspan></text><circle r="3" cx="431.3646797875719" cy="809.1390796989524"></circle><text x="440.198013101037" y="795.8057895988547"><tspan dy="17.33329" x="440.198013101037">U Westphalweg (Berlin)</tspan></text><circle r="3" cx="375.60734142432244" cy="208.78831707801854"></circle><text x="384.44067473778756" y="195.45502697792088"><tspan dy="17.33329" x="384.44067473778756">U Schwartzkopffstr. (Berlin)</tspan></text><circle r="3" cx="606.5802351776722" cy="201.80806307472054"></circle><text x="615.4135684911373" y="188.47477297462288"><tspan dy="17.33329" x="615.4135684911373">U Spittelmarkt (Berlin)</tspan></text><circle r="3" cx="739.4860253851837" cy="280.2923678039219"></circle><text x="748.3193586986488" y="266.9590777038242"><tspan dy="17.33329" x="748.3193586986488">U Heinrich-Heine-Str. (Berlin)</tspan></text><circle r="3" cx="182.54340952726895" cy="430.3845335760169"></circle><text x="191.37674284073407" y="417.05124347591925"><tspan dy="17.33329" x="191.37674284073407">U Bismarckstr. (Berlin)</tspan></text><circle r="3" cx="167.73022864190617" cy="473.39341899545997"></circle><text x="176.56356195537128" y="460.0601288953623"><tspan dy="17.33329" x="176.56356195537128">U Spichernstr. (Berlin)</tspan></text><circle r="3" cx="448.0566509428682" cy="829.2612938075779"></circle><text x="456.8899842563333" y="815.9280037074802"><tspan dy="17.33329" x="456.8899842563333">U Alt-Mariendorf (Berlin)</tspan></text><circle r="3" cx="171.7676856557912" cy="594.8665321984294"></circle><text x="180.60101896925633" y="581.5332420983317"><tspan dy="17.33329" x="180.60101896925633">U Friedrich-Wilhelm-Platz (Berlin)</tspan></text><circle r="3" cx="736.63407303153" cy="253.54427052385319"></circle><text x="745.4674063449951" y="240.21098042375553"><tspan dy="17.33329" x="745.4674063449951">S+U Jannowitzbrücke (Berlin)</tspan></text><circle r="3" cx="762.4440089955892" cy="718.7675781587258"></circle><text x="771.2773423090543" y="705.4342880586281"><tspan dy="17.33329" x="771.2773423090543">U Wutzkyallee (Berlin)</tspan></text><circle r="3" cx="171.49709709118395" cy="406.07474305815236"></circle><text x="180.33043040464906" y="392.7414529580547"><tspan dy="17.33329" x="180.33043040464906">U Richard-Wagner-Platz (Berlin)</tspan></text><circle r="3" cx="340.4866912221213" cy="197.85497615574698"></circle><text x="349.3200245355864" y="184.52168605564933"><tspan dy="17.33329" x="349.3200245355864">U Reinickendorfer Str. (Berlin)</tspan></text><circle r="3" cx="167.24077398730032" cy="422.4925254279295"></circle><text x="176.07410730076543" y="409.1592353278318"><tspan dy="17.33329" x="176.07410730076543">U Deutsche Oper (Berlin)</tspan></text><circle r="3" cx="830.4729398124588" cy="413.26046366954597"></circle><text x="839.3062731259239" y="399.9271735694483"><tspan dy="17.33329" x="839.3062731259239">S+U Warschauer Str. (Berlin)</tspan></text><circle r="3" cx="838.3624629919263" cy="582.7463277079316"></circle><text x="847.1957963053915" y="569.413037607834"><tspan dy="17.33329" x="847.1957963053915">S Baumschulenweg (Berlin)</tspan></text><circle r="3" cx="153.58951057195324" cy="549.9977280905954"></circle><text x="162.42284388541836" y="536.6644379904977"><tspan dy="17.33329" x="162.42284388541836">U Rathaus Schöneberg (Berlin)</tspan></text><circle r="3" cx="188.87455358199202" cy="660.3151789170172"></circle><text x="197.70788689545714" y="646.9818888169195"><tspan dy="17.33329" x="197.70788689545714">S Südkreuz Bhf (Berlin)</tspan></text><circle r="3" cx="165.19820303627907" cy="627.7127030785942"></circle><text x="174.0315363497442" y="614.3794129784966"><tspan dy="17.33329" x="174.0315363497442">U Walther-Schreiber-Platz (Berlin)</tspan></text><circle r="3" cx="787.2994550788105" cy="714.153685210403"></circle><text x="796.1327883922756" y="700.8203951103053"><tspan dy="17.33329" x="796.1327883922756">U Zwickauer Damm (Berlin)</tspan></text><circle r="3" cx="318.98475097353764" cy="190.74887648115885"></circle><text x="327.81808428700276" y="177.4155863810612"><tspan dy="17.33329" x="327.81808428700276">S+U Wedding (Berlin)</tspan></text><circle r="3" cx="145.8671448127936" cy="445.2944367112917"></circle><text x="154.70047812625873" y="431.96114661119407"><tspan dy="17.33329" x="154.70047812625873">U Augsburger Str. (Berlin)</tspan></text><circle r="3" cx="143.761012168676" cy="586.8229692728727"></circle><text x="152.5943454821411" y="573.489679172775"><tspan dy="17.33329" x="152.5943454821411">S+U Innsbrucker Platz (Berlin)</tspan></text><circle r="3" cx="474.1335800548695" cy="130.90525834249257"></circle><text x="482.96691336833464" y="117.57196824239492"><tspan dy="17.33329" x="482.96691336833464">S Oranienburger Str. (Berlin)</tspan></text><circle r="3" cx="684.9312366228796" cy="173.77088155541276"></circle><text x="693.7645699363447" y="160.4375914553151"><tspan dy="17.33329" x="693.7645699363447">S+U Alexanderplatz (Berlin) [U8]</tspan></text><circle r="3" cx="125.2322290495379" cy="486.8046274466406"></circle><text x="134.06556236300304" y="473.47133734654295"><tspan dy="17.33329" x="134.06556236300304">U Hohenzollernplatz (Berlin)</tspan></text><circle r="3" cx="585.1173246361914" cy="127.94558799656514"></circle><text x="593.9506579496565" y="114.61229789646748"><tspan dy="17.33329" x="593.9506579496565">S Hackescher Markt (Berlin)</tspan></text><circle r="3" cx="145.91568940521537" cy="646.8630158857586"></circle><text x="154.7490227186805" y="633.529725785661"><tspan dy="17.33329" x="154.7490227186805">U Schloßstr. (Berlin)</tspan></text><circle r="3" cx="810.1848920411211" cy="725.2327178584019"></circle><text x="819.0182253545862" y="711.8994277583042"><tspan dy="17.33329" x="819.0182253545862">U Rudow (Berlin)</tspan></text><circle r="3" cx="286.7489477027631" cy="181.45889882376937"></circle><text x="295.5822810162282" y="168.12560872367172"><tspan dy="17.33329" x="295.5822810162282">U Leopoldplatz (Berlin)</tspan></text><circle r="3" cx="125.9319928014302" cy="597.8991169602762"></circle><text x="134.76532611489532" y="584.5658268601785"><tspan dy="17.33329" x="134.76532611489532">S Schöneberg (Berlin)</tspan></text><circle r="3" cx="880.4254840208903" cy="618.0927413176431"></circle><text x="889.2588173343554" y="604.7594512175455"><tspan dy="17.33329" x="889.2588173343554">S Schöneweide Bhf (Berlin)</tspan></text><circle r="3" cx="135.14150815986181" cy="663.9459695513734"></circle><text x="143.97484147332693" y="650.6126794512758"><tspan dy="17.33329" x="143.97484147332693">S+U Rathaus Steglitz (Berlin) [U9]</tspan></text><circle r="3" cx="614.5896680149008" cy="116.7648137445691"></circle><text x="623.4230013283659" y="103.43152364447144"><tspan dy="17.33329" x="623.4230013283659">U Weinmeisterstr. (Berlin)</tspan></text><circle r="3" cx="251.78106833990776" cy="184.20976412081143"></circle><text x="260.61440165337285" y="170.87647402071377"><tspan dy="17.33329" x="260.61440165337285">S+U Berlin Hauptbahnhof</tspan></text><circle r="3" cx="433.42453676479" cy="102.19918869766626"></circle><text x="442.2578700782551" y="88.8658985975686"><tspan dy="17.33329" x="442.2578700782551">S Nordbahnhof (Berlin)</tspan></text><circle r="3" cx="133.4797711748571" cy="320.00268620594363"></circle><text x="142.3131044883222" y="306.669396105846"><tspan dy="17.33329" x="142.3131044883222">U Hansaplatz (Berlin)</tspan></text><circle r="3" cx="694.7351214627412" cy="139.19779314852937"></circle><text x="703.5684547762063" y="125.86450304843171"><tspan dy="17.33329" x="703.5684547762063">S+U Alexanderplatz Bhf (Berlin)</tspan></text><circle r="3" cx="300.8176381099805" cy="135.92392730101955"></circle><text x="309.65097142344564" y="122.59063720092189"><tspan dy="17.33329" x="309.65097142344564">S+U Brandenburger Tor (Berlin)</tspan></text><circle r="3" cx="84.85855343554971" cy="426.10577071141864"></circle><text x="93.69188674901483" y="412.772480611321"><tspan dy="17.33329" x="93.69188674901483">S Savignyplatz (Berlin)</tspan></text><circle r="3" cx="567.3330860328938" cy="80.36771391456676"></circle><text x="576.1664193463589" y="67.03442381446911"><tspan dy="17.33329" x="576.1664193463589">U Rosenthaler Platz (Berlin)</tspan></text><circle r="3" cx="734.8523980404526" cy="145.78346857515413"></circle><text x="743.6857313539177" y="132.45017847505648"><tspan dy="17.33329" x="743.6857313539177">U Märkisches Museum (Berlin)</tspan></text><circle r="3" cx="97.19328608228601" cy="349.51162429339297"></circle><text x="106.02661939575113" y="336.1783341932953"><tspan dy="17.33329" x="106.02661939575113">S Tiergarten (Berlin)</tspan></text><circle r="3" cx="132.60526752571434" cy="270.2199131170722"></circle><text x="141.43860083917946" y="256.88662301697457"><tspan dy="17.33329" x="141.43860083917946">U Turmstr. (Berlin)</tspan></text><circle r="3" cx="239.2581814110799" cy="153.8909394183382"></circle><text x="248.09151472454502" y="140.55764931824055"><tspan dy="17.33329" x="248.09151472454502">U Seestr. (Berlin)</tspan></text><circle r="3" cx="916.9925420279114" cy="640.4180184061165"></circle><text x="925.8258753413766" y="627.0847283060189"><tspan dy="17.33329" x="925.8258753413766">S Betriebsbahnhof Schöneweide (Berlin)</tspan></text><circle r="3" cx="113.34181004447802" cy="276.3785447426152"></circle><text x="122.17514335794314" y="263.04525464251753"><tspan dy="17.33329" x="122.17514335794314">S Bellevue (Berlin)</tspan></text><circle r="3" cx="171.65365496303986" cy="194.72724412642506"></circle><text x="180.48698827650497" y="181.3939540263274"><tspan dy="17.33329" x="180.48698827650497">S+U Potsdamer Platz Bhf (Berlin)</tspan></text><circle r="3" cx="363.3935780643731" cy="72.98540626376332"></circle><text x="372.22691137783823" y="59.65211616366567"><tspan dy="17.33329" x="372.22691137783823">S Humboldthain (Berlin)</tspan></text><circle r="3" cx="508.4432443497364" cy="50.07921627818679"></circle><text x="517.2765776632016" y="36.745926178089135"><tspan dy="17.33329" x="517.2765776632016">U Bernauer Str. (Berlin)</tspan></text><circle r="3" cx="751.9462038168658" cy="127.14197020545431"></circle><text x="760.7795371303309" y="113.80868010535666"><tspan dy="17.33329" x="760.7795371303309">U Klosterstr. (Berlin)</tspan></text><circle r="3" cx="147.15104104007887" cy="779.2805259249201"></circle><text x="155.98437435354398" y="765.9472358248224"><tspan dy="17.33329" x="155.98437435354398">S Priesterweg (Berlin)</tspan></text><circle r="3" cx="49.65068310898468" cy="435.1116899912173"></circle><text x="58.4840164224498" y="421.77839989111965"><tspan dy="17.33329" x="58.4840164224498">S Charlottenburg Bhf (Berlin)</tspan></text><circle r="3" cx="131.37485218560357" cy="227.63086657394743"></circle><text x="140.2081854990687" y="214.29757647384977"><tspan dy="17.33329" x="140.2081854990687">U Birkenstr. (Berlin)</tspan></text><circle r="3" cx="196.93679619051335" cy="145.13316261658466"></circle><text x="205.77012950397847" y="131.799872516487"><tspan dy="17.33329" x="205.77012950397847">U Rehberge (Berlin)</tspan></text><circle r="3" cx="37.24666836470902" cy="560.3086381724557"></circle><text x="46.08000167817414" y="546.9753480723581"><tspan dy="17.33329" x="46.08000167817414">S+U Heidelberger Platz (Berlin)</tspan></text><circle r="3" cx="42.0444872479136" cy="410.2529882516893"></circle><text x="50.87782056137872" y="396.91969815159166"><tspan dy="17.33329" x="50.87782056137872">U Sophie-Charlotte-Platz (Berlin)</tspan></text><circle r="3" cx="929.8383854347084" cy="305.8134740736949"></circle><text x="938.6717187481735" y="292.48018397359726"><tspan dy="17.33329" x="938.6717187481735">S Ostbahnhof (Berlin)</tspan></text><circle r="3" cx="137.7603116541261" cy="192.7421145241604"></circle><text x="146.59364496759122" y="179.40882442406274"><tspan dy="17.33329" x="146.59364496759122">S+U Westhafen (Berlin)</tspan></text><circle r="3" cx="478.6325750961907" cy="25.480840057031994"></circle><text x="487.4659084096558" y="12.147549956934338"><tspan dy="17.33329" x="487.4659084096558">U Voltastr. (Berlin)</tspan></text><circle r="3" cx="440.45790182540316" cy="25.3869825607978"></circle><text x="449.2912351388683" y="12.053692460700145"><tspan dy="17.33329" x="449.2912351388683">S+U Gesundbrunnen Bhf (Berlin)</tspan></text><circle r="3" cx="950.8473902115808" cy="669.5270141221878"></circle><text x="959.6807235250459" y="656.1937240220901"><tspan dy="17.33329" x="959.6807235250459">S Adlershof (Berlin)</tspan></text><circle r="3" cx="975.8950366712861" cy="425.65827652379124"></circle><text x="984.7283699847512" y="412.3249864236936"><tspan dy="17.33329" x="984.7283699847512">S Ostkreuz Bhf (Berlin)</tspan></text><circle r="3" cx="750.9665897925956" cy="86.92993098145423"></circle><text x="759.7999231060608" y="73.59664088135658"><tspan dy="17.33329" x="759.7999231060608">S+U Alexanderplatz (Berlin) [U2]</tspan></text><circle r="3" cx="153.32464152781512" cy="163.2102927058292"></circle><text x="162.15797484128024" y="149.87700260573155"><tspan dy="17.33329" x="162.15797484128024">S Anhalter Bahnhof (Berlin)</tspan></text><circle r="3" cx="17.155246574994397" cy="478.27316863745125"></circle><text x="25.988579888459515" y="464.9398785373536"><tspan dy="17.33329" x="25.988579888459515">S+U Yorckstr. S2 S25 S26 U7 (Berlin)</tspan></text><circle r="3" cx="156.6642159010765" cy="842.5573519239915"></circle><text x="165.4975492145416" y="829.2240618238939"><tspan dy="17.33329" x="165.4975492145416">S Südende (Berlin)</tspan></text><circle r="3" cx="14.749880746999233" cy="568.0611619423922"></circle><text x="23.58321406046435" y="554.7278718422946"><tspan dy="17.33329" x="23.58321406046435">S Julius-Leber-Brücke (Berlin)</tspan></text><circle r="3" cx="39.92487045288545" cy="326.6016543235869"></circle><text x="48.75820376635057" y="313.26836422348924"><tspan dy="17.33329" x="48.75820376635057">U Mierendorffplatz (Berlin)</tspan></text><circle r="3" cx="168.4060693165813" cy="136.98267776174748"></circle><text x="177.2394026300464" y="123.64938766164983"><tspan dy="17.33329" x="177.2394026300464">U Afrikanische Str. (Berlin)</tspan></text><circle r="3" cx="20.40297637786409" cy="608.2719079165942"></circle><text x="29.236309691329208" y="594.9386178164965"><tspan dy="17.33329" x="29.236309691329208">U Rüdesheimer Platz (Berlin)</tspan></text><circle r="3" cx="14.53645897738337" cy="422.14589639014946"></circle><text x="23.369792290848487" y="408.8126062900518"><tspan dy="17.33329" x="23.369792290848487">U Kaiserdamm (Berlin)</tspan></text><circle r="3" cx="8.471038393962015" cy="457.84483803532663"></circle><text x="17.304371707427133" y="444.511547935229"><tspan dy="17.33329" x="17.304371707427133">S Westkreuz (Berlin)</tspan></text><line x1="49.65068310898468" y1="435.1116899912173" x2="8.471038393962015" y2="457.84483803532663" class="S7 SuburbanRailway"></line><line x1="42.0444872479136" y1="410.2529882516893" x2="14.53645897738337" y2="422.14589639014946" class="U2 UrbanRailwayService"></line><line x1="37.24666836470902" y1="560.3086381724557" x2="20.40297637786409" y2="608.2719079165942" class="U3 UrbanRailwayService"></line><line x1="196.93679619051335" y1="145.13316261658466" x2="168.4060693165813" y2="136.98267776174748" class="U6 UrbanRailwayService"></line><line x1="59.32537414671024" y1="374.00270410239955" x2="39.92487045288545" y2="326.6016543235869" class="U7 UrbanRailwayService"></line><line x1="574.0494751336702" y1="511.90274054274744" x2="400" y2="500" class="U7 UrbanRailwayService"></line><line x1="557.5940362150767" y1="509.2576870888036" x2="574.0494751336702" y2="511.90274054274744" class="U7 Connection"></line><line x1="50.150974101719925" y1="617.7321277237804" x2="14.749880746999233" y2="568.0611619423922" class="S1 SuburbanRailway"></line><line x1="125.9319928014302" y1="597.8991169602762" x2="50.150974101719925" y2="617.7321277237804" class="S1 Connection"></line><line x1="147.15104104007887" y1="779.2805259249201" x2="156.6642159010765" y2="842.5573519239915" class="S26 SuburbanRailway"></line><line x1="816.2816390762888" y1="170.59087865139406" x2="941.9892938568909" y2="300.3241023160609" class="S7 SuburbanRailway"></line><line x1="736.63407303153" y1="253.54427052385319" x2="816.2816390762888" y2="170.59087865139406" class="S7 Connection"></line><line x1="694.7351214627412" y1="139.19779314852937" x2="810.5100763194222" y2="176.6019940044708" class="S7 SuburbanRailway"></line><line x1="101.46311863598024" y1="705.3561101365601" x2="17.155246574994397" y2="478.27316863745125" class="S2 SuburbanRailway"></line><line x1="188.87455358199202" y1="660.3151789170172" x2="101.46311863598024" y2="705.3561101365601" class="S2 Connection"></line><line x1="171.65365496303986" y1="194.72724412642506" x2="153.32464152781512" y2="163.2102927058292" class="S25 SuburbanRailway"></line><line x1="751.9462038168658" y1="127.14197020545431" x2="750.9665897925956" y2="86.92993098145423" class="U2 UrbanRailwayService"></line><line x1="938.4811689218964" y1="384.9114444786171" x2="975.8950366712861" y2="425.65827652379124" class="S75 SuburbanRailway"></line><line x1="830.4729398124588" y1="413.26046366954597" x2="938.4811689218964" y2="384.9114444786171" class="S75 Connection"></line><line x1="916.9925420279114" y1="640.4180184061165" x2="950.8473902115808" y2="669.5270141221878" class="S45 SuburbanRailway"></line><line x1="63.98084461138642" y1="588.9510884374106" x2="24.025144603700753" y2="562.0317421202402" class="S46 SuburbanRailway"></line><line x1="189.72419653993794" y1="563.2985273524645" x2="55.815691888753236" y2="590.6168391572123" class="S46 Connection"></line><line x1="96.80223650000141" y1="598.2678152224787" x2="63.98084461138642" y2="588.9510884374106" class="S46 SuburbanRailway"></line><line x1="363.3935780643731" y1="72.98540626376332" x2="440.45790182540316" y2="25.3869825607978" class="S1 SuburbanRailway"></line><line x1="508.4432443497364" y1="50.07921627818679" x2="478.6325750961907" y2="25.480840057031994" class="U8 UrbanRailwayService"></line><line x1="131.37485218560357" y1="227.63086657394743" x2="137.7603116541261" y2="192.7421145241604" class="U9 UrbanRailwayService"></line><line x1="928.8087901956781" y1="387.45016261511824" x2="929.8383854347084" y2="305.8134740736949" class="S9 SuburbanRailway"></line><line x1="830.4729398124588" y1="413.26046366954597" x2="928.8087901956781" y2="387.45016261511824" class="S9 Connection"></line><line x1="68.58463346013471" y1="405.3943661417666" x2="42.0444872479136" y2="410.2529882516893" class="U2 UrbanRailwayService"></line><line x1="86.07998715493453" y1="403.5882633371806" x2="68.58463346013471" y2="405.3943661417666" class="U2 UrbanRailwayService"></line><line x1="182.54340952726895" y1="430.3845335760169" x2="68.58463346013471" y2="405.3943661417666" class="U2 Connection"></line><line x1="167.24077398730032" y1="422.4925254279295" x2="86.07998715493453" y2="403.5882633371806" class="U2 Connection"></line><line x1="229.75306643163464" y1="449.0922903982556" x2="205.62822875588932" y2="442.161774797242" class="U2 UrbanRailwayService"></line><line x1="66.70132273800627" y1="505.48033400299875" x2="37.24666836470902" y2="560.3086381724557" class="U3 UrbanRailwayService"></line><line x1="91.91953829838567" y1="485.63170544189757" x2="66.70132273800627" y2="505.48033400299875" class="U3 UrbanRailwayService"></line><line x1="239.2581814110799" y1="153.8909394183382" x2="196.93679619051335" y2="145.13316261658466" class="U6 UrbanRailwayService"></line><line x1="132.60526752571434" y1="270.2199131170722" x2="131.37485218560357" y2="227.63086657394743" class="U9 UrbanRailwayService"></line><line x1="84.85855343554971" y1="426.10577071141864" x2="49.65068310898468" y2="435.1116899912173" class="S7 SuburbanRailway"></line><line x1="131.09411353293336" y1="690.087997858749" x2="147.15104104007887" y2="779.2805259249201" class="S26 SuburbanRailway"></line><line x1="188.87455358199202" y1="660.3151789170172" x2="131.09411353293336" y2="690.087997858749" class="S26 Connection"></line><line x1="734.8523980404526" y1="145.78346857515413" x2="751.9462038168658" y2="127.14197020545431" class="U2 UrbanRailwayService"></line><line x1="567.3330860328938" y1="80.36771391456676" x2="508.4432443497364" y2="50.07921627818679" class="U8 UrbanRailwayService"></line><line x1="433.42453676479" y1="102.19918869766626" x2="363.3935780643731" y2="72.98540626376332" class="S1 SuburbanRailway"></line><line x1="300.8176381099805" y1="135.92392730101955" x2="171.65365496303986" y2="194.72724412642506" class="S25 SuburbanRailway"></line><line x1="251.78106833990776" y1="184.20976412081143" x2="113.34181004447802" y2="276.3785447426152" class="S5 SuburbanRailway"></line><line x1="880.4254840208903" y1="618.0927413176431" x2="916.9925420279114" y2="640.4180184061165" class="S45 SuburbanRailway"></line><line x1="286.7489477027631" y1="181.45889882376937" x2="239.2581814110799" y2="153.8909394183382" class="U6 UrbanRailwayService"></line><line x1="133.4797711748571" y1="320.00268620594363" x2="132.60526752571434" y2="270.2199131170722" class="U9 UrbanRailwayService"></line><line x1="104.85738958844509" y1="403.8745860091103" x2="97.19328608228601" y2="349.51162429339297" class="S5 SuburbanRailway"></line><line x1="224.69572225424454" y1="433.0273754981506" x2="104.85738958844509" y2="403.8745860091103" class="S5 Connection"></line><line x1="637.4324085185774" y1="115.48934449108705" x2="734.8523980404526" y2="145.78346857515413" class="U2 UrbanRailwayService"></line><line x1="614.5896680149008" y1="116.7648137445691" x2="567.3330860328938" y2="80.36771391456676" class="U8 UrbanRailwayService"></line><line x1="112.95457422802619" y1="405.8443690826942" x2="84.85855343554971" y2="426.10577071141864" class="S7 SuburbanRailway"></line><line x1="224.69572225424454" y1="433.0273754981506" x2="112.95457422802619" y2="405.8443690826942" class="S7 Connection"></line><line x1="125.9319928014302" y1="597.8991169602762" x2="96.80223650000141" y2="598.2678152224787" class="S46 SuburbanRailway"></line><line x1="389.47756619909967" y1="120.77738513278824" x2="300.8176381099805" y2="135.92392730101955" class="S25 SuburbanRailway"></line><line x1="427.7173956154449" y1="251.98520968600076" x2="389.47756619909967" y2="120.77738513278824" class="S25 Connection"></line><line x1="585.1173246361914" y1="127.94558799656514" x2="694.7351214627412" y2="139.19779314852937" class="S7 SuburbanRailway"></line><line x1="126.19650722214443" y1="470.0675963698925" x2="91.91953829838567" y2="485.63170544189757" class="U3 UrbanRailwayService"></line><line x1="125.2322290495379" y1="486.8046274466406" x2="92.96953008633507" y2="467.40693826943846" class="U3 UrbanRailwayService"></line><line x1="135.62669121885307" y1="411.3597616887288" x2="133.4797711748571" y2="320.00268620594363" class="U9 UrbanRailwayService"></line><line x1="224.69572225424454" y1="433.0273754981506" x2="135.62669121885307" y2="411.3597616887288" class="U9 Connection"></line><line x1="156.1721122063422" y1="434.5600765942392" x2="135.62669121885307" y2="411.3597616887288" class="U9 UrbanRailwayService"></line><line x1="238.03589501435596" y1="450.141010738468" x2="156.1721122063422" y2="434.5600765942392" class="U9 Connection"></line><line x1="167.73022864190617" y1="473.39341899545997" x2="156.1721122063422" y2="434.5600765942392" class="U9 UrbanRailwayService"></line><line x1="474.1335800548695" y1="130.90525834249257" x2="433.42453676479" y2="102.19918869766626" class="S1 SuburbanRailway"></line><line x1="396.47265694599207" y1="144.77881645349788" x2="251.78106833990776" y2="184.20976412081143" class="S5 SuburbanRailway"></line><line x1="427.7173956154449" y1="251.98520968600076" x2="396.47265694599207" y2="144.77881645349788" class="S5 Connection"></line><line x1="684.9312366228796" y1="173.77088155541276" x2="614.5896680149008" y2="116.7648137445691" class="U8 UrbanRailwayService"></line><line x1="145.91568940521537" y1="646.8630158857586" x2="135.14150815986181" y2="663.9459695513734" class="U9 UrbanRailwayService"></line><line x1="838.3624629919263" y1="582.7463277079316" x2="880.4254840208903" y2="618.0927413176431" class="S45 SuburbanRailway"></line><line x1="188.87455358199202" y1="660.3151789170172" x2="125.9319928014302" y2="597.8991169602762" class="S46 SuburbanRailway"></line><line x1="318.98475097353764" y1="190.74887648115885" x2="286.7489477027631" y2="181.45889882376937" class="U6 UrbanRailwayService"></line><line x1="787.2994550788105" y1="714.153685210403" x2="810.1848920411211" y2="725.2327178584019" class="U7 UrbanRailwayService"></line><line x1="165.19820303627907" y1="627.7127030785942" x2="145.91568940521537" y2="646.8630158857586" class="U9 UrbanRailwayService"></line><line x1="400.2033720110014" y1="157.57957982454295" x2="585.1173246361914" y2="127.94558799656514" class="S7 SuburbanRailway"></line><line x1="427.7173956154449" y1="251.98520968600076" x2="400.2033720110014" y2="157.57957982454295" class="S7 Connection"></line><line x1="145.8671448127936" y1="445.2944367112917" x2="126.19650722214443" y2="470.0675963698925" class="U3 UrbanRailwayService"></line><line x1="150.02799144223587" y1="504.4264236178068" x2="125.2322290495379" y2="486.8046274466406" class="U3 UrbanRailwayService"></line><line x1="266.6853276281572" y1="502.95094907853775" x2="150.02799144223587" y2="504.4264236178068" class="U3 Connection"></line><line x1="736.63407303153" y1="253.54427052385319" x2="684.9312366228796" y2="173.77088155541276" class="U8 UrbanRailwayService"></line><line x1="402.5350689266322" y1="165.58005693144617" x2="474.1335800548695" y2="130.90525834249257" class="S1 SuburbanRailway"></line><line x1="427.7173956154449" y1="251.98520968600076" x2="402.5350689266322" y2="165.58005693144617" class="S1 Connection"></line><line x1="153.58951057195324" y1="549.9977280905954" x2="143.761012168676" y2="586.8229692728727" class="U4 UrbanRailwayService"></line><line x1="181.31103974711615" y1="436.2634593585765" x2="145.8671448127936" y2="445.2944367112917" class="U3 UrbanRailwayService"></line><line x1="213.80522240155904" y1="443.76839216398525" x2="181.31103974711615" y2="436.2634593585765" class="U3 UrbanRailwayService"></line><line x1="263.0261577606762" y1="452.60616208714663" x2="181.31103974711615" y2="436.2634593585765" class="U3 Connection"></line><line x1="241.6047150931354" y1="434.098650628296" x2="213.80522240155904" y2="443.76839216398525" class="U3 UrbanRailwayService"></line><line x1="282.2119258544232" y1="416.2575424028815" x2="241.6047150931354" y2="434.098650628296" class="U3 UrbanRailwayService"></line><line x1="322.7085705819041" y1="390.5900971910399" x2="282.2119258544232" y2="416.2575424028815" class="U3 UrbanRailwayService"></line><line x1="436.17508540948546" y1="460.61243498877434" x2="322.7085705819041" y2="390.5900971910399" class="U3 Connection"></line><line x1="340.4866912221213" y1="197.85497615574698" x2="318.98475097353764" y2="190.74887648115885" class="U6 UrbanRailwayService"></line><line x1="762.4440089955892" y1="718.7675781587258" x2="787.2994550788105" y2="714.153685210403" class="U7 UrbanRailwayService"></line><line x1="171.7676856557912" y1="594.8665321984294" x2="165.19820303627907" y2="627.7127030785942" class="U9 UrbanRailwayService"></line><line x1="364.81949536920456" y1="780.8243975848156" x2="188.87455358199202" y2="660.3151789170172" class="S46 SuburbanRailway"></line><line x1="398.7953441266772" y1="710.242864502001" x2="361.2050433737287" y2="788.33307131703" class="S46 Connection"></line><line x1="715.7347917055167" y1="639.0549439090718" x2="364.81949536920456" y2="780.8243975848156" class="S46 SuburbanRailway"></line><line x1="675.1094088518805" y1="612.8692726534673" x2="715.7347917055167" y2="639.0549439090718" class="S46 Connection"></line><line x1="175.34093911903585" y1="514.8826808032159" x2="153.58951057195324" y2="549.9977280905954" class="U4 UrbanRailwayService"></line><line x1="201.2560674110649" y1="472.57623765239697" x2="175.34093911903585" y2="514.8826808032159" class="U4 UrbanRailwayService"></line><line x1="793.920699292706" y1="587.4932395773016" x2="838.3624629919263" y2="582.7463277079316" class="S45 SuburbanRailway"></line><line x1="801.9101495145349" y1="437.3924440298489" x2="830.4729398124588" y2="413.26046366954597" class="U1 UrbanRailwayService"></line><line x1="202.45688129983736" y1="419.14496330700615" x2="167.24077398730032" y2="422.4925254279295" class="U2 UrbanRailwayService"></line><line x1="375.60734142432244" y1="208.78831707801854" x2="340.4866912221213" y2="197.85497615574698" class="U6 UrbanRailwayService"></line><line x1="182.54340952726895" y1="430.3845335760169" x2="171.49709709118395" y2="406.07474305815236" class="U7 UrbanRailwayService"></line><line x1="728.8602978526615" y1="718.8623810630069" x2="762.4440089955892" y2="718.7675781587258" class="U7 UrbanRailwayService"></line><line x1="739.4860253851837" y1="280.2923678039219" x2="736.63407303153" y2="253.54427052385319" class="U8 UrbanRailwayService"></line><line x1="189.72419653993794" y1="563.2985273524645" x2="171.7676856557912" y2="594.8665321984294" class="U9 UrbanRailwayService"></line><line x1="191.99012172831604" y1="514.119466403051" x2="168.06229712340547" y2="469.5291529471078" class="U4 UrbanRailwayService"></line><line x1="333.5081739071979" y1="507.6321440016491" x2="191.99012172831604" y2="514.119466403051" class="U4 Connection"></line><line x1="431.3646797875719" y1="809.1390796989524" x2="448.0566509428682" y2="829.2612938075779" class="U6 UrbanRailwayService"></line><line x1="183.35326654124356" y1="496.4469776700621" x2="167.73022864190617" y2="473.39341899545997" class="U9 UrbanRailwayService"></line><line x1="204.07531558611493" y1="450.71936329000505" x2="182.54340952726895" y2="430.3845335760169" class="U7 UrbanRailwayService"></line><line x1="736.509714837344" y1="315.43793784323327" x2="739.4860253851837" y2="280.2923678039219" class="U8 UrbanRailwayService"></line><line x1="499.52483607107723" y1="208.33372038632046" x2="606.5802351776722" y2="201.80806307472054" class="U2 UrbanRailwayService"></line><line x1="405.18490796592476" y1="215.37727019338422" x2="375.60734142432244" y2="208.78831707801854" class="U6 UrbanRailwayService"></line><line x1="419.16176411584263" y1="780.2402970016658" x2="431.3646797875719" y2="809.1390796989524" class="U6 UrbanRailwayService"></line><line x1="703.0535564009567" y1="709.3769272803668" x2="728.8602978526615" y2="718.8623810630069" class="U7 UrbanRailwayService"></line><line x1="208.92708966013396" y1="518.6012179903565" x2="189.72419653993794" y2="563.2985273524645" class="U9 UrbanRailwayService"></line><line x1="208.92708966013396" y1="518.6012179903565" x2="183.35326654124356" y2="496.4469776700621" class="U9 UrbanRailwayService"></line><line x1="308.72351606237373" y1="512.22365753652" x2="208.92708966013396" y2="518.6012179903565" class="U9 Connection"></line><line x1="768.0725723111481" y1="438.6640727266289" x2="801.9101495145349" y2="437.3924440298489" class="U1 UrbanRailwayService"></line><line x1="224.69572225424454" y1="433.0273754981506" x2="202.45688129983736" y2="419.14496330700615" class="U2 UrbanRailwayService"></line><line x1="742.3524308717757" y1="607.192813427679" x2="793.920699292706" y2="587.4932395773016" class="S45 SuburbanRailway"></line><line x1="238.33620333856825" y1="448.5882442642151" x2="201.2560674110649" y2="472.57623765239697" class="U4 UrbanRailwayService"></line><line x1="295.5751588582565" y1="459.83456583141805" x2="238.33620333856825" y2="448.5882442642151" class="U4 Connection"></line><line x1="436.7797317736128" y1="232.36555213242139" x2="405.18490796592476" y2="215.37727019338422" class="U6 UrbanRailwayService"></line><line x1="226.3019216044429" y1="473.2724508684488" x2="204.07531558611493" y2="450.71936329000505" class="U7 UrbanRailwayService"></line><line x1="752.5492093355867" y1="414.3845342529686" x2="736.509714837344" y2="315.43793784323327" class="U8 UrbanRailwayService"></line><line x1="426.31164435764424" y1="243.71668537761414" x2="499.52483607107723" y2="208.33372038632046" class="U2 UrbanRailwayService"></line><line x1="373.3651448401499" y1="284.44579925539887" x2="426.31164435764424" y2="243.71668537761414" class="U2 UrbanRailwayService"></line><line x1="440.128211040586" y1="291.7698068693115" x2="426.31164435764424" y2="243.71668537761414" class="U2 Connection"></line><line x1="409.0887697232726" y1="759.5383366856847" x2="419.16176411584263" y2="780.2402970016658" class="U6 UrbanRailwayService"></line><line x1="687.8440298785789" y1="689.2768648041451" x2="703.0535564009567" y2="709.3769272803668" class="U7 UrbanRailwayService"></line><line x1="238.03589501435596" y1="450.141010738468" x2="220.2992495577885" y2="454.7753609208264" class="U1 UrbanRailwayService"></line><line x1="263.0261577606762" y1="452.60616208714663" x2="224.69572225424454" y2="433.0273754981506" class="U2 UrbanRailwayService"></line><line x1="736.7648837521126" y1="419.73550086215806" x2="768.0725723111481" y2="438.6640727266289" class="U1 UrbanRailwayService"></line><line x1="274.43378034922404" y1="413.2667403458415" x2="229.75306643163464" y2="449.0922903982556" class="U2 UrbanRailwayService"></line><line x1="427.7173956154449" y1="251.98520968600076" x2="436.7797317736128" y2="232.36555213242139" class="U6 UrbanRailwayService"></line><line x1="409.348860037889" y1="732.9857738652078" x2="409.0887697232726" y2="759.5383366856847" class="U6 UrbanRailwayService"></line><line x1="241.75671946934608" y1="493.17950354614027" x2="226.3019216044429" y2="473.2724508684488" class="U7 UrbanRailwayService"></line><line x1="263.0261577606762" y1="452.60616208714663" x2="238.03589501435596" y2="450.141010738468" class="U1 UrbanRailwayService"></line><line x1="295.5751588582565" y1="459.83456583141805" x2="263.0261577606762" y2="452.60616208714663" class="U1 UrbanRailwayService"></line><line x1="263.0261577606762" y1="452.60616208714663" x2="263.0261577606762" y2="452.60616208714663" class="U1 Connection"></line><line x1="686.9912952107173" y1="653.0915846583218" x2="687.8440298785789" y2="689.2768648041451" class="U7 UrbanRailwayService"></line><line x1="732.7672337985719" y1="483.7562530737086" x2="752.5492093355867" y2="414.3845342529686" class="U8 UrbanRailwayService"></line><line x1="705.9286648098114" y1="632.7342646404777" x2="742.3524308717757" y2="607.192813427679" class="S45 SuburbanRailway"></line><line x1="675.1094088518805" y1="612.8692726534673" x2="705.9286648098114" y2="632.7342646404777" class="S45 Connection"></line><line x1="439.2179400965262" y1="274.7224253541091" x2="427.7173956154449" y2="251.98520968600076" class="U6 UrbanRailwayService"></line><line x1="266.6853276281572" y1="502.95094907853775" x2="241.75671946934608" y2="493.17950354614027" class="U7 UrbanRailwayService"></line><line x1="684.749986839438" y1="386.8103944380407" x2="736.7648837521126" y2="419.73550086215806" class="U1 UrbanRailwayService"></line><line x1="340.58576227822175" y1="341.21681193657696" x2="373.3651448401499" y2="284.44579925539887" class="U2 UrbanRailwayService"></line><line x1="398.7953441266772" y1="710.242864502001" x2="409.348860037889" y2="732.9857738652078" class="U6 UrbanRailwayService"></line><line x1="287.3981652125867" y1="458.2279484646748" x2="263.0261577606762" y2="452.60616208714663" class="U2 UrbanRailwayService"></line><line x1="295.5751588582565" y1="459.83456583141805" x2="287.3981652125867" y2="458.2279484646748" class="U2 Connection"></line><line x1="677.6011525728742" y1="624.1059025559667" x2="686.9912952107173" y2="653.0915846583218" class="U7 UrbanRailwayService"></line><line x1="440.128211040586" y1="291.7698068693115" x2="439.2179400965262" y2="274.7224253541091" class="U6 UrbanRailwayService"></line><line x1="382.99924546746786" y1="672.3763360110544" x2="398.7953441266772" y2="710.242864502001" class="U6 UrbanRailwayService"></line><line x1="292.06690654766084" y1="512.9076111313656" x2="266.6853276281572" y2="502.95094907853775" class="U7 UrbanRailwayService"></line><line x1="698.0026392105232" y1="528.1949439734752" x2="732.7672337985719" y2="483.7562530737086" class="U8 UrbanRailwayService"></line><line x1="327.82834375330685" y1="398.2310421333178" x2="340.58576227822175" y2="341.21681193657696" class="U2 UrbanRailwayService"></line><line x1="409.1093921149036" y1="340.78313999645405" x2="684.749986839438" y2="386.8103944380407" class="U1 UrbanRailwayService"></line><line x1="444.722908144502" y1="316.4773740730862" x2="440.128211040586" y2="291.7698068693115" class="U6 UrbanRailwayService"></line><line x1="668.2568718202522" y1="591.7918089830151" x2="677.6011525728742" y2="624.1059025559667" class="U7 UrbanRailwayService"></line><line x1="322.35324162653063" y1="454.69282230695353" x2="295.5751588582565" y2="459.83456583141805" class="U1 UrbanRailwayService"></line><line x1="350.95415854741447" y1="606.7541486631872" x2="382.99924546746786" y2="672.3763360110544" class="U6 UrbanRailwayService"></line><line x1="308.72351606237373" y1="512.22365753652" x2="292.06690654766084" y2="512.9076111313656" class="U7 UrbanRailwayService"></line><line x1="668.5513664108282" y1="591.2499205049178" x2="675.1094088518805" y2="612.8692726534673" class="U8 UrbanRailwayService"></line><line x1="336.65894439081745" y1="437.1931568021611" x2="327.82834375330685" y2="398.2310421333178" class="U2 UrbanRailwayService"></line><line x1="359.993380906415" y1="446.165562973281" x2="336.65894439081745" y2="437.1931568021611" class="U2 Connection"></line><line x1="417.3721746499123" y1="355.2573999967764" x2="444.722908144502" y2="316.4773740730862" class="U6 UrbanRailwayService"></line><line x1="333.5081739071979" y1="507.6321440016491" x2="308.72351606237373" y2="512.22365753652" class="U7 UrbanRailwayService"></line><line x1="650.832527843187" y1="570.903641106871" x2="668.2568718202522" y2="591.7918089830151" class="U7 UrbanRailwayService"></line><line x1="656.4031403670372" y1="557.5832915098349" x2="668.5513664108282" y2="591.2499205049178" class="U8 UrbanRailwayService"></line><line x1="365.2585136422471" y1="416.84847386519033" x2="409.1093921149036" y2="340.78313999645405" class="U1 UrbanRailwayService"></line><line x1="359.993380906415" y1="446.165562973281" x2="322.35324162653063" y2="454.69282230695353" class="U1 UrbanRailwayService"></line><line x1="356.766007821373" y1="455.4576214760254" x2="350.95415854741447" y2="606.7541486631872" class="U6 UrbanRailwayService"></line><line x1="364.72345183129676" y1="457.9321980606906" x2="417.3721746499123" y2="355.2573999967764" class="U6 UrbanRailwayService"></line><line x1="452.2553359404577" y1="485.1525404920084" x2="364.72345183129676" y2="457.9321980606906" class="U6 Connection"></line><line x1="350.10986795998997" y1="505.7400624585776" x2="333.5081739071979" y2="507.6321440016491" class="U7 UrbanRailwayService"></line><line x1="634.7481352610646" y1="543.730818516354" x2="650.832527843187" y2="570.903641106871" class="U7 UrbanRailwayService"></line><line x1="640.2518694407872" y1="519.9714186478783" x2="656.4031403670372" y2="557.5832915098349" class="U8 UrbanRailwayService"></line><line x1="590.7512096381564" y1="512.9226826545095" x2="640.2518694407872" y2="519.9714186478783" class="U8 Connection"></line><line x1="393.6251423491425" y1="434.3540583146239" x2="359.993380906415" y2="446.165562973281" class="U1 UrbanRailwayService"></line><line x1="436.17508540948546" y1="460.61243498877434" x2="393.6251423491425" y2="434.3540583146239" class="U1 Connection"></line><line x1="375.00824965636434" y1="501.43608705664377" x2="350.10986795998997" y2="505.7400624585776" class="U7 UrbanRailwayService"></line><line x1="613.2014089694783" y1="528.2232549227766" x2="634.7481352610646" y2="543.730818516354" class="U7 UrbanRailwayService"></line><line x1="400.1737702819394" y1="494.1073044981948" x2="375.00824965636434" y2="501.43608705664377" class="U7 UrbanRailwayService"></line><line x1="590.7512096381564" y1="512.9226826545095" x2="613.2014089694783" y2="528.2232549227766" class="U7 UrbanRailwayService"></line><line x1="436.17508540948546" y1="460.61243498877434" x2="400.1737702819394" y2="494.1073044981948" class="U7 UrbanRailwayService"></line><line x1="557.5940362150767" y1="509.2576870888036" x2="590.7512096381564" y2="512.9226826545095" class="U7 UrbanRailwayService"></line><line x1="452.2553359404577" y1="485.1525404920084" x2="436.17508540948546" y2="460.61243498877434" class="U7 UrbanRailwayService"></line><line x1="466.6666666666667" y1="500" x2="557.5940362150767" y2="509.2576870888036" class="U7 UrbanRailwayService"></line><line x1="483.3333333333333" y1="500" x2="452.2553359404577" y2="485.1525404920084" class="U7 UrbanRailwayService"></line><line x1="500" y1="500" x2="483.3333333333333" y2="500" class="U7 Connection"></line><line x1="500" y1="500" x2="500" y2="500" class="null Connection"></line></svg>