<svg xmlns="http://www.w3.org/2000/svg" version="1.1" xmlns:xlink="http://www.w3.org/1999/xlink" xmlns:svgjs="http://svgjs.com/svgjs" width="1100" height="1400"><circle r="166.66666666666666" cx="500" cy="500" class="grid"></circle><circle r="333.3333333333333" cx="500" cy="500" class="grid"></circle><circle r="500" cx="500" cy="500" class="grid"></circle><circle r="3" cx="500" cy="500"></circle><text x="509" y="489.66670989990234"><tspan dy="17.33329" x="509">U Voltastr.</tspan></text><circle r="3" cx="536.5194900799894" cy="545.487411688019"></circle><text x="545.5194900799894" y="535.1541215879214"><tspan dy="17.33329" x="545.5194900799894">U Bernauer Str.</tspan></text><circle r="3" cx="547.6469469971018" cy="568.3682154681532"></circle><text x="556.6469469971018" y="558.0349253680555"><tspan dy="17.33329" x="556.6469469971018">U Rosenthaler Platz</tspan></text><circle r="3" cx="450.7189272532802" cy="432.8001464780097"></circle><text x="459.7189272532802" y="422.46685637791205"><tspan dy="17.33329" x="459.7189272532802">S+U Gesundbrunnen Bhf</tspan></text><circle r="3" cx="565.244833063187" cy="586.4825003666522"></circle><text x="574.244833063187" y="576.1492102665545"><tspan dy="17.33329" x="574.244833063187">U Weinmeisterstr.</tspan></text><circle r="3" cx="418.9689564122666" cy="428.0967240927511"></circle><text x="427.9689564122666" y="417.76343399265346"><tspan dy="17.33329" x="427.9689564122666">U Pankstr.</tspan></text><circle r="3" cx="392.9656325397186" cy="420.4926295230736"></circle><text x="401.9656325397186" y="410.15933942297596"><tspan dy="17.33329" x="401.9656325397186">U Osloer Str.</tspan></text><circle r="3" cx="598.1141640723438" cy="602.1912679871899"></circle><text x="607.1141640723438" y="591.8579778870923"><tspan dy="17.33329" x="607.1141640723438">S+U Alexanderplatz [U8]</tspan></text><circle r="3" cx="586.1303775777616" cy="632.8570754711869"></circle><text x="595.1303775777616" y="622.5237853710893"><tspan dy="17.33329" x="595.1303775777616">U Weinmeisterstr./Gipsstr.</tspan></text><circle r="3" cx="615.8846660326595" cy="619.7853161129391"></circle><text x="624.8846660326595" y="609.4520260128414"><tspan dy="17.33329" x="624.8846660326595">S+U Jannowitzbrücke</tspan></text><circle r="3" cx="365.94700828027845" cy="400.9668076412255"></circle><text x="374.94700828027845" y="390.63351754112784"><tspan dy="17.33329" x="374.94700828027845">U Franz-Neumann-Platz</tspan></text><circle r="3" cx="563.8222973444472" cy="329.91328053179825"></circle><text x="572.8222973444472" y="319.5799904317006"><tspan dy="17.33329" x="572.8222973444472">S Bornholmer Str.</tspan></text><circle r="3" cx="353.84922729544274" cy="389.31548098775534"></circle><text x="362.84922729544274" y="378.9821908876577"><tspan dy="17.33329" x="362.84922729544274">U Osloer Str./Tromsöer Str.</tspan></text><circle r="3" cx="361.34344562029196" cy="380.06055261650494"></circle><text x="370.34344562029196" y="369.7272625164073"><tspan dy="17.33329" x="370.34344562029196">U Residenzstr.</tspan></text><circle r="3" cx="313.3172490375121" cy="464.6510185001361"></circle><text x="322.3172490375121" y="454.31772840003845"><tspan dy="17.33329" x="322.3172490375121">S Humboldthain</tspan></text><circle r="3" cx="616.1137283200478" cy="652.4916824181871"></circle><text x="625.1137283200478" y="642.1583923180895"><tspan dy="17.33329" x="625.1137283200478">U Heinrich-Heine-Str.</tspan></text><circle r="3" cx="630.105508934862" cy="640.743268598934"></circle><text x="639.105508934862" y="630.4099784988364"><tspan dy="17.33329" x="639.105508934862">S+U Alexanderplatz Bhf/Dircksenstr.</tspan></text><circle r="3" cx="627.545817720409" cy="643.0670314682714"></circle><text x="636.545817720409" y="632.7337413681737"><tspan dy="17.33329" x="636.545817720409">S+U Alexanderplatz Bhf/Gontardstr.</tspan></text><circle r="3" cx="636.1624677133677" cy="634.8921550621726"></circle><text x="645.1624677133677" y="624.558864962075"><tspan dy="17.33329" x="645.1624677133677">S+U Alexanderplatz [U5]</tspan></text><circle r="3" cx="311.93670157953244" cy="431.93976353836115"></circle><text x="320.93670157953244" y="421.6064734382635"><tspan dy="17.33329" x="320.93670157953244">U Nauener Platz</tspan></text><circle r="3" cx="640.3741573236714" cy="653.9411372357855"></circle><text x="649.3741573236714" y="643.6078471356878"><tspan dy="17.33329" x="649.3741573236714">S+U Alexanderplatz Bhf</tspan></text><circle r="3" cx="655.558912344546" cy="638.5792284866662"></circle><text x="664.558912344546" y="628.2459383865686"><tspan dy="17.33329" x="664.558912344546">U Alexanderplatz [Tram]</tspan></text><circle r="3" cx="651.4450456935697" cy="643.0635380264671"></circle><text x="660.4450456935697" y="632.7302479263694"><tspan dy="17.33329" x="660.4450456935697">S+U Alexanderplatz [U2]</tspan></text><circle r="3" cx="328.95280653553607" cy="381.0645747234743"></circle><text x="337.95280653553607" y="370.73128462337667"><tspan dy="17.33329" x="337.95280653553607">U Paracelsus-Bad</tspan></text><circle r="3" cx="702.7238139230019" cy="433.5608069011731"></circle><text x="711.7238139230019" y="423.22751680107547"><tspan dy="17.33329" x="711.7238139230019">S+U Schönhauser Allee</tspan></text><circle r="3" cx="593.591912217647" cy="695.4098216873674"></circle><text x="602.591912217647" y="685.0765315872698"><tspan dy="17.33329" x="602.591912217647">U Moritzplatz</tspan></text><circle r="3" cx="499.94243629727083" cy="283.3333409800562"></circle><text x="508.94243629727083" y="273.00005087995856"><tspan dy="17.33329" x="508.94243629727083">S Wollankstr.</tspan></text><circle r="3" cx="278.42517818154454" cy="493.6196044612537"></circle><text x="287.42517818154454" y="483.28631436115603"><tspan dy="17.33329" x="287.42517818154454">S+U Wedding</tspan></text><circle r="3" cx="276.9203587772974" cy="470.6661684747752"></circle><text x="285.9203587772974" y="460.33287837467753"><tspan dy="17.33329" x="285.9203587772974">U Leopoldplatz</tspan></text><circle r="3" cx="662.0250478466622" cy="656.1181727739818"></circle><text x="671.0250478466622" y="645.7848826738841"><tspan dy="17.33329" x="671.0250478466622">S+U Alexanderpl./Grunerstr.(Bln) [Grunerstr.]</tspan></text><circle r="3" cx="300.075841278138" cy="379.68884006959206"></circle><text x="309.075841278138" y="369.3555499694944"><tspan dy="17.33329" x="309.075841278138">U Lindauer Allee</tspan></text><circle r="3" cx="405.26919789675844" cy="716.8805806059813"></circle><text x="414.26919789675844" y="706.5472905058837"><tspan dy="17.33329" x="414.26919789675844">S Nordbahnhof</tspan></text><circle r="3" cx="672.2594974365123" cy="669.4976203983347"></circle><text x="681.2594974365123" y="659.164330298237"><tspan dy="17.33329" x="681.2594974365123">S+U Alexanderpl/Memhardstr.[4-5]</tspan></text><circle r="3" cx="674.8885588272773" cy="666.7836016192713"></circle><text x="683.8885588272773" y="656.4503115191736"><tspan dy="17.33329" x="683.8885588272773">Berlin, Memhardstr.</tspan></text><circle r="3" cx="668.4511975563506" cy="673.2829242008835"></circle><text x="677.4511975563506" y="662.9496341007858"><tspan dy="17.33329" x="677.4511975563506">Berlin, S+U Alexanderplatz Bhf/Memhardstr.</tspan></text><circle r="3" cx="676.7704468405083" cy="664.7877025192864"></circle><text x="685.7704468405083" y="654.4544124191888"><tspan dy="17.33329" x="685.7704468405083">S+U Alexanderpl./Grunerstr.(Bln) [Alexanderstr.]</tspan></text><circle r="3" cx="305.44644076808436" cy="356.6413924175766"></circle><text x="314.44644076808436" y="346.3081023174789"><tspan dy="17.33329" x="314.44644076808436">U Paracelsus-Bad/Aroser Allee</tspan></text><circle r="3" cx="744.1896979861277" cy="480.0904194558568"></circle><text x="753.1896979861277" y="469.75712935575916"><tspan dy="17.33329" x="753.1896979861277">S Prenzlauer Allee</tspan></text><circle r="3" cx="400.11404359129074" cy="274.4623309583034"></circle><text x="409.11404359129074" y="264.12904085820577"><tspan dy="17.33329" x="409.11404359129074">S Schönholz</tspan></text><circle r="3" cx="609.1873902608336" cy="723.0416065501521"></circle><text x="618.1873902608336" y="712.7083164500544"><tspan dy="17.33329" x="618.1873902608336">S Hackescher Markt</tspan></text><circle r="3" cx="250.0046005775116" cy="498.4833366917845"></circle><text x="259.0046005775116" y="488.1500465916868"><tspan dy="17.33329" x="259.0046005775116">U Amrumer Str.</tspan></text><circle r="3" cx="626.9769367350142" cy="715.3528674928482"></circle><text x="635.9769367350142" y="705.0195773927505"><tspan dy="17.33329" x="635.9769367350142">U Kottbusser Tor</tspan></text><circle r="3" cx="304.61976123807" cy="344.0302519674689"></circle><text x="313.61976123807" y="333.6969618673713"><tspan dy="17.33329" x="313.61976123807">Berlin, Stargardtstr.</tspan></text><circle r="3" cx="284.25208559672376" cy="373.6954576009374"></circle><text x="293.25208559672376" y="363.36216750083975"><tspan dy="17.33329" x="293.25208559672376">S+U Karl-Bonhoeffer-Nervenklinik</tspan></text><circle r="3" cx="695.8033043633952" cy="668.5146198746172"></circle><text x="704.8033043633952" y="658.1813297745196"><tspan dy="17.33329" x="704.8033043633952">U Alexanderplatz [Bus]</tspan></text><circle r="3" cx="704.2083140980271" cy="658.224762803907"></circle><text x="713.2083140980271" y="647.8914727038093"><tspan dy="17.33329" x="713.2083140980271">U Rosa-Luxemburg-Platz</tspan></text><circle r="3" cx="238.34307079391854" cy="529.6664093359493"></circle><text x="247.34307079391854" y="519.3331192358517"><tspan dy="17.33329" x="247.34307079391854">S+U Westhafen</tspan></text><circle r="3" cx="481.1354060791571" cy="234.00143194499563"></circle><text x="490.1354060791571" y="223.66814184489797"><tspan dy="17.33329" x="490.1354060791571">S Wollankstr./Sternstr.</tspan></text><circle r="3" cx="716.8190620389742" cy="658.0894433993531"></circle><text x="725.8190620389742" y="647.7561532992554"><tspan dy="17.33329" x="725.8190620389742">S Ostbahnhof</tspan></text><circle r="3" cx="498.5361105782127" cy="769.9960315037255"></circle><text x="507.5361105782127" y="759.6627414036278"><tspan dy="17.33329" x="507.5361105782127">S Oranienburger Str.</tspan></text><circle r="3" cx="643.7949924662348" cy="734.4098977040761"></circle><text x="652.7949924662348" y="724.0766076039785"><tspan dy="17.33329" x="652.7949924662348">U Schönleinstr.</tspan></text><circle r="3" cx="778.2396548653296" cy="507.22072744719736"></circle><text x="787.2396548653296" y="496.8874373470997"><tspan dy="17.33329" x="787.2396548653296">S Greifswalder Str.</tspan></text><circle r="3" cx="422.82629450663865" cy="770.8880401411901"></circle><text x="431.82629450663865" y="760.5547500410925"><tspan dy="17.33329" x="431.82629450663865">S+U Friedrichstr. Bhf</tspan></text><circle r="3" cx="264.22863680339" cy="342.8706199522508"></circle><text x="273.22863680339" y="332.53732985215316"><tspan dy="17.33329" x="273.22863680339">U Rathaus Reinickendorf</tspan></text><circle r="3" cx="677.4302970385511" cy="720.898771998826"></circle><text x="686.4302970385511" y="710.5654818987283"><tspan dy="17.33329" x="686.4302970385511">U Klosterstr.</tspan></text><circle r="3" cx="756.9085560835978" cy="619.4812604085624"></circle><text x="765.9085560835978" y="609.1479703084648"><tspan dy="17.33329" x="765.9085560835978">U Senefelderplatz</tspan></text><circle r="3" cx="523.805324306923" cy="217.66848508815033"></circle><text x="532.805324306923" y="207.33519498805268"><tspan dy="17.33329" x="532.805324306923">Berlin, Pradelstr.</tspan></text><circle r="3" cx="213.06918305515515" cy="552.3464490849991"></circle><text x="222.06918305515515" y="542.0131589849015"><tspan dy="17.33329" x="222.06918305515515">U Birkenstr.</tspan></text><circle r="3" cx="735.4026368565231" cy="672.2063965288175"></circle><text x="744.4026368565231" y="661.8731064287199"><tspan dy="17.33329" x="744.4026368565231">U Schillingstr.</tspan></text><circle r="3" cx="319.4155304263494" cy="266.7313794167693"></circle><text x="328.4155304263494" y="256.39808931667164"><tspan dy="17.33329" x="328.4155304263494">S Wilhelmsruh</tspan></text><circle r="3" cx="206.93085653310283" cy="533.6968418042288"></circle><text x="215.93085653310283" y="523.3635517041312"><tspan dy="17.33329" x="215.93085653310283">S Beusselstr.</tspan></text><circle r="3" cx="689.1231998965452" cy="269.2724701326927"></circle><text x="698.1231998965452" y="258.93918003259506"><tspan dy="17.33329" x="698.1231998965452">Berlin, Björnsonstr.</tspan></text><circle r="3" cx="648.8014484492603" cy="760.4959288346023"></circle><text x="657.8014484492603" y="750.1626387345046"><tspan dy="17.33329" x="657.8014484492603">U Kottbusser Tor [Bus Reichenbg. Str.]</tspan></text><circle r="3" cx="205.92450664686478" cy="440.67374772404594"></circle><text x="214.92450664686478" y="430.3404576239483"><tspan dy="17.33329" x="214.92450664686478">U Seestr.</tspan></text><circle r="3" cx="656.7569813671839" cy="765.5121338792123"></circle><text x="665.7569813671839" y="755.1788437791147"><tspan dy="17.33329" x="665.7569813671839">U Hermannplatz</tspan></text><circle r="3" cx="270.10248990152854" cy="294.53326474835967"></circle><text x="279.10248990152854" y="284.199974648262"><tspan dy="17.33329" x="279.10248990152854">S+U Wittenau [U8]</tspan></text><circle r="3" cx="645.7361973912031" cy="771.717509951782"></circle><text x="654.7361973912031" y="761.3842198516843"><tspan dy="17.33329" x="654.7361973912031">U Märkisches Museum</tspan></text><circle r="3" cx="692.014943160167" cy="252.39539709251036"></circle><text x="701.014943160167" y="242.0621069924127"><tspan dy="17.33329" x="701.014943160167">S+U Pankow</tspan></text><circle r="3" cx="196.75062615853633" cy="591.2008500099532"></circle><text x="205.75062615853633" y="580.8675599098556"><tspan dy="17.33329" x="205.75062615853633">U Turmstr.</tspan></text><circle r="3" cx="666.2668665584661" cy="769.5053002495629"></circle><text x="675.2668665584661" y="759.1720101494652"><tspan dy="17.33329" x="675.2668665584661">U Kottbusser Tor [Bus Adalbertstr.]</tspan></text><circle r="3" cx="772.0917148631833" cy="661.9996187668044"></circle><text x="781.0917148631833" y="651.6663286667067"><tspan dy="17.33329" x="781.0917148631833">U Strausberger Platz</tspan></text><circle r="3" cx="816.3249609660584" cy="514.7070339497625"></circle><text x="825.3249609660584" y="504.37374384966483"><tspan dy="17.33329" x="825.3249609660584">U Eberswalder Str.</tspan></text><circle r="3" cx="769.5768846581808" cy="669.3056832155999"></circle><text x="778.5768846581808" y="658.9723931155022"><tspan dy="17.33329" x="778.5768846581808">S+U Warschauer Str.</tspan></text><circle r="3" cx="811.9207685840486" cy="563.5731487111302"></circle><text x="820.9207685840486" y="553.2398586110326"><tspan dy="17.33329" x="820.9207685840486">S Landsberger Allee</tspan></text><circle r="3" cx="320.1560601025012" cy="764.6812371176786"></circle><text x="329.1560601025012" y="754.347947017581"><tspan dy="17.33329" x="329.1560601025012">S Nordbahnhof/Gartenstr.</tspan></text><circle r="3" cx="709.9698719196948" cy="748.0678392819733"></circle><text x="718.9698719196948" y="737.7345491818756"><tspan dy="17.33329" x="718.9698719196948">U Görlitzer Bahnhof</tspan></text><circle r="3" cx="225.57177440248816" cy="677.2011853981577"></circle><text x="234.57177440248816" y="666.86789529806"><tspan dy="17.33329" x="234.57177440248816">S+U Berlin Hauptbahnhof</tspan></text><circle r="3" cx="362.97459498235975" cy="802.0377727330299"></circle><text x="371.97459498235975" y="791.7044826329322"><tspan dy="17.33329" x="371.97459498235975">S+U Brandenburger Tor</tspan></text><circle r="3" cx="658.2717935930559" cy="793.3618081208735"></circle><text x="667.2717935930559" y="783.0285180207759"><tspan dy="17.33329" x="667.2717935930559">U Boddinstr.</tspan></text><circle r="3" cx="223.1136338987062" cy="314.4062194513744"></circle><text x="232.1136338987062" y="304.07292935127674"><tspan dy="17.33329" x="232.1136338987062">U Rathaus Reinickendorf (Bln)[Bus Eichborndamm]</tspan></text><circle r="3" cx="221.48658625359658" cy="316.8569152972578"></circle><text x="230.48658625359658" y="306.52362519716013"><tspan dy="17.33329" x="230.48658625359658">U Rathaus Reinickendorf (Bln)[Bus Am Nordgraben]</tspan></text><circle r="3" cx="178.6025284401999" cy="411.5987761053129"></circle><text x="187.6025284401999" y="401.2654860052152"><tspan dy="17.33329" x="187.6025284401999">U Rehberge</tspan></text><circle r="3" cx="598.3136832184936" cy="818.5051503557278"></circle><text x="607.3136832184936" y="808.1718602556301"><tspan dy="17.33329" x="607.3136832184936">U Spittelmarkt</tspan></text><circle r="3" cx="163.9224896586482" cy="460.99549401411434"></circle><text x="172.9224896586482" y="450.6622039140167"><tspan dy="17.33329" x="172.9224896586482">Berlin, Nettelbeckplatz/S Wedding</tspan></text><circle r="3" cx="162.43389844658307" cy="540.6094457242183"></circle><text x="171.43389844658307" y="530.2761556241206"><tspan dy="17.33329" x="171.43389844658307">S+U Jungfernheide Bhf</tspan></text><circle r="3" cx="188.95452761949826" cy="641.3747686919476"></circle><text x="197.95452761949826" y="631.0414785918499"><tspan dy="17.33329" x="197.95452761949826">U Hansaplatz</tspan></text><circle r="3" cx="234.21936194519765" cy="285.29843143029143"></circle><text x="243.21936194519765" y="274.9651413301938"><tspan dy="17.33329" x="243.21936194519765">S Alt-Reinickendorf</tspan></text><circle r="3" cx="807.212179677001" cy="649.5218638501312"></circle><text x="816.212179677001" y="639.1885737500336"><tspan dy="17.33329" x="816.212179677001">U Weberwiese</tspan></text><circle r="3" cx="244.73823422105178" cy="265.43826247831646"></circle><text x="253.73823422105178" y="255.1049723782188"><tspan dy="17.33329" x="253.73823422105178">S+U Wittenau</tspan></text><circle r="3" cx="682.0723272324562" cy="798.9141476346634"></circle><text x="691.0723272324562" y="788.5808575345658"><tspan dy="17.33329" x="691.0723272324562">Berlin, Berliner Rathaus</tspan></text><circle r="3" cx="605.1623671025212" cy="833.8276150131899"></circle><text x="614.1623671025212" y="823.4943249130922"><tspan dy="17.33329" x="614.1623671025212">U Prinzenstr.</tspan></text><circle r="3" cx="788.5903635820507" cy="700.9603107382754"></circle><text x="797.5903635820507" y="690.6270206381778"><tspan dy="17.33329" x="797.5903635820507">S Ostbahnhof/Erich-Steinfurth-Str.</tspan></text><circle r="3" cx="776.2146289146879" cy="717.6578122144153"></circle><text x="785.2146289146879" y="707.3245221143177"><tspan dy="17.33329" x="785.2146289146879">Berlin, Stralauer Platz</tspan></text><circle r="3" cx="841.7532298311492" cy="582.9106407189217"></circle><text x="850.7532298311492" y="572.5773506188241"><tspan dy="17.33329" x="850.7532298311492">S Storkower Str.</tspan></text><circle r="3" cx="819.4882803937031" cy="658.5507798851387"></circle><text x="828.4882803937031" y="648.217489785041"><tspan dy="17.33329" x="828.4882803937031">S Ostkreuz Bhf</tspan></text><circle r="3" cx="666.5252826607046" cy="817.2886824526684"></circle><text x="675.5252826607046" y="806.9553923525707"><tspan dy="17.33329" x="675.5252826607046">U Leinestr.</tspan></text><circle r="3" cx="679.0766435215578" cy="810.3777271693808"></circle><text x="688.0766435215578" y="800.0444370692832"><tspan dy="17.33329" x="688.0766435215578">U Hermannplatz/Karl-Marx-Str.</tspan></text><circle r="3" cx="229.8012504729998" cy="264.63769730089916"></circle><text x="238.8012504729998" y="254.3044072008015"><tspan dy="17.33329" x="238.8012504729998">U Wittenau [Bus]</tspan></text><circle r="3" cx="235.42920672731543" cy="258.32858438607144"></circle><text x="244.42920672731543" y="247.99529428597378"><tspan dy="17.33329" x="244.42920672731543">S+U Wittenau [Bus Wilhelmsruher Damm]</tspan></text><circle r="3" cx="157.61999247127196" cy="394.27058960532366"></circle><text x="166.61999247127196" y="383.937299505226"><tspan dy="17.33329" x="166.61999247127196">U Afrikanische Str.</tspan></text><circle r="3" cx="830.6671863643858" cy="638.0651644682264"></circle><text x="839.6671863643858" y="627.7318743681287"><tspan dy="17.33329" x="839.6671863643858">U Frankfurter Tor</tspan></text><circle r="3" cx="697.0175143124759" cy="799.3106694254501"></circle><text x="706.0175143124759" y="788.9773793253524"><tspan dy="17.33329" x="706.0175143124759">U Märkisches Museum/Inselstr.</tspan></text><circle r="3" cx="777.6934016706493" cy="726.4710852324446"></circle><text x="786.6934016706493" y="716.1377951323469"><tspan dy="17.33329" x="786.6934016706493">U Schlesisches Tor</tspan></text><circle r="3" cx="329.89397959250664" cy="822.9379844817353"></circle><text x="338.89397959250664" y="812.6046943816376"><tspan dy="17.33329" x="338.89397959250664">S+U Potsdamer Platz Bhf</tspan></text><circle r="3" cx="148.52895127470012" cy="604.4631339391188"></circle><text x="157.52895127470012" y="594.1298438390212"><tspan dy="17.33329" x="157.52895127470012">U Turmstr. [Bus Turmstr.]</tspan></text><circle r="3" cx="149.96532016243387" cy="609.1795189376516"></circle><text x="158.96532016243387" y="598.8462288375539"><tspan dy="17.33329" x="158.96532016243387">U Turmstr. [Bus Alt-Moabit]</tspan></text><circle r="3" cx="711.1968174064181" cy="799.7337964958982"></circle><text x="720.1968174064181" y="789.4005063958006"><tspan dy="17.33329" x="720.1968174064181">U Rathaus Neukölln</tspan></text><circle r="3" cx="134.71228964675242" cy="531.7700032944024"></circle><text x="143.71228964675242" y="521.4367131943047"><tspan dy="17.33329" x="143.71228964675242">U Reinickendorfer Str.</tspan></text><circle r="3" cx="528.8120613204188" cy="865.5329117424488"></circle><text x="537.8120613204188" y="855.1996216423512"><tspan dy="17.33329" x="537.8120613204188">U Hausvogteiplatz</tspan></text><circle r="3" cx="792.523819592391" cy="723.8286385061634"></circle><text x="801.523819592391" y="713.4953484060658"><tspan dy="17.33329" x="801.523819592391">Berlin, Andreasstr./Lange Str.</tspan></text><circle r="3" cx="802.8001027244101" cy="712.6313659601675"></circle><text x="811.8001027244101" y="702.2980758600698"><tspan dy="17.33329" x="811.8001027244101">S Treptower Park</tspan></text><circle r="3" cx="162.89847266026348" cy="656.5205142348055"></circle><text x="171.89847266026348" y="646.1872241347079"><tspan dy="17.33329" x="171.89847266026348">S Bellevue</tspan></text><circle r="3" cx="173.30627283074307" cy="684.1092301549793"></circle><text x="182.30627283074307" y="673.7759400548816"><tspan dy="17.33329" x="182.30627283074307">S+U Zoologischer Garten Bhf</tspan></text><circle r="3" cx="675.6977867839189" cy="831.2933559841376"></circle><text x="684.6977867839189" y="820.96006588404"><tspan dy="17.33329" x="684.6977867839189">S+U Hermannstr.</tspan></text><circle r="3" cx="692.8215378518319" cy="821.6284417467688"></circle><text x="701.8215378518319" y="811.2951516466711"><tspan dy="17.33329" x="701.8215378518319">U Hermannplatz [Bus Ostseite]</tspan></text><circle r="3" cx="689.3827365964063" cy="823.6652268614226"></circle><text x="698.3827365964063" y="813.331936761325"><tspan dy="17.33329" x="698.3827365964063">U Hermannplatz [Bus Westseite]</tspan></text><circle r="3" cx="142.69561016065285" cy="386.16427185838427"></circle><text x="151.69561016065285" y="375.8309817582866"><tspan dy="17.33329" x="151.69561016065285">U Kurt-Schumacher-Platz</tspan></text><circle r="3" cx="744.4391895508321" cy="209.05415862787723"></circle><text x="753.4391895508321" y="198.72086852777957"><tspan dy="17.33329" x="753.4391895508321">Berlin, S+U Pankow/Granitzstr.</tspan></text><circle r="3" cx="134.14706941672628" cy="614.438095178462"></circle><text x="143.14706941672628" y="604.1048050783644"><tspan dy="17.33329" x="143.14706941672628">U Turmstr. [Bus Stromstr.]</tspan></text><circle r="3" cx="859.8248247739728" cy="632.1761700187453"></circle><text x="868.8248247739728" y="621.8428799186477"><tspan dy="17.33329" x="868.8248247739728">U Samariterstr.</tspan></text><circle r="3" cx="487.57392968744443" cy="883.1318796720418"></circle><text x="496.57392968744443" y="872.7985895719441"><tspan dy="17.33329" x="496.57392968744443">U Hallesches Tor</tspan></text><circle r="3" cx="865.0346616455852" cy="622.3711395603274"></circle><text x="874.0346616455852" y="612.0378494602297"><tspan dy="17.33329" x="874.0346616455852">S+U Frankfurter Allee</tspan></text><circle r="3" cx="209.49310867833975" cy="247.3525260474091"></circle><text x="218.49310867833975" y="237.01923594731144"><tspan dy="17.33329" x="218.49310867833975">S Waidmannslust</tspan></text><circle r="3" cx="119.83245947199217" cy="579.2175416600597"></circle><text x="128.83245947199217" y="568.8842515599621"><tspan dy="17.33329" x="128.83245947199217">S Westend</tspan></text><circle r="3" cx="780.5615550613765" cy="229.10294608183318"></circle><text x="789.5615550613765" y="218.76965598173553"><tspan dy="17.33329" x="789.5615550613765">S Pankow-Heinersdorf</tspan></text><circle r="3" cx="853.9259069143108" cy="663.8183518867241"></circle><text x="862.9259069143108" y="653.4850617866265"><tspan dy="17.33329" x="862.9259069143108">S Rummelsburg</tspan></text><circle r="3" cx="708.7992514187962" cy="831.3693564358782"></circle><text x="717.7992514187962" y="821.0360663357806"><tspan dy="17.33329" x="717.7992514187962">U Hermannplatz/Sonnenallee</tspan></text><circle r="3" cx="701.3656815486473" cy="835.9384468503516"></circle><text x="710.3656815486473" y="825.605156750254"><tspan dy="17.33329" x="710.3656815486473">U Hermannplatz/Urbanstr.</tspan></text><circle r="3" cx="731.4167765168414" cy="815.9890082334067"></circle><text x="740.4167765168414" y="805.655718133309"><tspan dy="17.33329" x="740.4167765168414">U Karl-Marx-Str.</tspan></text><circle r="3" cx="442.1253556518537" cy="887.3671427978287"></circle><text x="451.1253556518537" y="877.033852697731"><tspan dy="17.33329" x="451.1253556518537">U Französische Str.</tspan></text><circle r="3" cx="135.62015241334052" cy="643.6318364795932"></circle><text x="144.62015241334052" y="633.2985463794955"><tspan dy="17.33329" x="144.62015241334052">U Schwartzkopffstr.</tspan></text><circle r="3" cx="801.3949893990633" cy="249.8723562999956"></circle><text x="810.3949893990633" y="239.53906619989795"><tspan dy="17.33329" x="810.3949893990633">U Vinetastr.</tspan></text><circle r="3" cx="157.24168832577183" cy="706.1958772095909"></circle><text x="166.24168832577183" y="695.8625871094932"><tspan dy="17.33329" x="166.24168832577183">U Kurfürstendamm</tspan></text><circle r="3" cx="116.88878053771606" cy="384.99654995557"></circle><text x="125.88878053771606" y="374.66325985547235"><tspan dy="17.33329" x="125.88878053771606">U Scharnweberstr.</tspan></text><circle r="3" cx="453.88674338403285" cy="897.3330688028244"></circle><text x="462.88674338403285" y="886.9997787027268"><tspan dy="17.33329" x="462.88674338403285">U Stadtmitte</tspan></text><circle r="3" cx="383.4769349465989" cy="882.6517676825247"></circle><text x="392.4769349465989" y="872.318477582427"><tspan dy="17.33329" x="392.4769349465989">S Anhalter Bahnhof</tspan></text><circle r="3" cx="133.12394029342323" cy="675.4415418079598"></circle><text x="142.12394029342323" y="665.1082517078621"><tspan dy="17.33329" x="142.12394029342323">S Tiergarten</tspan></text><circle r="3" cx="206.44582227755942" cy="783.8345571857184"></circle><text x="215.44582227755942" y="773.5012670856207"><tspan dy="17.33329" x="215.44582227755942">U Naturkundemuseum</tspan></text><circle r="3" cx="405.9563306946009" cy="897.3561367019363"></circle><text x="414.9563306946009" y="887.0228466018386"><tspan dy="17.33329" x="414.9563306946009">U Möckernbrücke</tspan></text><circle r="3" cx="356.2577241793905" cy="889.3111328255484"></circle><text x="365.2577241793905" y="878.9778427254507"><tspan dy="17.33329" x="365.2577241793905">S+U Brandenburger Tor/Glinkastr.</tspan></text><circle r="3" cx="304.63254168985566" cy="866.1373461331607"></circle><text x="313.63254168985566" y="855.804056033063"><tspan dy="17.33329" x="313.63254168985566">S Potsdamer Platz Bhf/Voßstr.</tspan></text><circle r="3" cx="159.5461769042992" cy="740.2130417996333"></circle><text x="168.5461769042992" y="729.8797516995356"><tspan dy="17.33329" x="168.5461769042992">U Spichernstr.</tspan></text><circle r="3" cx="735.5249012754475" cy="843.7137355275489"></circle><text x="744.5249012754475" y="833.3804454274513"><tspan dy="17.33329" x="744.5249012754475">S+U Neukölln [U7]</tspan></text><circle r="3" cx="613.625891897709" cy="900.8743790784854"></circle><text x="622.625891897709" y="890.5410889783877"><tspan dy="17.33329" x="622.625891897709">U Südstern</tspan></text><circle r="3" cx="83.39097178705113" cy="506.9302757934662"></circle><text x="92.39097178705113" y="496.59698569336854"><tspan dy="17.33329" x="92.39097178705113">U Reinickendorfer Str./Fennstr.</tspan></text><circle r="3" cx="374.35125038017105" cy="897.270062841494"></circle><text x="383.35125038017105" y="886.9367727413963"><tspan dy="17.33329" x="383.35125038017105">U Mohrenstr.</tspan></text><circle r="3" cx="862.6123963856429" cy="708.6025593448919"></circle><text x="871.6123963856429" y="698.2692692447943"><tspan dy="17.33329" x="871.6123963856429">S Warschauer Str.</tspan></text><circle r="3" cx="860.4227450614055" cy="712.3634210973702"></circle><text x="869.4227450614055" y="702.0301309972725"><tspan dy="17.33329" x="869.4227450614055">Berlin, Helsingforser Platz</tspan></text><circle r="3" cx="847.4726589447221" cy="735.9295472930104"></circle><text x="856.4726589447221" y="725.5962571929127"><tspan dy="17.33329" x="856.4726589447221">S Treptower Park [Bus Treptowers]</tspan></text><circle r="3" cx="843.1866840604259" cy="742.1216633917943"></circle><text x="852.1866840604259" y="731.7883732916966"><tspan dy="17.33329" x="852.1866840604259">S Treptower Park [Bus Puschkinallee]</tspan></text><circle r="3" cx="97.64959050447763" cy="626.1622992679004"></circle><text x="106.64959050447763" y="615.8290091678027"><tspan dy="17.33329" x="106.64959050447763">S Messe Nord/ICC</tspan></text><circle r="3" cx="178.91448404636301" cy="224.1101622823018"></circle><text x="187.91448404636301" y="213.77687218220413"><tspan dy="17.33329" x="187.91448404636301">S Hermsdorf</tspan></text><circle r="3" cx="79.97447143725323" cy="552.8172932541636"></circle><text x="88.97447143725323" y="542.4840031540659"><tspan dy="17.33329" x="88.97447143725323">Berlin, Tegeler Weg/S Jungfernheide</tspan></text><circle r="3" cx="362.67027583251433" cy="902.2008787410618"></circle><text x="371.67027583251433" y="891.8675886409642"><tspan dy="17.33329" x="371.67027583251433">U Oranienburger Tor</tspan></text><circle r="3" cx="94.67823985399187" cy="372.17484303885306"></circle><text x="103.67823985399187" y="361.8415529387554"><tspan dy="17.33329" x="103.67823985399187">U Otisstr.</tspan></text><circle r="3" cx="838.3698208142685" cy="757.1592198660586"></circle><text x="847.3698208142685" y="746.825929765961"><tspan dy="17.33329" x="847.3698208142685">S Plänterwald</tspan></text><circle r="3" cx="163.3350027122711" cy="762.108992683765"></circle><text x="172.3350027122711" y="751.7757025836673"><tspan dy="17.33329" x="172.3350027122711">Berlin, Washingtonplatz/Hauptbahnhof</tspan></text><circle r="3" cx="891.0432716522413" cy="674.7987532562971"></circle><text x="900.0432716522413" y="664.4654631561995"><tspan dy="17.33329" x="900.0432716522413">S Betriebsbahnhof Rummelsburg</tspan></text><circle r="3" cx="178.93314346813204" cy="213.96490838230199"></circle><text x="187.93314346813204" y="203.63161828220433"><tspan dy="17.33329" x="187.93314346813204">Berlin, Göschenplatz/S Wittenau</tspan></text><circle r="3" cx="797.1388188554207" cy="813.1207968824758"></circle><text x="806.1388188554207" y="802.7875067823782"><tspan dy="17.33329" x="806.1388188554207">S Sonnenallee</tspan></text><circle r="3" cx="811.5059141087386" cy="201.1686485885555"></circle><text x="820.5059141087386" y="190.83535848845784"><tspan dy="17.33329" x="820.5059141087386">S Blankenburg</tspan></text><circle r="3" cx="315.49798051002284" cy="890.2500684371897"></circle><text x="324.49798051002284" y="879.9167783370921"><tspan dy="17.33329" x="324.49798051002284">S+U Potsdamer Platz (Bln) [Bus Leipziger Str.]</tspan></text><circle r="3" cx="279.61545099346165" cy="871.169451423869"></circle><text x="288.61545099346165" y="860.8361613237713"><tspan dy="17.33329" x="288.61545099346165">Berlin, Varian-Fry-Str./Potsdamer Platz</tspan></text><circle r="3" cx="751.1506096392677" cy="851.0832983622764"></circle><text x="760.1506096392677" y="840.7500082621788"><tspan dy="17.33329" x="760.1506096392677">S+U Neukölln</tspan></text><circle r="3" cx="159.0577434301706" cy="767.462437480201"></circle><text x="168.0577434301706" y="757.1291473801033"><tspan dy="17.33329" x="168.0577434301706">U Güntzelstr.</tspan></text><circle r="3" cx="471.11244875083077" cy="932.3693873999458"></circle><text x="480.11244875083077" y="922.0360972998482"><tspan dy="17.33329" x="480.11244875083077">U Kochstr./Checkpoint Charlie</tspan></text><circle r="3" cx="319.6109192633633" cy="894.0019763005878"></circle><text x="328.6109192633633" y="883.6686862004901"><tspan dy="17.33329" x="328.6109192633633">U Gleisdreieck</tspan></text><circle r="3" cx="844.0834876162041" cy="766.1419800592713"></circle><text x="853.0834876162041" y="755.8086899591736"><tspan dy="17.33329" x="853.0834876162041">Berlin, East Side Gallery</tspan></text><circle r="3" cx="923.0077183484684" cy="601.4370258713398"></circle><text x="932.0077183484684" y="591.1037357712421"><tspan dy="17.33329" x="932.0077183484684">Berlin, Franz-Jacob-Str.</tspan></text><circle r="3" cx="903.9387033586485" cy="665.8653119452996"></circle><text x="912.9387033586485" y="655.5320218452019"><tspan dy="17.33329" x="912.9387033586485">S Nöldnerplatz</tspan></text><circle r="3" cx="111.36209105713041" cy="709.8333152217689"></circle><text x="120.36209105713041" y="699.5000251216712"><tspan dy="17.33329" x="120.36209105713041">S+U Zoologischer Garten/Jebensstr.</tspan></text><circle r="3" cx="706.3886730434358" cy="890.4781172918839"></circle><text x="715.3886730434358" y="880.1448271917862"><tspan dy="17.33329" x="715.3886730434358">S+U Hermannstr./Silbersteinstr.</tspan></text><circle r="3" cx="747.7726825111602" cy="865.6202158602123"></circle><text x="756.7726825111602" y="855.2869257601146"><tspan dy="17.33329" x="756.7726825111602">U Grenzallee</tspan></text><circle r="3" cx="519.9583595365015" cy="941.2154896748937"></circle><text x="528.9583595365015" y="930.882199574796"><tspan dy="17.33329" x="528.9583595365015">U Gneisenaustr.</tspan></text><circle r="3" cx="81.91714647038678" cy="357.6055758501043"></circle><text x="90.91714647038678" y="347.27228575000663"><tspan dy="17.33329" x="90.91714647038678">U Holzhauser Str.</tspan></text><circle r="3" cx="923.0265004783329" cy="626.9567813765748"></circle><text x="932.0265004783329" y="616.6234912764771"><tspan dy="17.33329" x="932.0265004783329">U Magdalenenstr.</tspan></text><circle r="3" cx="322.9749319763864" cy="908.2733462904908"></circle><text x="331.9749319763864" y="897.9400561903932"><tspan dy="17.33329" x="331.9749319763864">S+U Yorckstr. S2 S25 S26 U7</tspan></text><circle r="3" cx="307.70798277782916" cy="905.0019233169222"></circle><text x="316.70798277782916" y="894.6686332168246"><tspan dy="17.33329" x="316.70798277782916">S+U Potsdamer Platz (Bln) [U2]</tspan></text><circle r="3" cx="301.78909472868776" cy="902.1383030865185"></circle><text x="310.78909472868776" y="891.8050129864208"><tspan dy="17.33329" x="310.78909472868776">S+U Potsdamer Platz (Bln) [Bus Stresemannstr.]</tspan></text><circle r="3" cx="452.8842739829497" cy="947.526656593645"></circle><text x="461.8842739829497" y="937.1933664935474"><tspan dy="17.33329" x="461.8842739829497">U Stadtmitte [3-4]</tspan></text><circle r="3" cx="466.55048269190223" cy="948.7550888757199"></circle><text x="475.55048269190223" y="938.4217987756223"><tspan dy="17.33329" x="475.55048269190223">U Stadtmitte [5]</tspan></text><circle r="3" cx="109.01969142129292" cy="722.7877875999917"></circle><text x="118.01969142129292" y="712.454497499894"><tspan dy="17.33329" x="118.01969142129292">U Uhlandstr.</tspan></text><circle r="3" cx="76.65546254788164" cy="652.575891311347"></circle><text x="85.65546254788164" y="642.2426012112494"><tspan dy="17.33329" x="85.65546254788164">S Westkreuz</tspan></text><circle r="3" cx="895.9233068823543" cy="717.3649301178065"></circle><text x="904.9233068823543" y="707.0316400177088"><tspan dy="17.33329" x="904.9233068823543">Berlin, Revaler Str.</tspan></text><circle r="3" cx="153.21919569472493" cy="799.6873674512007"></circle><text x="162.21919569472493" y="789.354077351103"><tspan dy="17.33329" x="162.21919569472493">U Berliner Str.</tspan></text><circle r="3" cx="360.870393959441" cy="936.7063053900679"></circle><text x="369.870393959441" y="926.3730152899702"><tspan dy="17.33329" x="369.870393959441">U Oranienburger Tor [Linienstr.]</tspan></text><circle r="3" cx="357.25445829953236" cy="935.5377765120776"></circle><text x="366.25445829953236" y="925.2044864119799"><tspan dy="17.33329" x="366.25445829953236">U Oranienburger Tor [Tram/Bus]</tspan></text><circle r="3" cx="207.13992593027058" cy="852.5654853503346"></circle><text x="216.13992593027058" y="842.2321952502369"><tspan dy="17.33329" x="216.13992593027058">U Naturkundemuseum [Chausseestr.]</tspan></text><circle r="3" cx="180.9607855028418" cy="829.0644679352067"></circle><text x="189.9607855028418" y="818.7311778351091"><tspan dy="17.33329" x="189.9607855028418">U Naturkundemuseum [Invalidenstr.]</tspan></text><circle r="3" cx="869.2803962009324" cy="777.0705687957376"></circle><text x="878.2803962009324" y="766.7372786956399"><tspan dy="17.33329" x="878.2803962009324">S Baumschulenweg</tspan></text><circle r="3" cx="752.5852833315081" cy="892.4008822901901"></circle><text x="761.5852833315081" y="882.0675921900925"><tspan dy="17.33329" x="761.5852833315081">U Blaschkoallee</tspan></text><circle r="3" cx="761.8995239567192" cy="886.2465755563687"></circle><text x="770.8995239567192" y="875.9132854562711"><tspan dy="17.33329" x="770.8995239567192">Berlin, Lahnstr./U Neukölln</tspan></text><circle r="3" cx="766.4180924936201" cy="883.1438082102316"></circle><text x="775.4180924936201" y="872.8105181101339"><tspan dy="17.33329" x="775.4180924936201">S+U Neukölln [Bus]</tspan></text><circle r="3" cx="63.73964730782561" cy="334.30545438464986"></circle><text x="72.7396473078256" y="323.9721642845522"><tspan dy="17.33329" x="72.7396473078256">U Borsigwerke</tspan></text><circle r="3" cx="948.8827308979348" cy="627.6012213083792"></circle><text x="957.8827308979348" y="617.2679312082815"><tspan dy="17.33329" x="957.8827308979348">S+U Lichtenberg [U5]</tspan></text><circle r="3" cx="292.2911295676262" cy="917.8932913094982"></circle><text x="301.2911295676262" y="907.5600012094005"><tspan dy="17.33329" x="301.2911295676262">U Mendelssohn-Bartholdy-Park</tspan></text><circle r="3" cx="222.71105242072082" cy="875.3513251983447"></circle><text x="231.71105242072082" y="865.0180350982471"><tspan dy="17.33329" x="231.71105242072082">U Kurfürstenstr.</tspan></text><circle r="3" cx="878.7106125642639" cy="775.5256486106352"></circle><text x="887.7106125642639" y="765.1923585105376"><tspan dy="17.33329" x="887.7106125642639">Berlin, Tamara-Danz-Str.</tspan></text><circle r="3" cx="885.6631919800412" cy="765.70663044583"></circle><text x="894.6631919800412" y="755.3733403457323"><tspan dy="17.33329" x="894.6631919800412">Berlin, Oberbaumbrücke</tspan></text><circle r="3" cx="880.2485032713297" cy="776.244594082696"></circle><text x="889.2485032713297" y="765.9113039825984"><tspan dy="17.33329" x="889.2485032713297">Berlin, Elsenstr./S Treptower Park</tspan></text><circle r="3" cx="951.580962133067" cy="630.2867400734752"></circle><text x="960.580962133067" y="619.9534499733776"><tspan dy="17.33329" x="960.580962133067">S+U Lichtenberg Bhf</tspan></text><circle r="3" cx="142.82640154289578" cy="194.50528553638895"></circle><text x="151.82640154289578" y="184.1719954362913"><tspan dy="17.33329" x="151.82640154289578">S Frohnau</tspan></text><circle r="3" cx="450.1431817718027" cy="967.3481546728952"></circle><text x="459.1431817718027" y="957.0148645727976"><tspan dy="17.33329" x="459.1431817718027">S+U Tempelhof</tspan></text><circle r="3" cx="38.5408650105854" cy="597.5956514362484"></circle><text x="47.5408650105854" y="587.2623613361508"><tspan dy="17.33329" x="47.5408650105854">Berlin, Sophie-Charlotten-Str.</tspan></text><circle r="3" cx="75.06603524473721" cy="704.6962873181083"></circle><text x="84.06603524473721" y="694.3629972180106"><tspan dy="17.33329" x="84.06603524473721">S Savignyplatz</tspan></text><circle r="3" cx="842.9409080634043" cy="826.2452727950126"></circle><text x="851.9409080634043" y="815.911982694915"><tspan dy="17.33329" x="851.9409080634043">S Köllnische Heide</tspan></text><circle r="3" cx="449.6799281416582" cy="972.3271010308124"></circle><text x="458.6799281416582" y="961.9938109307147"><tspan dy="17.33329" x="458.6799281416582">U Mehringdamm</tspan></text><circle r="3" cx="417.4659671592531" cy="967.7746609458901"></circle><text x="426.4659671592531" y="957.4413708457924"><tspan dy="17.33329" x="426.4659671592531">Berlin, Unter den Linden/Friedrichstr.</tspan></text><circle r="3" cx="61.815325886218076" cy="683.3553690836424"></circle><text x="70.81532588621808" y="673.0220789835447"><tspan dy="17.33329" x="70.81532588621808">U Ernst-Reuter-Platz</tspan></text><circle r="3" cx="107.88677395723717" cy="771.0319705744108"></circle><text x="116.88677395723717" y="760.6986804743132"><tspan dy="17.33329" x="116.88677395723717">S+U Berlin Hauptbahnhof (tief)</tspan></text><circle r="3" cx="938.4247176284633" cy="695.4066707469377"></circle><text x="947.4247176284633" y="685.0733806468401"><tspan dy="17.33329" x="947.4247176284633">S Karlshorst</tspan></text><circle r="3" cx="58.619664890028346" cy="688.6356270119967"></circle><text x="67.61966489002835" y="678.302336911899"><tspan dy="17.33329" x="67.61966489002835">S Halensee</tspan></text><circle r="3" cx="155.08000202404105" cy="838.5872208270353"></circle><text x="164.08000202404105" y="828.2539307269376"><tspan dy="17.33329" x="164.08000202404105">S+U Bundesplatz</tspan></text><circle r="3" cx="275.67870495954867" cy="930.0057634397181"></circle><text x="284.67870495954867" y="919.6724733396204"><tspan dy="17.33329" x="284.67870495954867">S+U Yorckstr. S1 U7</tspan></text><circle r="3" cx="308.47517189923104" cy="949.2078412777489"></circle><text x="317.47517189923104" y="938.8745511776513"><tspan dy="17.33329" x="317.47517189923104">S Südkreuz Bhf</tspan></text><circle r="3" cx="944.1056801998111" cy="707.0510681311813"></circle><text x="953.1056801998111" y="696.7177780310836"><tspan dy="17.33329" x="953.1056801998111">Berlin, Marktstr.</tspan></text><circle r="3" cx="754.4070551179215" cy="920.7293208433873"></circle><text x="763.4070551179215" y="910.3960307432897"><tspan dy="17.33329" x="763.4070551179215">U Parchimer Allee</tspan></text><circle r="3" cx="47.46873071152097" cy="307.7721106934035"></circle><text x="56.46873071152097" y="297.4388205933058"><tspan dy="17.33329" x="56.46873071152097">U Alt-Tegel</tspan></text><circle r="3" cx="160.26341484884176" cy="855.4084464682021"></circle><text x="169.26341484884176" y="845.0751563681044"><tspan dy="17.33329" x="169.26341484884176">U Nollendorfplatz</tspan></text><circle r="3" cx="896.4818813313593" cy="790.7545853242164"></circle><text x="905.4818813313593" y="780.4212952241187"><tspan dy="17.33329" x="905.4818813313593">S Plänterwald [Bus Köpenicker Landstr.]</tspan></text><circle r="3" cx="864.3364486328213" cy="160.0072599176055"></circle><text x="873.3364486328213" y="149.67396981750784"><tspan dy="17.33329" x="873.3364486328213">S Karow Bhf</tspan></text><line x1="811.5059141087386" y1="201.1686485885555" x2="864.3364486328213" y2="160.0072599176055" class="S2 SuburbanRailway"></line><line x1="838.3698208142685" y1="757.1592198660586" x2="896.4818813313593" y2="790.7545853242164" class="null Connection"></line><line x1="222.71105242072082" y1="875.3513251983447" x2="160.26341484884176" y2="855.4084464682021" class="U3 UrbanRailwayService"></line><line x1="63.73964730782561" y1="334.30545438464986" x2="47.46873071152097" y2="307.7721106934035" class="U6 UrbanRailwayService"></line><line x1="752.5852833315081" y1="892.4008822901901" x2="754.4070551179215" y2="920.7293208433873" class="U7 UrbanRailwayService"></line><line x1="853.9259069143108" y1="663.8183518867241" x2="944.1056801998111" y2="707.0510681311813" class="null Connection"></line><line x1="322.9749319763864" y1="908.2733462904908" x2="308.47517189923104" y2="949.2078412777489" class="S2 SuburbanRailway"></line><line x1="370.36809012809124" y1="925.7000915468087" x2="275.67870495954867" y2="930.0057634397181" class="S1 SuburbanRailway"></line><line x1="308.9220044737746" y1="862.7522565411272" x2="370.36809012809124" y2="925.7000915468087" class="S1 SuburbanRailway"></line><line x1="329.89397959250664" y1="822.9379844817353" x2="308.9220044737746" y2="862.7522565411272" class="S1 Connection"></line><line x1="153.21919569472493" y1="799.6873674512007" x2="155.08000202404105" y2="838.5872208270353" class="U9 UrbanRailwayService"></line><line x1="76.65546254788164" y1="652.575891311347" x2="58.619664890028346" y2="688.6356270119967" class="S42 SuburbanRailway"></line><line x1="891.0432716522413" y1="674.7987532562971" x2="938.4247176284633" y2="695.4066707469377" class="S3 SuburbanRailway"></line><line x1="225.57177440248816" y1="677.2011853981577" x2="107.88677395723717" y2="771.0319705744108" class="null Connection"></line><line x1="107.9675273968917" y1="720.931076185975" x2="61.815325886218076" y2="683.3553690836424" class="U2 UrbanRailwayService"></line><line x1="173.30627283074307" y1="684.1092301549793" x2="107.9675273968917" y2="720.931076185975" class="U2 Connection"></line><line x1="442.1253556518537" y1="887.3671427978287" x2="417.4659671592531" y2="967.7746609458901" class="null Connection"></line><line x1="519.9583595365015" y1="941.2154896748937" x2="449.6799281416582" y2="972.3271010308124" class="U7 UrbanRailwayService"></line><line x1="751.1506096392677" y1="851.0832983622764" x2="842.9409080634043" y2="826.2452727950126" class="S47 SuburbanRailway"></line><line x1="118.1313322421575" y1="715.2032334700424" x2="75.06603524473721" y2="704.6962873181083" class="S9 SuburbanRailway"></line><line x1="119.83245947199217" y1="579.2175416600597" x2="38.5408650105854" y2="597.5956514362484" class="null Connection"></line><line x1="694.4388840408703" y1="866.6313139557791" x2="450.1431817718027" y2="967.3481546728952" class="S41 SuburbanRailway"></line><line x1="675.6977867839189" y1="831.2933559841376" x2="694.4388840408703" y2="866.6313139557791" class="S41 Connection"></line><line x1="178.91448404636301" y1="224.1101622823018" x2="142.82640154289578" y2="194.50528553638895" class="S1 SuburbanRailway"></line><line x1="903.9387033586485" y1="665.8653119452996" x2="951.580962133067" y2="630.2867400734752" class="S7 SuburbanRailway"></line><line x1="802.8001027244101" y1="712.6313659601675" x2="880.2485032713297" y2="776.244594082696" class="null Connection"></line><line x1="769.5768846581808" y1="669.3056832155999" x2="885.6631919800412" y2="765.70663044583" class="null Connection"></line><line x1="769.5768846581808" y1="669.3056832155999" x2="878.7106125642639" y2="775.5256486106352" class="null Connection"></line><line x1="319.6109192633633" y1="894.0019763005878" x2="222.71105242072082" y2="875.3513251983447" class="U3 UrbanRailwayService"></line><line x1="374.35125038017105" y1="897.270062841494" x2="292.2911295676262" y2="917.8932913094982" class="U2 UrbanRailwayService"></line><line x1="923.0265004783329" y1="626.9567813765748" x2="948.8827308979348" y2="627.6012213083792" class="U5 UrbanRailwayService"></line><line x1="81.91714647038678" y1="357.6055758501043" x2="63.73964730782561" y2="334.30545438464986" class="U6 UrbanRailwayService"></line><line x1="735.5249012754475" y1="843.7137355275489" x2="766.4180924936201" y2="883.1438082102316" class="null Connection"></line><line x1="735.5249012754475" y1="843.7137355275489" x2="761.8995239567192" y2="886.2465755563687" class="null Connection"></line><line x1="747.7726825111602" y1="865.6202158602123" x2="752.5852833315081" y2="892.4008822901901" class="U7 UrbanRailwayService"></line><line x1="838.3698208142685" y1="757.1592198660586" x2="869.2803962009324" y2="777.0705687957376" class="S9 SuburbanRailway"></line><line x1="206.44582227755942" y1="783.8345571857184" x2="180.9607855028418" y2="829.0644679352067" class="null Connection"></line><line x1="206.44582227755942" y1="783.8345571857184" x2="207.13992593027058" y2="852.5654853503346" class="null Connection"></line><line x1="362.67027583251433" y1="902.2008787410618" x2="357.25445829953236" y2="935.5377765120776" class="null Connection"></line><line x1="362.67027583251433" y1="902.2008787410618" x2="360.870393959441" y2="936.7063053900679" class="null Connection"></line><line x1="159.0577434301706" y1="767.462437480201" x2="153.21919569472493" y2="799.6873674512007" class="U9 UrbanRailwayService"></line><line x1="769.5768846581808" y1="669.3056832155999" x2="895.9233068823543" y2="717.3649301178065" class="null Connection"></line><line x1="97.64959050447763" y1="626.1622992679004" x2="76.65546254788164" y2="652.575891311347" class="S42 SuburbanRailway"></line><line x1="128.67849568625283" y1="723.3788669770568" x2="109.01969142129292" y2="722.7877875999917" class="U1 UrbanRailwayService"></line><line x1="157.24168832577183" y1="706.1958772095909" x2="128.67849568625283" y2="723.3788669770568" class="U1 Connection"></line><line x1="453.88674338403285" y1="897.3330688028244" x2="466.55048269190223" y2="948.7550888757199" class="null Connection"></line><line x1="453.88674338403285" y1="897.3330688028244" x2="452.8842739829497" y2="947.526656593645" class="null Connection"></line><line x1="329.89397959250664" y1="822.9379844817353" x2="301.78909472868776" y2="902.1383030865185" class="null Connection"></line><line x1="329.89397959250664" y1="822.9379844817353" x2="307.70798277782916" y2="905.0019233169222" class="null Connection"></line><line x1="383.4769349465989" y1="882.6517676825247" x2="322.9749319763864" y2="908.2733462904908" class="S2 SuburbanRailway"></line><line x1="887.1579744725904" y1="629.7875722609534" x2="923.0265004783329" y2="626.9567813765748" class="U5 UrbanRailwayService"></line><line x1="94.67823985399187" y1="372.17484303885306" x2="81.91714647038678" y2="357.6055758501043" class="U6 UrbanRailwayService"></line><line x1="613.625891897709" y1="900.8743790784854" x2="519.9583595365015" y2="941.2154896748937" class="U7 UrbanRailwayService"></line><line x1="735.5249012754475" y1="843.7137355275489" x2="747.7726825111602" y2="865.6202158602123" class="U7 UrbanRailwayService"></line><line x1="675.6977867839189" y1="831.2933559841376" x2="706.3886730434358" y2="890.4781172918839" class="null Connection"></line><line x1="173.30627283074307" y1="684.1092301549793" x2="111.36209105713041" y2="709.8333152217689" class="null Connection"></line><line x1="868.7551647534797" y1="683.0001992132209" x2="903.9387033586485" y2="665.8653119452996" class="S7 SuburbanRailway"></line><line x1="813.3302010163148" y1="696.7846160935244" x2="868.7551647534797" y2="683.0001992132209" class="S7 SuburbanRailway"></line><line x1="767.9937474891668" y1="695.402479729635" x2="813.3302010163148" y2="696.7846160935244" class="S7 SuburbanRailway"></line><line x1="701.6393188968275" y1="708.4264500365141" x2="767.9937474891668" y2="695.402479729635" class="S7 SuburbanRailway"></line><line x1="615.8846660326595" y1="619.7853161129391" x2="701.6393188968275" y2="708.4264500365141" class="S7 Connection"></line><line x1="672.9409618227631" y1="689.6554810744877" x2="701.6393188968275" y2="708.4264500365141" class="S7 SuburbanRailway"></line><line x1="598.1141640723438" y1="602.1912679871899" x2="672.9409618227631" y2="689.6554810744877" class="S7 Connection"></line><line x1="841.7532298311492" y1="582.9106407189217" x2="923.0077183484684" y2="601.4370258713398" class="null Connection"></line><line x1="716.8190620389742" y1="658.0894433993531" x2="844.0834876162041" y2="766.1419800592713" class="null Connection"></line><line x1="405.9563306946009" y1="897.3561367019363" x2="319.6109192633633" y2="894.0019763005878" class="U3 UrbanRailwayService"></line><line x1="451.9653576917009" y1="913.8886133362754" x2="471.11244875083077" y2="932.3693873999458" class="U6 UrbanRailwayService"></line><line x1="159.5461769042992" y1="740.2130417996333" x2="159.0577434301706" y2="767.462437480201" class="U9 UrbanRailwayService"></line><line x1="692.8771259361243" y1="863.6864841248089" x2="751.1506096392677" y2="851.0832983622764" class="S47 SuburbanRailway"></line><line x1="675.6977867839189" y1="831.2933559841376" x2="692.8771259361243" y2="863.6864841248089" class="S47 Connection"></line><line x1="329.89397959250664" y1="822.9379844817353" x2="279.61545099346165" y2="871.169451423869" class="null Connection"></line><line x1="329.89397959250664" y1="822.9379844817353" x2="315.49798051002284" y2="890.2500684371897" class="null Connection"></line><line x1="780.5615550613765" y1="229.10294608183318" x2="811.5059141087386" y2="201.1686485885555" class="S2 SuburbanRailway"></line><line x1="816.4397469912755" y1="722.2093554178327" x2="797.1388188554207" y2="813.1207968824758" class="S41 SuburbanRailway"></line><line x1="802.8001027244101" y1="712.6313659601675" x2="816.4397469912755" y2="722.2093554178327" class="S41 Connection"></line><line x1="244.73823422105178" y1="265.43826247831646" x2="178.93314346813204" y2="213.96490838230199" class="null Connection"></line><line x1="853.9259069143108" y1="663.8183518867241" x2="891.0432716522413" y2="674.7987532562971" class="S3 SuburbanRailway"></line><line x1="225.57177440248816" y1="677.2011853981577" x2="163.3350027122711" y2="762.108992683765" class="null Connection"></line><line x1="802.8001027244101" y1="712.6313659601675" x2="838.3698208142685" y2="757.1592198660586" class="S9 SuburbanRailway"></line><line x1="116.88878053771606" y1="384.99654995557" x2="94.67823985399187" y2="372.17484303885306" class="U6 UrbanRailwayService"></line><line x1="388.12095949187267" y1="892.7075138141514" x2="362.67027583251433" y2="902.2008787410618" class="U6 UrbanRailwayService"></line><line x1="162.43389844658307" y1="540.6094457242183" x2="79.97447143725323" y2="552.8172932541636" class="null Connection"></line><line x1="209.49310867833975" y1="247.3525260474091" x2="178.91448404636301" y2="224.1101622823018" class="S1 SuburbanRailway"></line><line x1="119.83245947199217" y1="579.2175416600597" x2="97.64959050447763" y2="626.1622992679004" class="S42 SuburbanRailway"></line><line x1="802.8001027244101" y1="712.6313659601675" x2="843.1866840604259" y2="742.1216633917943" class="null Connection"></line><line x1="802.8001027244101" y1="712.6313659601675" x2="847.4726589447221" y2="735.9295472930104" class="null Connection"></line><line x1="769.5768846581808" y1="669.3056832155999" x2="860.4227450614055" y2="712.3634210973702" class="null Connection"></line><line x1="769.5768846581808" y1="669.3056832155999" x2="862.6123963856429" y2="708.6025593448919" class="null Connection"></line><line x1="453.88674338403285" y1="897.3330688028244" x2="374.35125038017105" y2="897.270062841494" class="U2 UrbanRailwayService"></line><line x1="134.71228964675242" y1="531.7700032944024" x2="83.39097178705113" y2="506.9302757934662" class="null Connection"></line><line x1="694.8870579159585" y1="830.0961664444262" x2="613.625891897709" y2="900.8743790784854" class="U7 UrbanRailwayService"></line><line x1="731.4167765168414" y1="815.9890082334067" x2="735.5249012754475" y2="843.7137355275489" class="U7 UrbanRailwayService"></line><line x1="157.24168832577183" y1="706.1958772095909" x2="159.5461769042992" y2="740.2130417996333" class="U9 UrbanRailwayService"></line><line x1="329.89397959250664" y1="822.9379844817353" x2="304.63254168985566" y2="866.1373461331607" class="null Connection"></line><line x1="362.97459498235975" y1="802.0377727330299" x2="356.2577241793905" y2="889.3111328255484" class="null Connection"></line><line x1="487.57392968744443" y1="883.1318796720418" x2="405.9563306946009" y2="897.3561367019363" class="U3 UrbanRailwayService"></line><line x1="135.62015241334052" y1="643.6318364795932" x2="206.44582227755942" y2="783.8345571857184" class="U6 UrbanRailwayService"></line><line x1="162.89847266026348" y1="656.5205142348055" x2="133.12394029342323" y2="675.4415418079598" class="S9 SuburbanRailway"></line><line x1="329.89397959250664" y1="822.9379844817353" x2="383.4769349465989" y2="882.6517676825247" class="S2 SuburbanRailway"></line><line x1="528.8120613204188" y1="865.5329117424488" x2="453.88674338403285" y2="897.3330688028244" class="U2 UrbanRailwayService"></line><line x1="142.69561016065285" y1="386.16427185838427" x2="116.88878053771606" y2="384.99654995557" class="U6 UrbanRailwayService"></line><line x1="173.30627283074307" y1="684.1092301549793" x2="157.24168832577183" y2="706.1958772095909" class="U9 UrbanRailwayService"></line><line x1="832.593757217425" y1="390.9981988222372" x2="801.3949893990633" y2="249.8723562999956" class="U2 UrbanRailwayService"></line><line x1="702.7238139230019" y1="433.5608069011731" x2="832.593757217425" y2="390.9981988222372" class="U2 Connection"></line><line x1="134.71228964675242" y1="531.7700032944024" x2="135.62015241334052" y2="643.6318364795932" class="U6 UrbanRailwayService"></line><line x1="397.2539423904953" y1="860.6497575844247" x2="442.1253556518537" y2="887.3671427978287" class="U6 UrbanRailwayService"></line><line x1="422.82629450663865" y1="770.8880401411901" x2="397.2539423904953" y2="860.6497575844247" class="U6 Connection"></line><line x1="711.1968174064181" y1="799.7337964958982" x2="731.4167765168414" y2="815.9890082334067" class="U7 UrbanRailwayService"></line><line x1="656.7569813671839" y1="765.5121338792123" x2="701.3656815486473" y2="835.9384468503516" class="null Connection"></line><line x1="656.7569813671839" y1="765.5121338792123" x2="708.7992514187962" y2="831.3693564358782" class="null Connection"></line><line x1="819.4882803937031" y1="658.5507798851387" x2="853.9259069143108" y2="663.8183518867241" class="S3 SuburbanRailway"></line><line x1="717.5488451761466" y1="219.46925308885486" x2="780.5615550613765" y2="229.10294608183318" class="S2 SuburbanRailway"></line><line x1="692.014943160167" y1="252.39539709251036" x2="717.5488451761466" y2="219.46925308885486" class="S2 Connection"></line><line x1="610.6643504412892" y1="205.07899101385206" x2="717.5488451761466" y2="219.46925308885486" class="S2 SuburbanRailway"></line><line x1="563.8222973444472" y1="329.91328053179825" x2="610.6643504412892" y2="205.07899101385206" class="S2 Connection"></line><line x1="333.429974116087" y1="272.8644950956728" x2="610.6643504412892" y2="205.07899101385206" class="S2 SuburbanRailway"></line><line x1="162.43389844658307" y1="540.6094457242183" x2="119.83245947199217" y2="579.2175416600597" class="S42 SuburbanRailway"></line><line x1="244.73823422105178" y1="265.43826247831646" x2="209.49310867833975" y2="247.3525260474091" class="S1 SuburbanRailway"></line><line x1="841.7532298311492" y1="582.9106407189217" x2="865.0346616455852" y2="622.3711395603274" class="S41 SuburbanRailway"></line><line x1="605.1623671025212" y1="833.8276150131899" x2="487.57392968744443" y2="883.1318796720418" class="U3 UrbanRailwayService"></line><line x1="830.6671863643858" y1="638.0651644682264" x2="859.8248247739728" y2="632.1761700187453" class="U5 UrbanRailwayService"></line><line x1="196.75062615853633" y1="591.2008500099532" x2="134.14706941672628" y2="614.438095178462" class="null Connection"></line><line x1="692.014943160167" y1="252.39539709251036" x2="744.4391895508321" y2="209.05415862787723" class="null Connection"></line><line x1="157.61999247127196" y1="394.27058960532366" x2="142.69561016065285" y2="386.16427185838427" class="U6 UrbanRailwayService"></line><line x1="656.7569813671839" y1="765.5121338792123" x2="689.3827365964063" y2="823.6652268614226" class="null Connection"></line><line x1="656.7569813671839" y1="765.5121338792123" x2="692.8215378518319" y2="821.6284417467688" class="null Connection"></line><line x1="666.5252826607046" y1="817.2886824526684" x2="675.6977867839189" y2="831.2933559841376" class="U8 UrbanRailwayService"></line><line x1="188.95452761949826" y1="641.3747686919476" x2="173.30627283074307" y2="684.1092301549793" class="U9 UrbanRailwayService"></line><line x1="225.57177440248816" y1="677.2011853981577" x2="162.89847266026348" y2="656.5205142348055" class="S9 SuburbanRailway"></line><line x1="769.5768846581808" y1="669.3056832155999" x2="802.8001027244101" y2="712.6313659601675" class="S9 SuburbanRailway"></line><line x1="716.8190620389742" y1="658.0894433993531" x2="792.523819592391" y2="723.8286385061634" class="null Connection"></line><line x1="598.3136832184936" y1="818.5051503557278" x2="528.8120613204188" y2="865.5329117424488" class="U2 UrbanRailwayService"></line><line x1="150.1450181813862" y1="489.9256912546111" x2="134.71228964675242" y2="531.7700032944024" class="U6 UrbanRailwayService"></line><line x1="278.42517818154454" y1="493.6196044612537" x2="150.1450181813862" y2="489.9256912546111" class="U6 Connection"></line><line x1="673.7036820555282" y1="794.2161483526406" x2="711.1968174064181" y2="799.7337964958982" class="U7 UrbanRailwayService"></line><line x1="656.7569813671839" y1="765.5121338792123" x2="673.7036820555282" y2="794.2161483526406" class="U7 Connection"></line><line x1="196.75062615853633" y1="591.2008500099532" x2="149.96532016243387" y2="609.1795189376516" class="null Connection"></line><line x1="196.75062615853633" y1="591.2008500099532" x2="148.52895127470012" y2="604.4631339391188" class="null Connection"></line><line x1="362.97459498235975" y1="802.0377727330299" x2="329.89397959250664" y2="822.9379844817353" class="S2 SuburbanRailway"></line><line x1="709.9698719196948" y1="748.0678392819733" x2="777.6934016706493" y2="726.4710852324446" class="U3 UrbanRailwayService"></line><line x1="645.7361973912031" y1="771.717509951782" x2="697.0175143124759" y2="799.3106694254501" class="null Connection"></line><line x1="807.212179677001" y1="649.5218638501312" x2="830.6671863643858" y2="638.0651644682264" class="U5 UrbanRailwayService"></line><line x1="178.6025284401999" y1="411.5987761053129" x2="157.61999247127196" y2="394.27058960532366" class="U6 UrbanRailwayService"></line><line x1="270.10248990152854" y1="294.53326474835967" x2="235.42920672731543" y2="258.32858438607144" class="null Connection"></line><line x1="270.10248990152854" y1="294.53326474835967" x2="229.8012504729998" y2="264.63769730089916" class="null Connection"></line><line x1="656.7569813671839" y1="765.5121338792123" x2="679.0766435215578" y2="810.3777271693808" class="null Connection"></line><line x1="658.2717935930559" y1="793.3618081208735" x2="666.5252826607046" y2="817.2886824526684" class="U8 UrbanRailwayService"></line><line x1="769.5768846581808" y1="669.3056832155999" x2="819.4882803937031" y2="658.5507798851387" class="S3 SuburbanRailway"></line><line x1="811.9207685840486" y1="563.5731487111302" x2="841.7532298311492" y2="582.9106407189217" class="S41 SuburbanRailway"></line><line x1="716.8190620389742" y1="658.0894433993531" x2="776.2146289146879" y2="717.6578122144153" class="null Connection"></line><line x1="716.8190620389742" y1="658.0894433993531" x2="788.5903635820507" y2="700.9603107382754" class="null Connection"></line><line x1="660.8374531976846" y1="772.7802988242743" x2="605.1623671025212" y2="833.8276150131899" class="U3 UrbanRailwayService"></line><line x1="677.4302970385511" y1="720.898771998826" x2="682.0723272324562" y2="798.9141476346634" class="null Connection"></line><line x1="319.4155304263494" y1="266.7313794167693" x2="244.73823422105178" y2="265.43826247831646" class="S1 SuburbanRailway"></line><line x1="772.0917148631833" y1="661.9996187668044" x2="807.212179677001" y2="649.5218638501312" class="U5 UrbanRailwayService"></line><line x1="328.95280653553607" y1="381.0645747234743" x2="234.21936194519765" y2="285.29843143029143" class="null Connection"></line><line x1="196.75062615853633" y1="591.2008500099532" x2="188.95452761949826" y2="641.3747686919476" class="U9 UrbanRailwayService"></line><line x1="206.93085653310283" y1="533.6968418042288" x2="162.43389844658307" y2="540.6094457242183" class="S42 SuburbanRailway"></line><line x1="278.42517818154454" y1="493.6196044612537" x2="163.9224896586482" y2="460.99549401411434" class="null Connection"></line><line x1="645.7361973912031" y1="771.717509951782" x2="598.3136832184936" y2="818.5051503557278" class="U2 UrbanRailwayService"></line><line x1="205.92450664686478" y1="440.67374772404594" x2="178.6025284401999" y2="411.5987761053129" class="U6 UrbanRailwayService"></line><line x1="264.22863680339" y1="342.8706199522508" x2="221.48658625359658" y2="316.8569152972578" class="null Connection"></line><line x1="264.22863680339" y1="342.8706199522508" x2="223.1136338987062" y2="314.4062194513744" class="null Connection"></line><line x1="656.7569813671839" y1="765.5121338792123" x2="658.2717935930559" y2="793.3618081208735" class="U8 UrbanRailwayService"></line><line x1="417.80315391239617" y1="788.5198060675398" x2="362.97459498235975" y2="802.0377727330299" class="S2 SuburbanRailway"></line><line x1="422.82629450663865" y1="770.8880401411901" x2="225.57177440248816" y2="677.2011853981577" class="S9 SuburbanRailway"></line><line x1="652.3723240820169" y1="758.4234409914178" x2="709.9698719196948" y2="748.0678392819733" class="U3 UrbanRailwayService"></line><line x1="626.9769367350142" y1="715.3528674928482" x2="652.3723240820169" y2="758.4234409914178" class="U3 Connection"></line><line x1="405.26919789675844" y1="716.8805806059813" x2="320.1560601025012" y2="764.6812371176786" class="null Connection"></line><line x1="778.2396548653296" y1="507.22072744719736" x2="811.9207685840486" y2="563.5731487111302" class="S41 SuburbanRailway"></line><line x1="734.3261912719348" y1="670.8544295123442" x2="769.5768846581808" y2="669.3056832155999" class="S3 SuburbanRailway"></line><line x1="716.8190620389742" y1="658.0894433993531" x2="734.3261912719348" y2="670.8544295123442" class="S3 Connection"></line><line x1="756.9085560835978" y1="619.4812604085624" x2="816.3249609660584" y2="514.7070339497625" class="U2 UrbanRailwayService"></line><line x1="735.4026368565231" y1="672.2063965288175" x2="772.0917148631833" y2="661.9996187668044" class="U5 UrbanRailwayService"></line><line x1="626.9769367350142" y1="715.3528674928482" x2="666.2668665584661" y2="769.5053002495629" class="null Connection"></line><line x1="213.06918305515515" y1="552.3464490849991" x2="196.75062615853633" y2="591.2008500099532" class="U9 UrbanRailwayService"></line><line x1="594.855157521105" y1="247.2105637261589" x2="692.014943160167" y2="252.39539709251036" class="S85 SuburbanRailway"></line><line x1="563.8222973444472" y1="329.91328053179825" x2="594.855157521105" y2="247.2105637261589" class="S85 Connection"></line><line x1="677.4302970385511" y1="720.898771998826" x2="645.7361973912031" y2="771.717509951782" class="U2 UrbanRailwayService"></line><line x1="264.22863680339" y1="342.8706199522508" x2="270.10248990152854" y2="294.53326474835967" class="U8 UrbanRailwayService"></line><line x1="643.7949924662348" y1="734.4098977040761" x2="656.7569813671839" y2="765.5121338792123" class="U8 UrbanRailwayService"></line><line x1="219.08489623807813" y1="463.06110104230953" x2="205.92450664686478" y2="440.67374772404594" class="U6 UrbanRailwayService"></line><line x1="276.9203587772974" y1="470.6661684747752" x2="219.08489623807813" y2="463.06110104230953" class="U6 Connection"></line><line x1="626.9769367350142" y1="715.3528674928482" x2="648.8014484492603" y2="760.4959288346023" class="null Connection"></line><line x1="563.8222973444472" y1="329.91328053179825" x2="689.1231998965452" y2="269.2724701326927" class="null Connection"></line><line x1="238.34307079391854" y1="529.6664093359493" x2="206.93085653310283" y2="533.6968418042288" class="S42 SuburbanRailway"></line><line x1="400.11404359129074" y1="274.4623309583034" x2="319.4155304263494" y2="266.7313794167693" class="S1 SuburbanRailway"></line><line x1="683.5233260484522" y1="681.8111655185803" x2="735.4026368565231" y2="672.2063965288175" class="U5 UrbanRailwayService"></line><line x1="598.1141640723438" y1="602.1912679871899" x2="683.5233260484522" y2="681.8111655185803" class="U5 Connection"></line><line x1="226.7506751961807" y1="530.9807439267826" x2="213.06918305515515" y2="552.3464490849991" class="U9 UrbanRailwayService"></line><line x1="499.94243629727083" y1="283.3333409800562" x2="523.805324306923" y2="217.66848508815033" class="null Connection"></line><line x1="704.2083140980271" y1="658.224762803907" x2="756.9085560835978" y2="619.4812604085624" class="U2 UrbanRailwayService"></line><line x1="681.7340548322834" y1="671.6762456317606" x2="677.4302970385511" y2="720.898771998826" class="U2 UrbanRailwayService"></line><line x1="284.25208559672376" y1="373.6954576009374" x2="264.22863680339" y2="342.8706199522508" class="U8 UrbanRailwayService"></line><line x1="609.1873902608336" y1="723.0416065501521" x2="422.82629450663865" y2="770.8880401411901" class="S9 SuburbanRailway"></line><line x1="744.1896979861277" y1="480.0904194558568" x2="778.2396548653296" y2="507.22072744719736" class="S41 SuburbanRailway"></line><line x1="626.9769367350142" y1="715.3528674928482" x2="643.7949924662348" y2="734.4098977040761" class="U8 UrbanRailwayService"></line><line x1="405.26919789675844" y1="716.8805806059813" x2="498.5361105782127" y2="769.9960315037255" class="S2 SuburbanRailway"></line><line x1="666.8739190870297" y1="672.4908552026322" x2="716.8190620389742" y2="658.0894433993531" class="S9 SuburbanRailway"></line><line x1="615.8846660326595" y1="619.7853161129391" x2="666.8739190870297" y2="672.4908552026322" class="S9 Connection"></line><line x1="499.94243629727083" y1="283.3333409800562" x2="481.1354060791571" y2="234.00143194499563" class="null Connection"></line><line x1="278.42517818154454" y1="493.6196044612537" x2="238.34307079391854" y2="529.6664093359493" class="S42 SuburbanRailway"></line><line x1="663.5606493490551" y1="654.5086210685844" x2="704.2083140980271" y2="658.224762803907" class="U2 UrbanRailwayService"></line><line x1="598.1141640723438" y1="602.1912679871899" x2="663.5606493490551" y2="654.5086210685844" class="U2 Connection"></line><line x1="598.1141640723438" y1="602.1912679871899" x2="695.8033043633952" y2="668.5146198746172" class="null Connection"></line><line x1="300.075841278138" y1="379.68884006959206" x2="284.25208559672376" y2="373.6954576009374" class="U8 UrbanRailwayService"></line><line x1="365.94700828027845" y1="400.9668076412255" x2="304.61976123807" y2="344.0302519674689" class="null Connection"></line><line x1="593.591912217647" y1="695.4098216873674" x2="626.9769367350142" y2="715.3528674928482" class="U8 UrbanRailwayService"></line><line x1="276.9203587772974" y1="470.6661684747752" x2="250.0046005775116" y2="498.4833366917845" class="U9 UrbanRailwayService"></line><line x1="653.8500764267438" y1="668.7194864104209" x2="609.1873902608336" y2="723.0416065501521" class="S9 SuburbanRailway"></line><line x1="598.1141640723438" y1="602.1912679871899" x2="653.8500764267438" y2="668.7194864104209" class="S9 Connection"></line><line x1="499.94243629727083" y1="283.3333409800562" x2="400.11404359129074" y2="274.4623309583034" class="S1 SuburbanRailway"></line><line x1="702.7238139230019" y1="433.5608069011731" x2="744.1896979861277" y2="480.0904194558568" class="S41 SuburbanRailway"></line><line x1="328.95280653553607" y1="381.0645747234743" x2="305.44644076808436" y2="356.6413924175766" class="null Connection"></line><line x1="598.1141640723438" y1="602.1912679871899" x2="676.7704468405083" y2="664.7877025192864" class="null Connection"></line><line x1="598.1141640723438" y1="602.1912679871899" x2="668.4511975563506" y2="673.2829242008835" class="null Connection"></line><line x1="598.1141640723438" y1="602.1912679871899" x2="674.8885588272773" y2="666.7836016192713" class="null Connection"></line><line x1="598.1141640723438" y1="602.1912679871899" x2="672.2594974365123" y2="669.4976203983347" class="null Connection"></line><line x1="313.3172490375121" y1="464.6510185001361" x2="405.26919789675844" y2="716.8805806059813" class="S2 SuburbanRailway"></line><line x1="328.95280653553607" y1="381.0645747234743" x2="300.075841278138" y2="379.68884006959206" class="U8 UrbanRailwayService"></line><line x1="598.1141640723438" y1="602.1912679871899" x2="662.0250478466622" y2="656.1181727739818" class="null Connection"></line><line x1="311.93670157953244" y1="431.93976353836115" x2="276.9203587772974" y2="470.6661684747752" class="U9 UrbanRailwayService"></line><line x1="387.6391541374788" y1="346.7843339698621" x2="278.42517818154454" y2="493.6196044612537" class="S42 SuburbanRailway"></line><line x1="450.7189272532802" y1="432.8001464780097" x2="387.6391541374788" y2="346.7843339698621" class="S42 Connection"></line><line x1="563.8222973444472" y1="329.91328053179825" x2="499.94243629727083" y2="283.3333409800562" class="S1 SuburbanRailway"></line><line x1="616.1137283200478" y1="652.4916824181871" x2="593.591912217647" y2="695.4098216873674" class="U8 UrbanRailwayService"></line><line x1="392.5672614121508" y1="353.5043193220612" x2="702.7238139230019" y2="433.5608069011731" class="S41 SuburbanRailway"></line><line x1="450.7189272532802" y1="432.8001464780097" x2="392.5672614121508" y2="353.5043193220612" class="S41 Connection"></line><line x1="361.34344562029196" y1="380.06055261650494" x2="328.95280653553607" y2="381.0645747234743" class="U8 UrbanRailwayService"></line><line x1="598.1141640723438" y1="602.1912679871899" x2="651.4450456935697" y2="643.0635380264671" class="null Connection"></line><line x1="598.1141640723438" y1="602.1912679871899" x2="655.558912344546" y2="638.5792284866662" class="null Connection"></line><line x1="598.1141640723438" y1="602.1912679871899" x2="640.3741573236714" y2="653.9411372357855" class="null Connection"></line><line x1="352.8277447421131" y1="390.67736559422616" x2="311.93670157953244" y2="431.93976353836115" class="U9 UrbanRailwayService"></line><line x1="392.9656325397186" y1="420.4926295230736" x2="352.8277447421131" y2="390.67736559422616" class="U9 Connection"></line><line x1="598.1141640723438" y1="602.1912679871899" x2="636.1624677133677" y2="634.8921550621726" class="null Connection"></line><line x1="598.1141640723438" y1="602.1912679871899" x2="627.545817720409" y2="643.0670314682714" class="null Connection"></line><line x1="598.1141640723438" y1="602.1912679871899" x2="630.105508934862" y2="640.743268598934" class="null Connection"></line><line x1="615.8846660326595" y1="619.7853161129391" x2="616.1137283200478" y2="652.4916824181871" class="U8 UrbanRailwayService"></line><line x1="399.46661159669156" y1="362.91229881513976" x2="313.3172490375121" y2="464.6510185001361" class="S2 SuburbanRailway"></line><line x1="450.7189272532802" y1="432.8001464780097" x2="399.46661159669156" y2="362.91229881513976" class="S2 Connection"></line><line x1="365.94700828027845" y1="400.9668076412255" x2="361.34344562029196" y2="380.06055261650494" class="U8 UrbanRailwayService"></line><line x1="392.9656325397186" y1="420.4926295230736" x2="353.84922729544274" y2="389.31548098775534" class="null Connection"></line><line x1="407.35158323616673" y1="373.6642753786582" x2="563.8222973444472" y2="329.91328053179825" class="S1 SuburbanRailway"></line><line x1="450.7189272532802" y1="432.8001464780097" x2="407.35158323616673" y2="373.6642753786582" class="S1 Connection"></line><line x1="392.9656325397186" y1="420.4926295230736" x2="365.94700828027845" y2="400.9668076412255" class="U8 UrbanRailwayService"></line><line x1="598.1141640723438" y1="602.1912679871899" x2="615.8846660326595" y2="619.7853161129391" class="U8 UrbanRailwayService"></line><line x1="565.244833063187" y1="586.4825003666522" x2="586.1303775777616" y2="632.8570754711869" class="null Connection"></line><line x1="565.244833063187" y1="586.4825003666522" x2="598.1141640723438" y2="602.1912679871899" class="U8 UrbanRailwayService"></line><line x1="418.9689564122666" y1="428.0967240927511" x2="392.9656325397186" y2="420.4926295230736" class="U8 UrbanRailwayService"></line><line x1="450.7189272532802" y1="432.8001464780097" x2="418.9689564122666" y2="428.0967240927511" class="U8 UrbanRailwayService"></line><line x1="547.6469469971018" y1="568.3682154681532" x2="565.244833063187" y2="586.4825003666522" class="U8 UrbanRailwayService"></line><line x1="441.66666666666663" y1="500" x2="450.7189272532802" y2="432.8001464780097" class="U8 UrbanRailwayService"></line><line x1="536.5194900799894" y1="545.487411688019" x2="547.6469469971018" y2="568.3682154681532" class="U8 UrbanRailwayService"></line><line x1="466.6666666666667" y1="500" x2="536.5194900799894" y2="545.487411688019" class="U8 UrbanRailwayService"></line><line x1="500" y1="500" x2="466.6666666666667" y2="500" class="U8 Connection"></line><line x1="500" y1="500" x2="500" y2="500" class="null Connection"></line></svg>